<svg xmlns="http://www.w3.org/2000/svg" width="512" height="512" viewBox="0 0 512 512">
<g>
<path d="M 118.99,384.07 L 117.96,383.75 L 115.97,382.93 L 114.98,382.49 L 113.11,381.44 L 111.27,380.33 L 108.06,377.52 L 106.55,376.02 L 104.12,372.57 L 103.57,371.68 L 102.65,369.80 L 101.56,366.88 L 101.28,365.96 L 100.85,363.68 L 100.66,362.46 L 100.37,359.49 L 100.24,357.90 L 100.09,354.10 L 100.00,347.32 L 100.00,333.00 L 88.68,333.00 L 86.95,333.00 L 83.83,332.92 L 82.32,332.86 L 79.60,332.66 L 78.29,332.54 L 75.91,332.20 L 74.76,332.01 L 72.68,331.52 L 71.67,331.25 L 69.83,330.60 L 68.94,330.25 L 67.29,329.42 L 62.78,326.19 L 62.22,325.69 L 61.01,324.36 L 60.40,323.67 L 59.20,322.12 L 58.62,321.33 L 57.58,319.73 L 56.35,317.50 L 54.02,312.50 L 54.02,256.00 L 54.02,199.50 L 56.35,194.50 L 56.67,193.81 L 57.58,192.27 L 58.07,191.48 L 59.20,189.88 L 59.79,189.10 L 61.01,187.64 L 62.78,185.81 L 64.21,184.52 L 67.29,182.58 L 68.09,182.14 L 69.83,181.40 L 70.73,181.05 L 72.68,180.48 L 73.69,180.21 L 75.91,179.80 L 77.06,179.61 L 79.60,179.34 L 80.92,179.22 L 83.83,179.08 L 88.68,179.00 L 100.00,179.00 L 100.00,164.68 L 100.00,162.56 L 100.07,158.81 L 100.12,157.01 L 100.30,153.85 L 100.41,152.33 L 100.72,149.67 L 100.89,148.39 L 101.36,146.13 L 101.61,145.05 L 102.25,143.11 L 102.59,142.18 L 103.43,140.48 L 106.74,135.87 L 107.60,134.91 L 109.17,133.31 L 109.94,132.55 L 111.44,131.33 L 112.21,130.75 L 113.85,129.84 L 114.70,129.42 L 116.65,128.78 L 117.69,128.49 L 120.15,128.07 L 121.46,127.87 L 124.60,127.61 L 126.28,127.49 L 130.30,127.34 L 131.37,127.31 L 133.70,127.25 L 137.52,127.18 L 139.80,127.14 L 143.57,127.08 L 145.35,127.06 L 148.23,127.04 L 149.57,127.04 L 151.71,127.08 L 152.70,127.10 L 154.24,127.20 L 154.95,127.26 L 156.04,127.44 L 156.54,127.54 L 157.33,127.80 L 159.27,129.00 L 162.00,131.15 L 162.00,256.00 L 162.00,380.85 L 159.37,382.93 L 158.75,383.41 L 157.47,384.06 L 157.10,384.20 L 156.20,384.42 L 155.71,384.52 L 154.46,384.67 L 153.79,384.74 L 152.07,384.83 L 151.15,384.87 L 148.84,384.91 L 147.61,384.92 L 144.59,384.93 L 139.12,384.91 L 136.69,384.90 L 132.08,384.82 L 129.84,384.77 L 125.94,384.63 L 125.03,384.59 L 123.41,384.51 L 122.64,384.46 L 121.36,384.37 L 120.76,384.32 L 119.86,384.22 L 119.46,384.17 M 352.73,383.00 L 350.00,380.85 L 350.00,256.00 L 350.00,131.15 L 352.73,129.00 L 353.38,128.49 L 354.67,127.80 L 355.04,127.66 L 355.96,127.44 L 356.46,127.34 L 357.76,127.20 L 358.47,127.14 L 360.29,127.08 L 361.28,127.05 L 363.77,127.04 L 365.12,127.04 L 368.43,127.08 L 374.48,127.18 L 375.82,127.20 L 378.30,127.25 L 379.50,127.28 L 381.70,127.34 L 383.84,127.41 L 387.40,127.61 L 389.07,127.73 L 391.85,128.07 L 393.16,128.26 L 395.35,128.78 L 396.38,129.08 L 398.15,129.84 L 399.01,130.26 L 400.56,131.33 L 401.32,131.90 L 402.83,133.31 L 405.26,135.87 L 406.60,137.35 L 408.57,140.48 L 409.02,141.31 L 409.75,143.11 L 410.09,144.05 L 410.64,146.13 L 410.89,147.22 L 411.28,149.67 L 411.46,150.95 L 411.70,153.85 L 411.81,155.37 L 411.93,158.81 L 412.00,164.68 L 412.00,179.00 L 423.32,179.00 L 425.15,179.00 L 428.52,179.10 L 430.15,179.17 L 433.07,179.40 L 434.47,179.53 L 436.89,179.89 L 439.88,180.56 L 441.40,181.01 L 444.42,182.50 L 445.90,183.33 L 448.70,185.46 L 450.05,186.59 L 452.43,189.18 L 455.32,193.43 L 455.59,193.94 L 456.04,194.90 L 456.25,195.41 L 456.58,196.73 L 456.73,197.49 L 456.96,199.67 L 457.02,200.29 L 457.11,201.77 L 457.15,202.56 L 457.22,204.42 L 457.26,205.40 L 457.31,207.70 L 457.34,208.91 L 457.38,211.70 L 457.40,213.17 L 457.43,216.52 L 457.44,218.28 L 457.46,222.25 L 457.47,224.32 L 457.48,228.97 L 457.49,231.38 L 457.50,236.77 L 457.50,239.57 L 457.50,245.75 L 457.50,256.00 L 457.50,259.64 L 457.50,266.25 L 457.50,269.45 L 457.50,275.23 L 457.49,278.02 L 457.48,283.03 L 457.48,285.45 L 457.46,289.75 L 457.46,291.82 L 457.43,295.48 L 457.42,297.23 L 457.38,300.30 L 457.36,301.76 L 457.31,304.30 L 457.29,305.51 L 457.22,307.58 L 457.19,308.57 L 457.11,310.23 L 457.06,311.02 L 456.96,312.33 L 456.86,313.57 L 456.58,315.27 L 456.42,316.02 L 456.04,317.10 L 455.32,318.57 L 454.53,320.04 L 452.43,322.82 L 451.31,324.16 L 448.70,326.54 L 447.35,327.67 L 444.42,329.50 L 439.88,331.44 L 439.03,331.70 L 436.89,332.11 L 435.75,332.31 L 433.07,332.60 L 431.68,332.73 L 428.52,332.90 L 423.32,333.00 L 412.00,333.00 L 412.00,347.32 L 412.00,349.42 L 411.93,353.11 L 411.89,354.88 L 411.72,357.99 L 411.62,359.47 L 411.32,362.08 L 411.15,363.34 L 410.70,365.54 L 410.45,366.61 L 409.83,368.51 L 409.50,369.43 L 408.69,371.12 L 405.42,375.83 L 404.57,376.82 L 403.03,378.47 L 402.27,379.25 L 400.78,380.52 L 400.02,381.11 L 398.37,382.05 L 397.52,382.49 L 395.54,383.15 L 394.50,383.46 L 392.02,383.90 L 390.69,384.10 L 387.51,384.37 L 385.82,384.50 L 381.76,384.66 L 380.68,384.69 L 378.33,384.75 L 374.48,384.82 L 372.20,384.86 L 368.43,384.92 L 366.65,384.94 L 363.77,384.96 L 362.43,384.96 L 360.29,384.92 L 359.30,384.90 L 357.76,384.80 L 357.05,384.74 L 355.96,384.56 L 355.46,384.46 L 354.67,384.20 L 353.93,383.90 M 21.50,284.07 L 20.33,283.79 L 18.36,283.10 L 17.42,282.72 L 15.78,281.76 L 14.98,281.23 L 13.50,279.88 L 11.29,277.31 L 8.50,273.66 L 8.50,256.00 L 8.50,238.34 L 11.30,234.67 L 12.39,233.25 L 14.52,231.19 L 15.08,230.73 L 16.30,229.96 L 16.93,229.61 L 18.34,229.02 L 19.08,228.75 L 20.78,228.33 L 21.68,228.13 L 23.75,227.82 L 24.83,227.68 L 27.35,227.47 L 31.72,227.22 L 43.00,226.72 L 43.00,255.86 L 43.00,285.00 L 33.75,284.90 L 31.21,284.87 L 26.34,284.61 L 25.23,284.54 L 23.39,284.36 L 22.57,284.27 M 173.00,256.00 L 173.00,227.00 L 256.00,227.00 L 339.00,227.00 L 339.00,256.00 L 339.00,285.00 L 256.00,285.00 L 173.00,285.00 L 173.00,256.00 M 469.00,255.99 L 469.00,226.72 L 480.28,227.22 L 481.87,227.29 L 484.65,227.47 L 485.97,227.57 L 488.25,227.82 L 489.34,227.96 L 491.22,228.33 L 492.11,228.52 L 493.66,229.02 L 494.40,229.29 L 495.70,229.96 L 496.33,230.32 L 497.48,231.19 L 500.70,234.67 L 503.50,238.34 L 503.50,256.00 L 503.50,273.66 L 500.70,277.33 L 500.15,278.05 L 499.08,279.28 L 498.55,279.87 L 497.44,280.86 L 496.88,281.32 L 495.66,282.09 L 495.03,282.45 L 493.61,283.04 L 492.87,283.31 L 491.17,283.74 L 490.28,283.93 L 488.21,284.23 L 487.13,284.37 L 484.61,284.57 L 480.25,284.80 L 469.00,285.25 L 469.00,255.99 Z" fill="rgba(255,255,255,1)"/>
</g>
</svg>