<svg xmlns="http://www.w3.org/2000/svg" width="512" height="512" viewBox="0 0 512 512">
<g>
<path d="M 365.12,127.04 L 368.43,127.08 L 374.48,127.18 L 375.82,127.20 L 378.30,127.25 L 379.50,127.28 L 381.70,127.34 L 383.84,127.41 L 387.40,127.61 L 389.07,127.73 L 391.85,128.07 L 393.16,128.26 L 395.35,128.78 L 396.38,129.08 L 398.15,129.84 L 399.01,130.26 L 400.56,131.33 L 401.32,131.90 L 402.83,133.31 L 405.26,135.87 L 406.60,137.35 L 408.57,140.48 L 409.02,141.31 L 409.75,143.11 L 410.09,144.05 L 410.64,146.13 L 410.89,147.22 L 411.28,149.67 L 411.46,150.95 L 411.70,153.85 L 411.81,155.37 L 411.93,158.81 L 412.00,164.68 L 412.00,179.00 L 425.59,179.00 L 428.96,179.08 L 430.54,179.14 L 433.05,179.34 L 434.21,179.46 L 435.98,179.80 L 437.92,180.46 L 438.70,180.86 L 440.07,181.33 L 440.38,181.42 L 440.85,181.48 L 441.28,181.39 L 441.39,181.27 L 441.81,181.23 L 442.04,181.24 L 442.66,181.41 L 443.32,181.64 L 445.06,182.62 L 445.97,183.18 L 447.91,184.66 L 450.64,187.16 L 451.54,188.13 L 453.02,189.67 L 453.70,190.42 L 454.77,192.02 L 455.26,192.89 L 456.00,195.18 L 456.16,195.82 L 456.44,197.35 L 456.57,198.16 L 456.79,200.07 L 456.89,201.09 L 457.05,203.47 L 457.13,204.73 L 457.20,206.62 L 457.16,206.34 L 457.12,206.20 L 457.04,206.00 L 457.00,206.00 L 456.88,206.20 L 456.81,206.54 L 456.77,206.81 L 456.63,208.15 L 456.57,209.22 L 456.45,211.62 L 456.40,213.21 L 456.30,216.65 L 456.25,218.75 L 456.18,223.21 L 456.14,225.82 L 456.09,231.30 L 456.06,234.41 L 456.03,240.87 L 456.02,244.47 L 456.00,251.92 L 456.00,256.00 L 456.01,263.93 L 456.02,267.53 L 456.04,274.48 L 456.06,277.59 L 456.11,283.57 L 456.14,286.18 L 456.21,291.15 L 456.25,293.25 L 456.34,297.20 L 456.40,298.79 L 456.51,301.71 L 456.57,302.78 L 456.70,304.65 L 456.77,305.19 L 456.84,305.66 L 456.88,305.80 L 456.96,306.00 L 457.00,306.00 L 457.12,305.80 L 457.19,305.46 L 457.23,305.19 L 457.31,304.41 L 457.29,305.51 L 457.22,307.58 L 457.19,308.57 L 457.11,310.23 L 457.06,311.02 L 456.96,312.33 L 456.86,313.57 L 456.58,315.27 L 456.42,316.02 L 456.04,317.10 L 455.32,318.57 L 454.53,320.04 L 454.37,320.26 L 454.51,320.00 L 454.91,319.24 L 455.43,318.13 L 455.59,317.63 L 455.59,317.48 L 455.51,317.24 L 455.38,317.21 L 455.05,317.18 L 454.79,317.24 L 453.61,317.71 L 453.02,318.19 L 452.84,318.50 L 452.54,319.16 L 452.52,319.53 L 452.56,320.30 L 452.72,320.70 L 452.98,321.39 L 453.09,321.57 L 453.25,321.74 L 452.43,322.82 L 451.31,324.16 L 448.70,326.54 L 447.35,327.67 L 444.42,329.50 L 439.88,331.44 L 439.03,331.70 L 436.89,332.11 L 435.75,332.31 L 433.07,332.60 L 431.68,332.73 L 428.52,332.90 L 423.32,333.00 L 412.00,333.00 L 412.00,349.42 L 411.93,353.11 L 411.89,354.88 L 411.72,357.99 L 411.62,359.47 L 411.32,362.08 L 411.15,363.34 L 410.70,365.54 L 410.45,366.61 L 409.83,368.51 L 409.50,369.43 L 408.69,371.12 L 405.42,375.83 L 404.57,376.82 L 403.03,378.47 L 402.27,379.25 L 400.78,380.52 L 400.02,381.11 L 398.37,382.05 L 397.52,382.49 L 395.54,383.15 L 394.50,383.46 L 392.02,383.90 L 390.69,384.10 L 387.51,384.37 L 385.82,384.50 L 381.76,384.66 L 380.68,384.69 L 378.33,384.75 L 374.48,384.82 L 372.20,384.86 L 368.43,384.92 L 366.65,384.94 L 363.77,384.96 L 362.43,384.96 L 360.29,384.92 L 359.30,384.90 L 357.76,384.80 L 357.05,384.74 L 355.96,384.56 L 355.46,384.46 L 354.67,384.20 L 353.93,383.90 L 352.73,383.00 L 350.00,380.85 L 350.00,131.15 L 352.73,129.00 L 353.38,128.49 L 354.67,127.80 L 355.04,127.66 L 355.96,127.44 L 356.46,127.34 L 357.76,127.20 L 358.47,127.14 L 360.29,127.08 L 361.28,127.05 L 363.77,127.04 M 151.71,127.08 L 152.70,127.10 L 154.24,127.20 L 154.95,127.26 L 156.04,127.44 L 156.32,127.49 L 156.31,127.57 L 156.41,127.83 L 156.70,128.45 L 156.96,128.92 L 157.53,129.95 L 157.76,130.27 L 158.18,130.79 L 158.36,130.87 L 158.71,130.92 L 158.89,130.78 L 159.26,130.40 L 159.47,130.05 L 159.27,129.05 L 159.14,128.92 L 159.27,129.00 L 162.00,131.15 L 162.00,380.85 L 159.37,382.93 L 158.75,383.41 L 157.47,384.06 L 157.10,384.20 L 156.20,384.42 L 155.71,384.52 L 154.46,384.67 L 153.79,384.74 L 152.07,384.83 L 151.15,384.87 L 148.84,384.91 L 147.61,384.92 L 144.59,384.93 L 139.12,384.91 L 136.69,384.90 L 132.08,384.82 L 129.84,384.77 L 125.94,384.63 L 125.03,384.59 L 123.41,384.51 L 122.64,384.46 L 121.36,384.37 L 120.76,384.32 L 119.86,384.22 L 119.46,384.17 L 118.99,384.07 L 118.08,383.79 L 116.23,383.01 L 115.31,382.59 L 113.49,381.57 L 111.69,380.49 L 108.42,377.84 L 107.65,377.15 L 106.27,375.71 L 105.61,374.99 L 104.50,373.52 L 103.98,372.79 L 103.20,371.35 L 102.46,369.28 L 102.29,368.51 L 101.76,366.64 L 100.93,364.20 L 100.87,364.05 L 100.74,363.45 L 100.68,363.10 L 100.57,362.17 L 100.51,361.67 L 100.41,360.44 L 100.36,359.80 L 100.27,358.34 L 100.19,356.82 L 100.07,353.25 L 100.00,347.45 L 100.00,333.00 L 86.95,333.00 L 83.83,332.92 L 82.32,332.86 L 79.60,332.66 L 78.29,332.54 L 75.91,332.20 L 74.76,332.01 L 72.68,331.52 L 71.67,331.25 L 69.83,330.60 L 68.94,330.25 L 67.29,329.42 L 66.00,328.50 L 66.16,328.40 L 66.51,327.59 L 66.28,326.84 L 65.94,326.42 L 64.84,325.60 L 64.10,325.44 L 63.84,325.60 L 63.49,326.41 L 63.60,326.78 L 62.78,326.19 L 62.22,325.69 L 61.01,324.36 L 60.40,323.67 L 59.20,322.12 L 58.62,321.33 L 57.58,319.73 L 56.35,317.50 L 54.02,312.50 L 54.01,256.27 L 54.01,253.19 L 54.01,247.50 L 54.01,244.73 L 54.02,239.66 L 54.02,237.19 L 54.03,232.69 L 54.04,230.50 L 54.06,226.53 L 54.07,224.61 L 54.09,221.14 L 54.11,219.46 L 54.14,216.45 L 54.16,215.00 L 54.20,212.41 L 54.22,211.16 L 54.28,208.96 L 54.30,207.91 L 54.37,206.05 L 54.40,205.16 L 54.48,203.62 L 54.56,202.15 L 54.76,199.98 L 54.87,199.00 L 55.13,197.60 L 55.61,196.02 L 56.05,194.91 L 57.01,193.18 L 57.23,192.82 L 57.64,192.32 L 58.11,192.00 L 58.35,192.00 L 58.74,191.59 L 59.00,190.62 L 59.00,190.30 L 59.34,189.52 L 59.57,189.12 L 60.29,188.20 L 60.70,187.73 L 61.73,186.74 L 62.28,186.25 L 63.54,185.24 L 64.85,184.24 L 67.80,182.45 L 72.12,180.56 L 72.97,180.30 L 75.11,179.89 L 76.25,179.69 L 78.93,179.40 L 80.32,179.27 L 83.48,179.10 L 88.68,179.00 L 100.00,179.00 L 100.00,162.56 L 100.07,158.81 L 100.12,157.01 L 100.30,153.85 L 100.41,152.33 L 100.72,149.67 L 100.89,148.39 L 101.36,146.13 L 101.61,145.05 L 102.25,143.11 L 102.59,142.18 L 103.43,140.48 L 106.74,135.87 L 107.60,134.91 L 109.17,133.31 L 109.94,132.55 L 110.61,132.01 L 113.90,131.57 L 116.54,130.88 L 117.25,130.55 L 117.52,130.38 L 117.99,130.02 L 118.10,129.84 L 118.63,128.65 L 118.55,128.34 L 120.15,128.07 L 121.46,127.87 L 124.60,127.61 L 126.28,127.49 L 130.30,127.34 L 131.37,127.31 L 133.70,127.25 L 137.52,127.18 L 139.80,127.14 L 143.57,127.08 L 145.35,127.06 L 148.23,127.04 L 149.57,127.04 M 397.55,379.64 L 396.78,380.05 L 396.43,380.39 L 395.78,381.13 L 395.61,381.58 L 395.40,382.32 L 395.43,382.58 L 395.58,382.99 L 395.78,382.98 L 396.71,382.73 L 397.33,382.37 L 397.61,382.11 L 398.14,381.56 L 398.34,381.25 L 398.67,380.61 L 398.74,380.29 L 398.48,379.54 L 397.92,379.49 M 54.88,206.63 L 54.80,206.91 L 54.77,207.16 L 54.70,207.72 L 54.66,208.10 L 54.60,208.93 L 54.57,209.44 L 54.50,210.54 L 54.48,211.19 L 54.42,212.55 L 54.39,213.34 L 54.34,214.97 L 54.32,215.88 L 54.28,217.78 L 54.26,218.83 L 54.18,223.30 L 54.15,225.93 L 54.09,231.45 L 54.07,234.61 L 54.04,241.18 L 54.03,244.86 L 54.01,252.49 L 54.02,256.69 L 54.02,264.73 L 54.03,268.37 L 54.06,275.40 L 54.08,278.53 L 54.13,284.52 L 54.16,287.13 L 54.23,292.08 L 54.27,294.15 L 54.32,296.16 L 54.34,297.07 L 54.39,298.81 L 54.41,299.58 L 54.47,301.05 L 54.49,301.68 L 54.55,302.88 L 54.58,303.37 L 54.64,304.30 L 54.67,304.66 L 54.74,305.30 L 54.78,305.52 L 54.85,305.89 L 54.88,305.97 L 54.96,306.06 L 55.00,306.00 L 55.12,305.53 L 55.20,304.96 L 55.24,304.55 L 55.31,303.65 L 55.34,303.08 L 55.41,301.87 L 55.44,301.16 L 55.56,298.05 L 55.61,296.12 L 55.71,292.03 L 55.75,289.69 L 55.83,284.83 L 55.86,282.17 L 55.92,276.71 L 55.94,273.82 L 56.01,261.91 L 56.01,255.78 L 55.98,243.54 L 55.94,237.80 L 55.90,232.16 L 55.86,229.53 L 55.80,224.41 L 55.75,222.10 L 55.66,217.69 L 55.61,215.81 L 55.50,212.29 L 55.44,210.93 L 55.38,209.64 L 55.34,209.10 L 55.27,208.11 L 55.24,207.73 L 55.16,207.06 L 55.12,206.85 L 55.04,206.53 L 55.00,206.50 M 480.28,227.22 L 481.87,227.29 L 484.65,227.47 L 485.97,227.57 L 488.25,227.82 L 489.34,227.96 L 491.22,228.33 L 492.11,228.52 L 493.66,229.02 L 494.40,229.29 L 495.70,229.96 L 496.33,230.32 L 497.48,231.19 L 500.70,234.67 L 503.50,238.34 L 503.50,273.66 L 500.70,277.33 L 500.15,278.05 L 499.08,279.28 L 498.55,279.87 L 497.44,280.86 L 496.88,281.32 L 495.66,282.09 L 495.03,282.45 L 493.61,283.04 L 492.87,283.31 L 491.17,283.74 L 490.28,283.93 L 488.21,284.23 L 487.13,284.37 L 484.61,284.57 L 480.25,284.80 L 469.00,285.25 L 469.00,226.72 M 43.03,285.00 L 33.77,284.90 L 31.22,284.87 L 26.34,284.61 L 25.23,284.54 L 23.40,284.36 L 22.57,284.27 L 21.50,284.07 L 20.33,283.79 L 18.36,283.10 L 17.42,282.72 L 15.78,281.76 L 14.98,281.23 L 13.50,279.88 L 12.12,278.27 L 12.70,278.53 L 12.97,278.46 L 13.45,278.20 L 13.54,277.87 L 13.59,277.10 L 13.38,276.55 L 12.63,275.52 L 11.88,274.89 L 11.49,274.66 L 10.73,274.29 L 10.45,274.26 L 10.00,274.33 L 10.00,274.60 L 10.31,275.55 L 10.76,276.55 L 10.88,276.78 L 8.50,273.66 L 8.50,253.95 L 8.52,250.96 L 8.53,249.53 L 8.56,247.06 L 8.58,245.89 L 8.65,243.91 L 8.68,242.98 L 8.77,241.45 L 8.82,240.73 L 8.94,239.61 L 9.01,239.09 L 9.17,238.33 L 9.25,238.00 L 9.44,237.57 L 9.77,237.24 L 9.95,237.18 L 10.38,236.85 L 10.61,236.65 L 11.11,236.09 L 12.54,233.93 L 12.85,233.32 L 13.57,232.26 L 13.95,231.75 L 14.83,230.89 L 15.29,230.48 L 16.38,229.80 L 16.96,229.48 L 18.32,228.96 L 19.04,228.72 L 20.73,228.35 L 21.61,228.18 L 23.67,227.93 L 24.75,227.82 L 27.23,227.69 L 31.50,227.59 L 42.50,227.50 M 338.23,284.52 L 338.37,283.72 L 338.43,283.09 L 338.55,281.67 L 338.60,280.73 L 338.70,278.71 L 338.74,277.48 L 338.82,274.87 L 338.85,273.35 L 338.91,270.16 L 338.93,268.36 L 338.97,264.62 L 338.98,262.54 L 339.00,258.26 L 339.00,285.00 L 338.00,285.00 M 115.36,129.39 L 114.34,129.94 L 110.77,131.87 L 111.44,131.33 L 112.21,130.75 L 113.85,129.84 L 114.70,129.42 L 116.62,128.79 M 338.98,248.97 L 338.96,244.84 L 338.94,243.02 L 338.89,239.54 L 338.86,238.04 L 338.79,235.20 L 338.74,234.02 L 338.65,231.81 L 338.60,230.93 L 338.48,229.35 L 338.42,228.78 L 338.28,227.80 L 338.20,227.53 L 338.04,227.15 L 337.95,227.18 L 337.71,227.71 L 337.56,228.49 L 337.49,229.10 L 337.37,230.46 L 337.31,231.36 L 337.21,233.31 L 337.17,234.50 L 337.09,237.02 L 337.06,238.51 L 337.00,241.61 L 336.98,243.39 L 336.95,247.08 L 336.94,249.14 L 336.92,253.41 L 336.93,255.77 L 336.93,261.45 L 336.94,265.07 L 336.94,266.77 L 336.94,270.09 L 336.94,271.61 L 336.95,274.55 L 336.95,275.85 L 336.96,278.34 L 336.96,279.38 L 336.96,281.33 L 336.96,282.08 L 336.97,283.41 L 336.97,283.82 L 336.97,284.47 L 336.98,284.50 L 337.10,284.76 L 337.29,284.85 L 337.72,285.00 L 173.00,285.00 L 173.00,227.00 L 339.00,227.00 L 339.00,255.92 Z" fill="rgba(246,160,113,1)"/>
<path d="M 398.48,379.54 L 398.74,380.29 L 398.67,380.61 L 398.34,381.25 L 398.14,381.56 L 397.61,382.11 L 397.33,382.37 L 396.71,382.73 L 395.78,382.98 L 395.58,382.99 L 395.43,382.58 L 395.40,382.32 L 395.61,381.58 L 395.78,381.13 L 396.43,380.39 L 396.78,380.05 L 397.55,379.64 L 397.92,379.49 M 64.84,325.60 L 65.94,326.42 L 66.28,326.84 L 66.51,327.59 L 66.16,328.40 L 65.90,328.56 L 65.16,328.40 L 64.78,328.25 L 64.06,327.58 L 63.72,327.16 L 63.49,326.41 L 63.84,325.60 L 64.10,325.44 M 455.38,317.21 L 455.51,317.24 L 455.59,317.48 L 455.59,317.63 L 455.43,318.13 L 454.91,319.24 L 454.51,320.00 L 453.98,320.97 L 453.75,321.38 L 453.44,321.70 L 453.31,321.80 L 453.09,321.57 L 452.98,321.39 L 452.72,320.70 L 452.56,320.30 L 452.52,319.53 L 452.54,319.16 L 452.84,318.50 L 453.02,318.19 L 453.61,317.71 L 454.79,317.24 L 455.05,317.18 M 55.04,206.53 L 55.12,206.85 L 55.16,207.06 L 55.24,207.73 L 55.27,208.11 L 55.34,209.10 L 55.38,209.64 L 55.44,210.93 L 55.50,212.29 L 55.61,215.81 L 55.66,217.69 L 55.75,222.10 L 55.80,224.41 L 55.86,229.53 L 55.90,232.16 L 55.94,237.80 L 55.98,243.54 L 56.01,255.78 L 56.01,261.91 L 55.94,273.82 L 55.92,276.71 L 55.86,282.17 L 55.83,284.83 L 55.75,289.69 L 55.71,292.03 L 55.61,296.12 L 55.56,298.05 L 55.44,301.16 L 55.41,301.87 L 55.34,303.08 L 55.31,303.65 L 55.24,304.55 L 55.20,304.96 L 55.12,305.53 L 55.00,306.00 L 54.96,306.06 L 54.88,305.97 L 54.85,305.89 L 54.78,305.52 L 54.74,305.30 L 54.67,304.66 L 54.64,304.30 L 54.58,303.37 L 54.55,302.88 L 54.49,301.68 L 54.47,301.05 L 54.41,299.58 L 54.39,298.81 L 54.34,297.07 L 54.32,296.16 L 54.27,294.15 L 54.23,292.08 L 54.16,287.13 L 54.13,284.52 L 54.08,278.53 L 54.06,275.40 L 54.03,268.37 L 54.02,264.73 L 54.02,256.69 L 54.01,252.49 L 54.03,244.86 L 54.04,241.18 L 54.07,234.61 L 54.09,231.45 L 54.15,225.93 L 54.18,223.30 L 54.26,218.83 L 54.28,217.78 L 54.32,215.88 L 54.34,214.97 L 54.39,213.34 L 54.42,212.55 L 54.48,211.19 L 54.50,210.54 L 54.57,209.44 L 54.60,208.93 L 54.66,208.10 L 54.70,207.72 L 54.77,207.16 L 54.80,206.91 L 54.88,206.63 L 55.00,206.50 M 338.20,227.53 L 338.28,227.80 L 338.42,228.78 L 338.48,229.35 L 338.60,230.93 L 338.65,231.81 L 338.74,234.02 L 338.79,235.20 L 338.86,238.04 L 338.89,239.54 L 338.94,243.02 L 338.96,244.84 L 338.98,248.97 L 339.00,255.92 L 339.00,258.26 L 338.98,262.54 L 338.97,264.62 L 338.93,268.36 L 338.91,270.16 L 338.85,273.35 L 338.82,274.87 L 338.74,277.48 L 338.70,278.71 L 338.60,280.73 L 338.55,281.67 L 338.43,283.09 L 338.37,283.72 L 338.23,284.52 L 338.00,285.00 L 337.72,285.00 L 337.29,284.85 L 337.10,284.76 L 336.98,284.50 L 336.97,284.47 L 336.97,283.82 L 336.97,283.41 L 336.96,282.08 L 336.96,281.33 L 336.96,279.38 L 336.96,278.34 L 336.95,275.85 L 336.95,274.55 L 336.94,271.61 L 336.94,270.09 L 336.94,266.77 L 336.94,265.07 L 336.93,261.45 L 336.93,255.77 L 336.92,253.41 L 336.94,249.14 L 336.95,247.08 L 336.98,243.39 L 337.00,241.61 L 337.06,238.51 L 337.09,237.02 L 337.17,234.50 L 337.21,233.31 L 337.31,231.36 L 337.37,230.46 L 337.49,229.10 L 337.56,228.49 L 337.71,227.71 L 337.95,227.18 L 338.04,227.15 M 10.73,274.29 L 11.49,274.66 L 11.88,274.89 L 12.63,275.52 L 13.38,276.55 L 13.59,277.10 L 13.54,277.87 L 13.45,278.20 L 12.97,278.46 L 12.70,278.53 L 12.02,278.23 L 11.68,278.01 L 11.05,277.09 L 10.76,276.55 L 10.31,275.55 L 10.00,274.60 L 10.00,274.33 L 10.45,274.26 M 118.63,128.65 L 118.10,129.84 L 117.99,130.02 L 117.52,130.38 L 117.25,130.55 L 116.54,130.88 L 113.90,131.57 L 110.50,132.02 L 114.34,129.94 L 115.36,129.39 L 116.82,128.70 L 117.47,128.42 L 118.23,128.27 L 118.53,128.26 M 156.84,127.42 L 157.95,127.97 L 158.53,128.28 L 159.27,129.05 L 159.47,130.05 L 159.26,130.40 L 158.89,130.78 L 158.71,130.92 L 158.36,130.87 L 158.18,130.79 L 157.76,130.27 L 157.53,129.95 L 156.96,128.92 L 156.70,128.45 L 156.41,127.83 L 156.31,127.57 L 156.35,127.35 L 156.42,127.28 Z" fill="rgba(247,158,114,1)"/>
<path d="M 456.00,256.00 L 456.00,251.92 L 456.02,244.47 L 456.03,240.87 L 456.06,234.41 L 456.09,231.30 L 456.14,225.82 L 456.18,223.21 L 456.25,218.75 L 456.30,216.65 L 456.40,213.21 L 456.45,211.62 L 456.57,209.22 L 456.63,208.15 L 456.77,206.81 L 456.81,206.54 L 456.88,206.20 L 457.00,206.00 L 457.04,206.00 L 457.12,206.20 L 457.16,206.34 L 457.23,206.81 L 457.30,207.35 L 457.43,209.22 L 457.49,210.29 L 457.60,213.21 L 457.66,214.80 L 457.75,218.75 L 457.79,220.85 L 457.86,225.82 L 457.89,228.43 L 457.94,234.41 L 457.96,237.52 L 457.98,244.47 L 458.00,256.00 L 458.00,260.08 L 457.98,267.53 L 457.97,271.13 L 457.94,277.59 L 457.91,280.70 L 457.86,286.18 L 457.82,288.79 L 457.75,293.25 L 457.70,295.35 L 457.60,298.79 L 457.55,300.38 L 457.43,302.78 L 457.37,303.85 L 457.23,305.19 L 457.19,305.46 L 457.12,305.80 L 457.00,306.00 L 456.96,306.00 L 456.88,305.80 L 456.84,305.66 L 456.77,305.19 L 456.70,304.65 L 456.57,302.78 L 456.51,301.71 L 456.40,298.79 L 456.34,297.20 L 456.25,293.25 L 456.21,291.15 L 456.14,286.18 L 456.11,283.57 L 456.06,277.59 L 456.04,274.48 L 456.02,267.53 L 456.01,263.93 Z" fill="rgba(249,162,112,1)"/>
</g>
</svg>