<svg xmlns="http://www.w3.org/2000/svg" width="512" height="512" viewBox="0 0 512 512">
<g>
<path d="M 155.25,510.45 L 152.69,509.77 L 147.90,507.84 L 145.57,506.79 L 141.27,504.19 L 139.18,502.81 L 135.42,499.61 L 133.61,497.95 L 130.45,494.22 L 128.95,492.30 L 126.44,488.12 L 125.27,485.98 L 123.47,481.41 L 122.67,479.08 L 121.63,474.20 L 121.00,466.60 L 121.00,466.43 L 121.07,465.45 L 121.12,464.86 L 121.27,463.10 L 121.36,462.12 L 121.60,459.62 L 121.73,458.28 L 122.04,455.10 L 122.21,453.43 L 122.60,449.61 L 122.80,447.63 L 123.25,443.24 L 123.48,440.98 L 123.99,436.06 L 124.25,433.54 L 124.82,428.14 L 125.10,425.39 L 125.71,419.57 L 126.03,416.62 L 126.68,410.43 L 127.01,407.30 L 127.70,400.79 L 128.05,397.50 L 128.77,390.73 L 129.50,383.90 L 131.03,369.67 L 131.80,362.49 L 133.38,347.86 L 134.17,340.54 L 135.76,325.95 L 136.55,318.69 L 138.09,304.54 L 138.86,297.55 L 140.32,284.26 L 140.68,281.01 L 141.37,274.74 L 141.71,271.65 L 142.37,265.74 L 142.69,262.84 L 143.31,257.34 L 143.61,254.65 L 144.18,249.61 L 144.46,247.15 L 144.97,242.63 L 145.22,240.44 L 145.68,236.48 L 145.90,234.58 L 146.29,231.24 L 146.48,229.66 L 146.80,226.99 L 146.95,225.74 L 147.19,223.80 L 147.47,221.75 L 147.61,220.82 L 147.73,219.60 L 147.75,219.08 L 147.51,218.49 L 147.34,218.25 L 146.57,218.07 L 144.65,218.00 L 141.99,218.00 L 136.75,217.27 L 134.16,216.79 L 129.16,215.17 L 126.70,214.25 L 122.03,211.83 L 119.75,210.52 L 115.53,207.38 L 113.49,205.73 L 109.82,201.96 L 108.07,200.01 L 105.07,195.70 L 103.67,193.49 L 101.45,188.74 L 99.11,181.20 L 99.06,180.94 L 98.95,179.98 L 98.90,179.44 L 98.81,177.95 L 98.76,177.14 L 98.67,175.15 L 98.63,174.09 L 98.54,171.64 L 98.50,170.36 L 98.43,167.47 L 98.39,165.98 L 98.33,162.71 L 98.30,161.03 L 98.24,157.41 L 98.21,155.56 L 98.16,151.62 L 98.11,147.61 L 98.03,138.79 L 97.99,134.28 L 97.94,124.69 L 97.92,119.82 L 97.90,109.74 L 97.89,104.67 L 97.90,94.40 L 97.91,89.27 L 97.94,79.11 L 97.96,74.07 L 98.03,64.31 L 98.06,59.51 L 98.15,50.45 L 98.17,48.24 L 98.23,44.00 L 98.25,41.92 L 98.31,37.96 L 98.34,36.02 L 98.41,32.38 L 98.44,30.60 L 98.52,27.30 L 98.55,25.70 L 98.63,22.80 L 98.67,21.39 L 98.76,18.91 L 98.80,17.72 L 98.89,15.70 L 98.94,14.75 L 99.03,13.23 L 99.08,12.53 L 99.19,11.54 L 99.35,10.70 L 99.81,9.60 L 101.42,7.36 L 102.31,6.25 L 104.50,4.22 L 105.63,3.27 L 108.05,1.76 L 111.51,0.43 L 112.44,0.26 L 114.31,0.14 L 115.25,0.12 L 117.09,0.29 L 118.00,0.42 L 119.79,0.87 L 120.66,1.12 L 122.34,1.83 L 123.17,2.21 L 124.70,3.16 L 125.45,3.66 L 126.81,4.82 L 127.46,5.43 L 128.61,6.80 L 130.03,9.06 L 130.27,9.52 L 130.66,10.47 L 130.84,10.99 L 131.13,12.32 L 131.27,13.06 L 131.48,15.13 L 131.53,15.71 L 131.61,17.07 L 131.65,17.79 L 131.72,19.47 L 131.75,20.35 L 131.81,22.38 L 131.83,23.44 L 131.87,25.87 L 131.89,27.14 L 131.92,30.02 L 131.94,31.52 L 131.96,34.89 L 131.97,36.64 L 131.98,40.55 L 131.99,42.58 L 131.99,47.07 L 132.00,49.39 L 132.00,54.52 L 132.00,62.96 L 132.00,113.00 L 140.50,113.00 L 149.00,113.00 L 149.04,64.25 L 149.05,61.05 L 149.06,55.20 L 149.06,52.37 L 149.08,47.22 L 149.08,44.73 L 149.11,40.24 L 149.13,38.07 L 149.17,34.18 L 149.19,32.30 L 149.25,28.96 L 149.28,27.36 L 149.37,24.52 L 149.41,23.16 L 149.52,20.77 L 149.58,19.62 L 149.72,17.63 L 149.80,16.69 L 149.97,15.05 L 150.07,14.27 L 150.28,12.93 L 150.51,11.65 L 151.09,9.79 L 151.41,8.94 L 152.20,7.63 L 153.65,5.83 L 154.38,5.03 L 156.02,3.68 L 156.87,3.05 L 158.72,2.04 L 159.67,1.57 L 161.66,0.91 L 162.67,0.62 L 164.73,0.31 L 165.77,0.20 L 167.85,0.25 L 168.88,0.32 L 170.90,0.74 L 171.90,0.99 L 173.81,1.79 L 176.46,3.40 L 177.37,4.09 L 178.85,5.25 L 179.54,5.83 L 180.63,7.14 L 181.13,7.87 L 181.89,9.86 L 182.06,10.42 L 182.36,11.76 L 182.50,12.47 L 182.73,14.16 L 182.84,15.05 L 183.02,17.15 L 183.11,18.26 L 183.25,20.83 L 183.31,22.18 L 183.41,25.29 L 183.46,26.92 L 183.53,30.64 L 183.56,32.58 L 183.61,36.96 L 183.64,39.24 L 183.68,44.35 L 183.70,47.01 L 183.73,52.92 L 183.79,62.75 L 184.07,113.00 L 192.54,113.00 L 201.00,113.00 L 201.00,62.84 L 201.00,12.68 L 203.49,8.43 L 204.20,7.22 L 206.19,5.07 L 207.26,4.05 L 209.79,2.40 L 211.10,1.65 L 213.90,0.64 L 218.16,0.00 L 219.54,0.00 L 222.39,0.69 L 223.80,1.13 L 226.50,2.58 L 227.80,3.39 L 230.08,5.43 L 232.70,8.96 L 235.00,13.31 L 235.00,95.45 L 235.00,98.24 L 235.00,103.57 L 235.00,106.19 L 235.00,111.18 L 235.00,113.64 L 235.00,118.30 L 235.00,120.60 L 234.99,124.95 L 234.99,127.09 L 234.98,131.14 L 234.98,133.13 L 234.97,136.90 L 234.96,138.74 L 234.95,142.23 L 234.94,143.94 L 234.92,147.17 L 234.90,150.33 L 234.84,155.92 L 234.80,158.60 L 234.71,163.29 L 234.67,165.54 L 234.54,169.44 L 234.47,171.30 L 234.31,174.51 L 234.22,176.03 L 234.01,178.64 L 233.90,179.88 L 233.64,182.00 L 233.50,183.00 L 233.18,184.72 L 233.01,185.54 L 232.63,186.95 L 232.23,188.31 L 231.21,190.56 L 229.32,194.00 L 228.53,195.39 L 226.25,198.49 L 225.04,200.05 L 222.22,203.19 L 220.77,204.72 L 217.80,207.47 L 213.61,210.70 L 212.23,211.59 L 208.99,213.18 L 207.31,213.94 L 203.62,215.23 L 201.74,215.83 L 197.81,216.75 L 191.87,217.65 L 191.04,217.73 L 189.68,217.86 L 189.04,217.93 L 188.03,218.06 L 187.56,218.12 L 186.85,218.27 L 186.52,218.35 L 186.07,218.54 L 185.66,218.75 L 185.43,219.39 L 185.56,220.89 L 185.62,221.21 L 185.79,222.48 L 185.89,223.21 L 186.15,225.27 L 186.29,226.39 L 186.63,229.19 L 186.80,230.67 L 187.21,234.15 L 187.42,235.97 L 187.90,240.08 L 188.14,242.20 L 188.67,246.88 L 188.95,249.29 L 189.53,254.49 L 189.83,257.15 L 190.46,262.82 L 190.79,265.70 L 191.46,271.78 L 191.80,274.87 L 192.51,281.30 L 192.87,284.56 L 193.61,291.30 L 193.99,294.70 L 194.75,301.69 L 195.52,308.73 L 197.11,323.33 L 197.91,330.68 L 199.52,345.57 L 200.32,353.01 L 201.91,367.76 L 202.69,375.08 L 204.20,389.25 L 204.57,392.74 L 205.30,399.53 L 205.65,402.89 L 206.34,409.39 L 206.68,412.60 L 207.32,418.76 L 207.64,421.79 L 208.24,427.54 L 208.54,430.36 L 209.08,435.66 L 209.35,438.24 L 209.84,443.03 L 210.08,445.36 L 210.51,449.58 L 210.71,451.62 L 211.07,455.23 L 211.24,456.95 L 211.53,459.89 L 211.66,461.27 L 211.86,463.48 L 211.95,464.49 L 212.07,465.92 L 212.13,467.12 L 212.13,468.94 L 211.79,472.47 L 211.56,474.22 L 210.81,477.62 L 210.38,479.30 L 209.25,482.54 L 208.64,484.14 L 207.15,487.19 L 206.36,488.69 L 204.54,491.55 L 203.60,492.94 L 201.49,495.57 L 200.39,496.85 L 198.01,499.23 L 196.79,500.39 L 194.17,502.50 L 192.83,503.52 L 190.00,505.34 L 188.56,506.21 L 185.55,507.71 L 184.02,508.42 L 180.85,509.59 L 179.25,510.14 L 175.96,510.95 L 174.30,511.31 L 170.91,511.75 L 169.20,511.92 L 165.74,511.95 L 164.01,511.92 L 160.51,511.53 L 158.76,511.28 M 358.50,510.61 L 356.95,510.23 L 353.87,509.17 L 352.34,508.59 L 349.33,507.15 L 347.85,506.40 L 344.98,504.63 L 343.56,503.71 L 340.87,501.66 L 339.56,500.60 L 337.10,498.31 L 335.91,497.14 L 333.75,494.64 L 332.71,493.37 L 330.88,490.71 L 328.58,486.58 L 328.23,485.84 L 327.49,483.93 L 327.13,482.92 L 326.42,480.69 L 326.08,479.56 L 325.48,477.28 L 324.81,474.11 L 324.67,473.26 L 324.47,471.55 L 324.39,470.63 L 324.38,468.28 L 324.39,467.62 L 324.47,466.07 L 324.51,465.25 L 324.66,463.31 L 324.74,462.28 L 324.97,459.88 L 325.10,458.61 L 325.41,455.65 L 325.59,454.10 L 326.00,450.51 L 326.23,448.62 L 326.76,444.31 L 327.03,442.06 L 327.68,436.95 L 328.02,434.29 L 328.79,428.30 L 329.20,425.19 L 330.10,418.23 L 330.34,416.43 L 330.84,412.63 L 331.10,410.69 L 331.63,406.62 L 331.91,404.55 L 332.48,400.20 L 332.77,397.98 L 333.39,393.34 L 333.70,390.98 L 334.36,386.04 L 335.39,378.28 L 336.20,372.17 L 337.77,360.40 L 338.54,354.60 L 340.01,343.63 L 340.37,340.95 L 341.06,335.78 L 341.40,333.23 L 342.06,328.34 L 342.38,325.94 L 342.99,321.37 L 343.30,319.13 L 343.87,314.92 L 344.15,312.85 L 344.67,309.02 L 344.92,307.15 L 345.39,303.72 L 345.61,302.06 L 346.02,299.08 L 346.22,297.64 L 346.56,295.13 L 346.73,293.93 L 347.01,291.93 L 347.14,290.99 L 347.35,289.51 L 347.45,288.85 L 347.58,287.94 L 347.70,287.25 L 347.81,286.76 L 347.86,286.07 L 347.86,285.77 L 347.59,285.39 L 347.41,285.23 L 346.74,285.08 L 345.16,285.00 L 343.30,285.00 L 339.64,284.58 L 337.82,284.31 L 334.27,283.36 L 332.52,282.83 L 329.13,281.40 L 327.46,280.63 L 324.29,278.74 L 322.74,277.75 L 319.85,275.44 L 318.44,274.24 L 315.88,271.55 L 314.64,270.17 L 312.46,267.13 L 309.69,262.22 L 306.50,255.50 L 306.50,187.50 L 306.50,183.60 L 306.50,176.44 L 306.50,172.96 L 306.51,166.60 L 306.51,163.52 L 306.53,157.92 L 306.53,155.21 L 306.55,150.30 L 306.56,147.93 L 306.59,143.66 L 306.60,141.60 L 306.64,137.91 L 306.66,136.14 L 306.70,132.97 L 306.73,131.45 L 306.79,128.76 L 306.82,127.47 L 306.89,125.19 L 306.93,124.09 L 307.02,122.17 L 307.06,121.25 L 307.17,119.62 L 307.22,118.84 L 307.34,117.46 L 307.47,116.14 L 307.78,113.97 L 308.35,111.00 L 309.21,107.03 L 311.20,99.49 L 312.25,95.78 L 314.62,88.71 L 315.85,85.23 L 318.63,78.58 L 320.08,75.29 L 323.30,68.99 L 324.97,65.88 L 328.66,59.87 L 330.57,56.90 L 334.77,51.13 L 336.94,48.27 L 341.68,42.67 L 349.42,34.42 L 352.48,31.36 L 359.29,25.34 L 362.73,22.39 L 369.67,17.08 L 371.36,15.82 L 374.63,13.56 L 376.23,12.48 L 379.23,10.62 L 380.68,9.75 L 383.28,8.38 L 386.64,6.95 L 387.93,6.53 L 390.38,6.23 L 391.59,6.17 L 393.87,6.60 L 394.99,6.90 L 397.06,8.05 L 399.92,10.57 L 403.00,14.07 L 403.00,145.63 L 403.00,277.20 L 399.59,280.61 L 398.66,281.54 L 396.26,283.20 L 395.66,283.56 L 394.52,284.13 L 393.02,284.65 L 392.37,284.78 L 391.46,285.05 L 391.05,285.20 L 390.56,285.57 L 390.36,285.77 L 390.23,286.31 L 390.34,287.39 L 390.36,287.46 L 390.45,288.07 L 390.51,288.44 L 390.68,289.63 L 390.77,290.29 L 391.01,292.02 L 391.15,292.96 L 391.46,295.21 L 391.62,296.40 L 392.00,299.15 L 392.19,300.58 L 392.63,303.78 L 392.85,305.44 L 393.35,309.07 L 393.60,310.93 L 394.14,314.96 L 394.42,317.02 L 395.01,321.41 L 395.31,323.64 L 395.95,328.37 L 396.27,330.77 L 396.95,335.79 L 397.29,338.34 L 398.00,343.64 L 398.71,349.00 L 400.23,360.40 L 402.61,378.28 L 402.96,380.92 L 403.63,385.98 L 403.97,388.48 L 404.60,393.24 L 404.91,395.58 L 405.50,400.05 L 405.79,402.25 L 406.34,406.44 L 406.61,408.50 L 407.13,412.42 L 407.38,414.34 L 407.86,418.00 L 408.33,421.59 L 409.17,428.04 L 409.57,431.15 L 410.28,436.68 L 410.62,439.34 L 411.21,444.04 L 411.49,446.30 L 411.96,450.25 L 412.18,452.14 L 412.55,455.42 L 412.73,456.98 L 413.00,459.67 L 413.13,460.95 L 413.32,463.13 L 413.41,464.16 L 413.52,465.91 L 413.57,466.74 L 413.61,468.15 L 413.65,469.48 L 413.54,471.44 L 413.21,473.97 L 412.78,476.46 L 411.50,481.02 L 410.79,483.24 L 408.88,487.34 L 407.85,489.35 L 405.26,493.12 L 400.54,498.51 L 399.11,499.94 L 396.08,502.45 L 394.53,503.66 L 391.29,505.73 L 389.65,506.71 L 386.23,508.32 L 384.50,509.07 L 380.94,510.22 L 379.15,510.74 L 375.48,511.42 L 373.63,511.69 L 369.88,511.89 L 368.00,511.92 L 364.21,511.62 L 362.31,511.41 Z" fill="rgba(247,159,114,1)"/>
</g>
</svg>