<svg xmlns="http://www.w3.org/2000/svg" width="512" height="512" viewBox="0 0 512 512">
<g>
<path d="M 101.00,511.32 L 98.31,510.86 L 93.07,509.27 L 90.48,508.37 L 85.52,505.99 L 83.08,504.71 L 78.49,501.62 L 76.25,500.00 L 72.12,496.30 L 70.12,494.38 L 66.55,490.16 L 64.85,487.99 L 61.93,483.34 L 60.57,480.97 L 58.40,475.98 L 56.10,468.20 L 56.05,467.98 L 55.96,467.25 L 55.92,466.83 L 55.84,465.73 L 55.80,465.13 L 55.72,463.64 L 55.68,462.85 L 55.61,460.98 L 55.58,460.00 L 55.51,457.74 L 55.48,456.56 L 55.42,453.92 L 55.40,452.55 L 55.34,449.52 L 55.32,447.95 L 55.27,444.53 L 55.25,442.77 L 55.21,438.94 L 55.19,436.98 L 55.15,432.76 L 55.13,430.60 L 55.10,425.98 L 55.09,423.62 L 55.07,418.60 L 55.06,416.04 L 55.04,410.61 L 55.03,407.84 L 55.02,402.01 L 55.01,399.04 L 55.00,392.79 L 55.00,382.95 L 55.00,303.00 L 48.21,303.00 L 46.45,303.00 L 43.02,302.74 L 41.32,302.57 L 38.00,301.97 L 36.36,301.63 L 33.19,300.73 L 31.62,300.23 L 28.60,299.03 L 27.11,298.39 L 24.26,296.90 L 22.85,296.13 L 20.19,294.38 L 18.88,293.48 L 16.43,291.48 L 15.22,290.46 L 12.99,288.24 L 11.90,287.10 L 9.90,284.68 L 8.93,283.44 L 7.19,280.82 L 6.36,279.49 L 4.89,276.70 L 4.19,275.28 L 3.01,272.33 L 2.46,270.84 L 1.58,267.75 L 1.19,266.20 L 0.64,262.99 L 0.40,261.37 L 0.19,258.06 L 0.28,253.00 L 0.43,250.90 L 1.11,246.77 L 1.52,244.73 L 2.70,240.77 L 3.35,238.81 L 5.00,235.10 L 7.97,229.89 L 8.07,229.74 L 8.84,228.88 L 9.31,228.36 L 10.78,226.79 L 11.61,225.92 L 13.75,223.69 L 14.91,222.49 L 17.70,219.61 L 19.17,218.10 L 22.55,214.64 L 24.31,212.84 L 28.26,208.82 L 30.30,206.75 L 34.76,202.21 L 37.06,199.88 L 42.00,194.87 L 44.54,192.31 L 49.93,186.86 L 52.68,184.09 L 58.48,178.24 L 61.43,175.27 L 67.60,169.06 L 70.73,165.91 L 77.23,159.38 L 80.52,156.08 L 87.31,149.26 L 90.74,145.82 L 97.79,138.76 L 101.34,135.20 L 108.61,127.94 L 119.70,116.85 L 122.46,114.10 L 127.77,108.79 L 130.40,106.17 L 135.46,101.12 L 137.96,98.62 L 142.78,93.82 L 145.15,91.45 L 149.73,86.89 L 151.99,84.63 L 156.33,80.31 L 158.47,78.18 L 162.59,74.08 L 164.61,72.06 L 168.51,68.19 L 170.43,66.28 L 174.10,62.63 L 175.91,60.83 L 179.38,57.39 L 181.08,55.70 L 184.35,52.47 L 185.95,50.88 L 189.01,47.85 L 190.52,46.36 L 193.39,43.52 L 196.22,40.74 L 201.31,35.73 L 203.77,33.31 L 208.18,29.00 L 210.30,26.93 L 214.06,23.29 L 215.87,21.54 L 219.04,18.51 L 220.55,17.06 L 223.17,14.59 L 224.42,13.43 L 226.54,11.48 L 227.54,10.56 L 229.21,9.09 L 229.99,8.40 L 231.25,7.35 L 231.84,6.88 L 232.75,6.20 L 233.77,5.57 L 235.77,4.58 L 239.83,3.00 L 241.86,2.27 L 245.97,1.24 L 248.02,0.80 L 252.14,0.31 L 254.20,0.14 L 258.29,0.20 L 260.34,0.29 L 264.39,0.90 L 266.40,1.27 L 270.36,2.41 L 272.33,3.06 L 276.18,4.74 L 281.78,7.88 L 281.94,7.98 L 282.83,8.75 L 283.36,9.23 L 284.95,10.71 L 285.83,11.54 L 288.09,13.69 L 289.30,14.85 L 292.18,17.65 L 293.70,19.12 L 297.19,22.51 L 299.00,24.27 L 303.03,28.22 L 305.11,30.26 L 309.66,34.74 L 312.00,37.03 L 317.02,41.99 L 319.59,44.52 L 325.05,49.92 L 327.83,52.67 L 333.69,58.48 L 336.67,61.43 L 342.89,67.60 L 346.04,70.73 L 352.58,77.23 L 355.88,80.52 L 362.70,87.32 L 366.15,90.75 L 373.21,97.80 L 376.77,101.35 L 384.04,108.61 L 395.13,119.71 L 398.26,122.85 L 404.25,128.85 L 407.21,131.81 L 412.86,137.47 L 415.64,140.26 L 420.96,145.59 L 423.58,148.22 L 428.57,153.22 L 431.03,155.69 L 435.71,160.38 L 438.01,162.69 L 442.39,167.09 L 444.54,169.25 L 448.63,173.36 L 450.64,175.38 L 454.44,179.21 L 456.31,181.09 L 459.85,184.65 L 461.58,186.39 L 464.85,189.70 L 466.46,191.32 L 469.48,194.38 L 470.96,195.87 L 473.75,198.70 L 475.11,200.08 L 477.66,202.67 L 478.91,203.95 L 481.25,206.33 L 482.39,207.50 L 484.52,209.68 L 485.56,210.74 L 487.49,212.73 L 489.37,214.67 L 492.58,218.02 L 494.10,219.62 L 496.66,222.34 L 497.87,223.63 L 499.85,225.81 L 500.78,226.84 L 502.28,228.57 L 502.98,229.38 L 504.07,230.73 L 504.58,231.37 L 505.35,232.44 L 506.86,235.00 L 507.96,237.29 L 509.60,241.98 L 510.34,244.33 L 511.25,249.09 L 511.62,251.47 L 511.79,256.22 L 511.19,263.25 L 510.70,266.18 L 509.00,271.69 L 508.05,274.38 L 505.50,279.36 L 504.12,281.77 L 500.79,286.14 L 499.04,288.24 L 495.02,291.92 L 492.93,293.67 L 488.31,296.61 L 485.92,297.97 L 480.78,300.09 L 478.15,301.03 L 472.56,302.25 L 463.79,303.00 L 457.00,303.00 L 457.00,382.95 L 457.00,386.33 L 457.00,392.79 L 456.99,395.96 L 456.98,402.01 L 456.98,404.98 L 456.96,410.61 L 456.95,413.37 L 456.93,418.60 L 456.92,421.16 L 456.90,425.98 L 456.88,428.34 L 456.85,432.76 L 456.83,434.92 L 456.79,438.94 L 456.77,440.90 L 456.73,444.53 L 456.71,446.29 L 456.66,449.52 L 456.63,451.08 L 456.58,453.92 L 456.55,455.29 L 456.49,457.74 L 456.46,458.92 L 456.39,460.98 L 456.35,461.96 L 456.28,463.64 L 456.24,464.43 L 456.16,465.73 L 456.12,466.33 L 456.04,467.25 L 455.90,468.20 L 455.43,470.48 L 453.99,474.94 L 453.19,477.15 L 451.13,481.41 L 450.03,483.52 L 447.42,487.53 L 446.05,489.49 L 442.95,493.18 L 441.34,494.97 L 437.80,498.27 L 435.98,499.86 L 432.07,502.70 L 430.07,504.05 L 425.83,506.37 L 419.19,509.19 L 417.53,509.76 L 414.53,510.52 L 413.66,510.68 L 411.48,510.93 L 410.88,510.98 L 409.51,511.08 L 408.78,511.13 L 407.12,511.20 L 406.25,511.24 L 404.25,511.30 L 403.20,511.33 L 400.80,511.37 L 399.55,511.39 L 396.72,511.43 L 395.24,511.44 L 391.91,511.46 L 390.17,511.47 L 386.29,511.48 L 384.27,511.49 L 379.79,511.49 L 377.47,511.50 L 372.33,511.50 L 363.82,511.50 L 360.85,511.50 L 355.43,511.50 L 352.81,511.50 L 348.06,511.49 L 345.76,511.49 L 341.63,511.48 L 339.64,511.48 L 336.08,511.46 L 334.37,511.45 L 331.34,511.43 L 329.89,511.41 L 327.34,511.38 L 326.12,511.36 L 324.01,511.31 L 323.00,511.29 L 321.27,511.23 L 320.45,511.19 L 319.05,511.11 L 318.40,511.07 L 317.30,510.98 L 316.26,510.88 L 314.87,510.61 L 314.25,510.47 L 313.42,510.11 L 312.39,509.44 L 311.63,508.87 L 309.83,507.17 L 307.56,504.62 L 307.31,504.28 L 306.89,503.54 L 306.70,503.11 L 306.38,501.82 L 306.30,501.44 L 306.17,500.48 L 306.11,499.97 L 305.99,498.70 L 305.94,498.02 L 305.84,496.37 L 305.79,495.49 L 305.71,493.40 L 305.67,492.30 L 305.59,489.70 L 305.56,488.33 L 305.49,485.17 L 305.46,483.51 L 305.40,479.71 L 305.38,477.73 L 305.32,473.23 L 305.30,470.89 L 305.25,465.63 L 305.22,462.91 L 305.17,456.82 L 305.14,453.67 L 305.09,446.70 L 305.00,435.18 L 304.97,431.76 L 304.92,425.40 L 304.90,422.30 L 304.85,416.57 L 304.82,413.78 L 304.77,408.64 L 304.74,406.14 L 304.69,401.56 L 304.66,399.34 L 304.61,395.29 L 304.58,393.33 L 304.52,389.77 L 304.49,388.06 L 304.43,384.97 L 304.39,383.48 L 304.33,380.83 L 304.29,379.56 L 304.22,377.31 L 304.18,376.23 L 304.10,374.36 L 304.05,373.46 L 303.96,371.93 L 303.92,371.20 L 303.82,369.98 L 303.72,368.82 L 303.49,367.32 L 303.09,366.00 L 302.32,364.62 L 300.72,362.26 L 299.90,361.13 L 298.14,359.18 L 297.23,358.25 L 295.20,356.62 L 291.75,354.41 L 286.50,351.50 L 260.50,351.17 L 256.93,351.12 L 250.00,351.09 L 248.31,351.09 L 245.11,351.09 L 243.54,351.10 L 240.63,351.12 L 239.22,351.14 L 236.68,351.18 L 235.47,351.20 L 233.41,351.26 L 232.44,351.29 L 230.92,351.36 L 229.36,351.48 L 227.53,351.71 L 223.86,352.87 L 222.05,353.55 L 218.62,355.49 L 216.96,356.54 L 214.04,359.10 L 210.54,363.42 L 207.50,368.34 L 207.00,435.10 L 206.97,439.19 L 206.91,446.64 L 206.88,450.24 L 206.83,456.77 L 206.81,459.92 L 206.75,465.59 L 206.73,468.32 L 206.68,473.20 L 206.65,475.54 L 206.60,479.69 L 206.57,481.67 L 206.51,485.15 L 206.48,486.81 L 206.41,489.69 L 206.37,491.06 L 206.29,493.39 L 206.25,494.50 L 206.16,496.36 L 206.11,497.24 L 206.01,498.69 L 205.95,499.37 L 205.83,500.48 L 205.77,500.99 L 205.62,501.82 L 205.47,502.58 L 205.11,503.54 L 204.44,504.62 L 203.87,505.38 L 202.17,507.17 L 199.62,509.44 L 199.28,509.69 L 198.58,510.10 L 198.20,510.30 L 197.15,510.61 L 196.55,510.76 L 194.78,510.98 L 194.28,511.03 L 193.08,511.12 L 192.44,511.17 L 190.94,511.24 L 190.15,511.27 L 188.31,511.33 L 187.33,511.36 L 185.10,511.41 L 183.93,511.43 L 181.26,511.47 L 179.86,511.49 L 176.71,511.52 L 175.07,511.53 L 171.40,511.55 L 169.49,511.56 L 165.25,511.58 L 163.05,511.59 L 158.20,511.60 L 150.18,511.63 L 146.97,511.64 L 140.75,511.64 L 137.69,511.65 L 131.86,511.64 L 129.00,511.64 L 123.70,511.63 L 121.12,511.62 L 116.48,511.59 L 114.25,511.58 L 110.40,511.54 L 108.58,511.52 L 105.65,511.48 L 104.99,511.47 L 103.85,511.45 L 103.31,511.43 L 102.45,511.41 L 102.06,511.39 L 101.50,511.37 L 101.25,511.35 Z" fill="rgba(252,252,252,1)"/>
</g>
</svg>