<svg xmlns="http://www.w3.org/2000/svg" width="512" height="512" viewBox="0 0 512 512">
<g>
<path d="M 435.86,500.13 L 432.33,502.67 L 430.53,503.89 L 426.63,506.02 L 425.68,506.45 L 428.61,504.92 L 430.17,503.97 L 433.22,502.00 L 434.67,500.93 L 437.41,498.78 M 306.25,502.05 L 306.25,502.05 L 306.24,502.02 M 440.83,495.63 L 440.16,496.25 L 440.95,495.50 M 456.04,467.25 L 455.90,468.20 L 455.47,470.28 L 453.93,474.80 L 453.06,477.09 L 451.76,479.76 L 454.46,472.86 L 455.28,470.18 L 455.62,468.89 L 456.05,467.16 M 457.00,382.95 L 457.00,386.33 L 457.00,392.79 L 456.99,395.96 L 456.98,402.01 L 456.98,404.98 L 456.96,410.61 L 456.95,413.37 L 456.93,418.60 L 456.92,421.16 L 456.90,425.98 L 456.88,428.34 L 456.85,432.76 L 456.83,434.92 L 456.79,438.94 L 456.77,440.90 L 456.73,444.53 L 456.71,446.29 L 456.66,449.52 L 456.63,451.08 L 456.58,453.92 L 456.55,455.29 L 456.50,457.22 L 456.34,457.00 L 456.00,457.00 L 455.86,456.57 L 455.77,455.86 L 455.73,455.30 L 455.65,454.06 L 455.61,453.26 L 455.53,451.53 L 455.50,450.50 L 455.43,448.32 L 455.40,447.07 L 455.33,444.47 L 455.31,443.03 L 455.25,440.06 L 455.22,438.44 L 455.18,435.12 L 455.15,433.34 L 455.11,429.72 L 455.09,427.80 L 455.06,423.91 L 455.04,421.88 L 454.98,413.51 L 454.97,409.06 L 454.94,400.03 L 454.93,395.35 L 454.92,385.94 L 454.93,381.19 L 454.95,371.68 L 454.97,367.00 L 455.01,357.70 L 455.04,353.23 L 455.11,344.44 L 455.15,340.33 L 455.24,332.33 L 455.29,328.73 L 455.35,325.21 L 455.38,323.56 L 455.44,320.35 L 455.47,318.88 L 455.53,316.03 L 455.57,314.75 L 455.64,312.29 L 455.68,311.21 L 455.76,309.18 L 455.80,308.34 L 455.88,306.77 L 455.92,306.17 L 456.01,305.11 L 456.06,304.78 L 456.15,304.25 L 456.20,304.20 L 457.00,303.81 M 304.53,376.83 L 304.59,379.08 L 304.61,380.32 L 304.66,382.91 L 304.68,384.32 L 304.72,387.23 L 304.74,388.80 L 304.78,392.04 L 304.80,393.77 L 304.83,397.32 L 304.85,399.21 L 304.88,403.06 L 304.89,405.11 L 304.91,409.27 L 304.92,411.46 L 304.94,415.92 L 304.95,418.26 L 304.96,423.01 L 304.97,425.49 L 304.97,427.91 L 304.97,425.50 L 304.96,423.04 L 304.95,418.33 L 304.94,416.01 L 304.92,411.58 L 304.91,409.40 L 304.89,405.26 L 304.88,403.22 L 304.85,399.38 L 304.83,397.49 L 304.80,393.95 L 304.78,392.21 L 304.74,388.98 L 304.72,387.40 L 304.68,384.49 L 304.66,383.07 L 304.61,380.48 L 304.59,379.23 L 304.54,376.97 L 304.52,376.20 M 304.51,375.75 L 304.51,375.86 L 304.48,374.90 M 304.42,372.93 L 304.42,372.93 L 304.42,372.92 M 285.99,349.67 L 286.63,349.96 L 286.99,350.23 L 287.75,350.87 L 288.20,351.34 L 290.80,353.54 L 293.03,355.13 L 294.19,355.86 L 296.50,357.25 L 297.49,357.75 L 298.43,358.20 L 298.83,358.36 L 299.56,358.61 L 299.82,358.65 L 301.01,358.95 L 301.55,359.29 L 301.74,359.60 L 302.07,360.33 L 302.19,360.90 L 302.42,362.20 L 302.54,363.14 L 303.13,365.60 L 303.39,366.21 L 303.53,366.42 L 303.81,366.77 L 303.94,366.81 L 304.06,367.13 L 304.13,367.62 L 304.16,368.00 L 304.23,368.86 L 304.24,368.92 L 304.17,368.14 L 304.14,367.76 L 304.07,367.29 L 303.96,367.00 L 303.70,367.00 L 303.28,366.69 L 303.00,365.94 L 303.00,365.65 L 302.71,364.90 L 302.53,364.49 L 301.92,363.55 L 301.24,362.57 L 299.18,360.31 L 298.07,359.18 L 295.52,357.00 L 291.68,354.37 L 286.50,351.50 L 260.50,351.17 L 256.93,351.12 L 250.00,351.09 L 248.31,351.09 L 245.11,351.09 L 243.79,351.10 L 245.08,351.08 L 246.69,351.06 L 253.33,351.01 L 256.82,351.01 L 262.27,350.99 L 265.69,350.96 L 267.28,350.93 L 270.36,350.88 L 271.76,350.84 L 274.46,350.77 L 275.65,350.72 L 277.93,350.63 L 278.90,350.58 L 280.70,350.46 L 281.42,350.40 L 282.71,350.28 L 283.14,350.21 L 283.88,350.07 L 284.02,349.99 L 285.04,349.60 L 285.67,349.57 M 227.53,351.71 L 223.86,352.87 L 222.05,353.55 L 219.13,355.21 L 221.30,353.85 L 222.93,353.14 L 226.19,351.90 L 227.73,351.64 L 229.01,351.52 L 229.04,351.52 M 46.21,303.00 L 46.04,302.98 L 46.25,303.00 M 21.34,295.19 L 21.93,295.50 L 23.00,295.98 L 23.32,295.95 L 25.70,295.86 L 26.87,295.97 L 27.35,296.15 L 28.25,296.59 L 28.70,296.96 L 29.60,297.82 L 30.14,298.45 L 32.79,300.38 L 34.80,301.23 L 34.21,301.09 L 30.35,299.80 L 24.79,297.39 L 24.07,297.03 L 22.42,295.98 L 21.57,295.42 L 20.47,294.59 M 510.70,266.18 L 509.00,271.69 L 508.05,274.38 L 505.50,279.36 L 504.12,281.77 L 500.79,286.14 L 499.04,288.24 L 495.02,291.92 L 492.93,293.67 L 490.50,295.22 L 492.97,293.64 L 495.05,291.89 L 499.06,288.20 L 500.81,286.10 L 504.13,281.73 L 505.51,279.32 L 508.05,274.35 L 509.01,271.67 L 510.70,266.17 M 9.27,284.02 L 9.26,284.01 L 9.19,283.90 M 8.52,282.91 L 8.49,282.85 L 8.26,282.25 M 213.83,359.36 L 210.54,363.42 L 213.80,359.39 Z" fill="rgba(247,159,114,1)"/>
<path d="M 101.00,511.32 L 98.31,510.86 L 93.07,509.27 L 90.48,508.37 L 85.52,505.99 L 83.08,504.71 L 78.49,501.62 L 76.25,500.00 L 72.12,496.30 L 70.12,494.38 L 66.55,490.16 L 64.85,487.99 L 61.93,483.34 L 60.57,480.97 L 58.40,475.98 L 56.10,468.20 L 56.05,467.98 L 55.96,467.25 L 55.92,466.83 L 55.84,465.73 L 55.80,465.13 L 55.72,463.64 L 55.68,462.85 L 55.61,460.98 L 55.58,460.00 L 55.51,457.74 L 55.48,456.56 L 55.42,453.92 L 55.40,452.55 L 55.34,449.52 L 55.32,447.95 L 55.27,444.53 L 55.25,442.77 L 55.21,438.94 L 55.19,436.98 L 55.15,432.76 L 55.13,430.60 L 55.10,425.98 L 55.09,423.62 L 55.07,418.60 L 55.06,416.04 L 55.04,410.61 L 55.03,407.84 L 55.02,402.01 L 55.01,399.04 L 55.00,392.79 L 55.00,382.95 L 55.00,303.00 L 48.55,303.00 L 46.25,303.00 L 42.14,302.70 L 40.18,302.50 L 36.84,301.81 L 35.27,301.42 L 32.79,300.38 L 30.14,298.45 L 29.60,297.82 L 28.70,296.96 L 28.25,296.59 L 27.35,296.15 L 26.87,295.97 L 25.70,295.86 L 23.32,295.95 L 23.00,295.98 L 21.93,295.50 L 21.34,295.19 L 19.85,294.16 L 19.07,293.59 L 17.35,292.19 L 16.48,291.45 L 14.71,289.83 L 13.83,289.01 L 12.18,287.34 L 11.38,286.52 L 10.04,284.98 L 9.42,284.24 L 8.55,282.99 L 8.00,281.62 L 8.00,281.17 L 7.75,280.48 L 7.16,280.00 L 6.92,280.00 L 6.23,279.24 L 5.87,278.76 L 5.09,277.34 L 4.72,276.58 L 4.06,274.89 L 3.41,272.50 L 3.37,272.22 L 3.17,271.41 L 3.06,270.97 L 2.74,269.91 L 1.59,266.50 L 1.35,265.86 L 0.96,264.33 L 0.78,263.54 L 0.50,261.77 L 0.26,259.97 L 0.14,256.00 L 0.14,254.02 L 0.50,250.23 L 0.63,249.32 L 0.96,247.67 L 1.59,245.50 L 2.00,244.40 L 2.74,242.08 L 2.90,241.54 L 3.15,240.59 L 3.38,239.49 L 3.46,238.98 L 3.90,237.58 L 4.16,236.86 L 4.84,235.32 L 5.20,234.57 L 5.93,233.27 L 6.90,232.00 L 7.07,231.86 L 7.72,230.88 L 8.84,228.90 L 8.89,228.81 L 9.54,228.07 L 9.96,227.61 L 11.34,226.15 L 12.11,225.34 L 14.16,223.21 L 15.27,222.06 L 17.97,219.29 L 19.40,217.83 L 22.70,214.45 L 24.42,212.70 L 28.29,208.76 L 30.30,206.73 L 34.70,202.27 L 36.96,199.98 L 41.85,195.03 L 44.35,192.50 L 49.70,187.11 L 52.42,184.36 L 58.19,178.56 L 61.11,175.61 L 67.25,169.43 L 70.37,166.30 L 76.85,159.80 L 80.13,156.50 L 86.91,149.70 L 90.33,146.27 L 97.38,139.21 L 100.94,135.65 L 108.21,128.37 L 119.34,117.25 L 122.10,114.49 L 127.44,109.16 L 130.07,106.53 L 135.15,101.45 L 137.66,98.95 L 142.50,94.13 L 144.88,91.75 L 149.47,87.17 L 151.74,84.91 L 156.10,80.56 L 158.25,78.42 L 162.38,74.31 L 164.41,72.28 L 168.32,68.40 L 170.24,66.48 L 173.93,62.82 L 175.75,61.01 L 179.23,57.56 L 180.94,55.86 L 184.21,52.62 L 185.82,51.02 L 188.90,47.98 L 190.41,46.49 L 193.29,43.64 L 196.12,40.84 L 201.23,35.81 L 203.70,33.39 L 208.12,29.07 L 210.25,26.99 L 214.02,23.33 L 215.83,21.58 L 219.01,18.54 L 220.52,17.09 L 223.15,14.62 L 224.40,13.44 L 226.52,11.49 L 227.53,10.57 L 229.20,9.09 L 229.98,8.41 L 231.25,7.36 L 231.84,6.88 L 232.75,6.20 L 233.77,5.57 L 235.77,4.58 L 239.83,3.00 L 241.86,2.27 L 245.97,1.24 L 248.02,0.80 L 252.14,0.31 L 254.20,0.14 L 258.29,0.20 L 260.34,0.29 L 264.39,0.90 L 266.40,1.27 L 270.36,2.41 L 272.33,3.06 L 276.18,4.74 L 281.78,7.88 L 281.94,7.98 L 282.83,8.75 L 283.36,9.23 L 284.95,10.71 L 285.83,11.54 L 288.09,13.69 L 289.30,14.85 L 292.18,17.65 L 293.70,19.12 L 297.19,22.51 L 299.00,24.27 L 303.03,28.22 L 305.11,30.26 L 309.66,34.74 L 312.00,37.03 L 317.02,41.99 L 319.59,44.52 L 325.05,49.92 L 327.83,52.67 L 333.69,58.48 L 336.67,61.43 L 342.89,67.60 L 346.04,70.73 L 352.58,77.23 L 355.88,80.52 L 362.70,87.32 L 366.15,90.75 L 373.21,97.80 L 376.77,101.35 L 384.04,108.61 L 395.13,119.71 L 398.26,122.85 L 404.25,128.85 L 407.21,131.81 L 412.86,137.47 L 415.64,140.26 L 420.96,145.59 L 423.58,148.22 L 428.57,153.22 L 431.03,155.69 L 435.71,160.38 L 438.01,162.69 L 442.39,167.09 L 444.54,169.25 L 448.63,173.36 L 450.64,175.38 L 454.44,179.21 L 456.31,181.09 L 459.85,184.65 L 461.58,186.39 L 464.85,189.70 L 466.46,191.32 L 469.48,194.38 L 470.96,195.87 L 473.75,198.70 L 475.11,200.08 L 477.66,202.67 L 478.91,203.95 L 481.25,206.33 L 482.39,207.50 L 484.52,209.68 L 485.56,210.74 L 487.49,212.73 L 489.37,214.67 L 492.58,218.02 L 494.10,219.62 L 496.66,222.34 L 497.87,223.63 L 499.85,225.81 L 500.78,226.84 L 502.28,228.57 L 502.98,229.38 L 504.07,230.73 L 504.58,231.37 L 505.35,232.44 L 506.86,235.00 L 507.96,237.29 L 509.60,241.98 L 510.34,244.33 L 511.25,249.09 L 511.62,251.47 L 511.79,256.22 L 511.19,263.25 L 510.70,266.17 L 509.01,271.67 L 508.05,274.35 L 505.51,279.32 L 504.13,281.73 L 500.81,286.10 L 499.06,288.20 L 495.05,291.89 L 492.97,293.64 L 488.36,296.58 L 485.98,297.96 L 480.86,300.08 L 478.24,301.03 L 472.70,302.25 L 463.99,303.00 L 463.04,303.00 L 461.27,303.09 L 460.42,303.15 L 458.93,303.34 L 458.24,303.45 L 457.18,303.72 L 456.20,304.20 L 456.15,304.25 L 456.06,304.78 L 456.01,305.11 L 455.92,306.17 L 455.88,306.77 L 455.80,308.34 L 455.76,309.18 L 455.68,311.21 L 455.64,312.29 L 455.57,314.75 L 455.53,316.03 L 455.47,318.88 L 455.44,320.35 L 455.38,323.56 L 455.35,325.21 L 455.29,328.73 L 455.24,332.33 L 455.15,340.33 L 455.11,344.44 L 455.04,353.23 L 455.01,357.70 L 454.97,367.00 L 454.95,371.68 L 454.93,381.19 L 454.92,385.94 L 454.93,395.35 L 454.94,400.03 L 454.97,409.06 L 454.98,413.51 L 455.04,421.88 L 455.06,423.91 L 455.09,427.80 L 455.11,429.72 L 455.15,433.34 L 455.18,435.12 L 455.22,438.44 L 455.25,440.06 L 455.31,443.03 L 455.33,444.47 L 455.40,447.07 L 455.43,448.32 L 455.50,450.50 L 455.53,451.53 L 455.61,453.26 L 455.65,454.06 L 455.73,455.30 L 455.77,455.86 L 455.86,456.57 L 456.00,457.00 L 456.34,457.00 L 456.78,457.62 L 456.96,458.01 L 457.10,459.32 L 457.13,460.05 L 456.98,461.91 L 456.88,462.89 L 456.48,465.17 L 456.25,466.34 L 455.62,468.89 L 455.28,470.18 L 454.46,472.86 L 451.38,480.72 L 450.63,482.31 L 448.89,485.36 L 447.98,486.86 L 445.94,489.72 L 444.89,491.13 L 442.58,493.78 L 441.39,495.09 L 438.81,497.53 L 437.49,498.72 L 434.67,500.93 L 433.22,502.00 L 430.17,503.97 L 428.61,504.92 L 425.33,506.63 L 420.18,508.89 L 413.50,511.48 L 367.00,511.80 L 363.80,511.82 L 357.59,511.85 L 354.53,511.86 L 348.69,511.88 L 345.83,511.88 L 340.50,511.88 L 337.91,511.87 L 333.21,511.85 L 330.96,511.84 L 327.05,511.80 L 325.20,511.78 L 322.20,511.73 L 321.51,511.71 L 320.33,511.68 L 319.78,511.67 L 318.88,511.63 L 318.46,511.62 L 317.85,511.58 L 317.28,511.52 L 316.25,511.33 L 314.09,510.35 L 313.01,509.78 L 310.94,508.21 L 309.94,507.37 L 308.24,505.44 L 306.38,502.38 L 306.25,502.05 L 306.02,500.83 L 305.90,500.10 L 305.72,497.91 L 305.67,497.29 L 305.59,495.83 L 305.55,495.07 L 305.48,493.29 L 305.44,492.36 L 305.38,490.24 L 305.35,489.13 L 305.30,486.64 L 305.27,485.34 L 305.22,482.45 L 305.20,480.95 L 305.16,477.63 L 305.14,475.91 L 305.11,472.13 L 305.09,470.18 L 305.07,465.93 L 305.05,463.73 L 305.03,458.96 L 305.02,456.51 L 305.01,451.21 L 305.00,448.49 L 304.99,442.62 L 304.98,433.15 L 304.98,430.53 L 304.97,425.49 L 304.96,423.01 L 304.95,418.26 L 304.94,415.92 L 304.92,411.46 L 304.91,409.27 L 304.89,405.11 L 304.88,403.06 L 304.85,399.21 L 304.83,397.32 L 304.80,393.77 L 304.78,392.04 L 304.74,388.80 L 304.72,387.23 L 304.68,384.32 L 304.66,382.91 L 304.61,380.32 L 304.59,379.08 L 304.53,376.83 L 304.51,375.75 L 304.45,373.84 L 304.42,372.93 L 304.36,371.36 L 304.33,370.63 L 304.27,369.42 L 304.23,368.86 L 304.16,368.00 L 304.13,367.62 L 304.06,367.13 L 303.94,366.81 L 303.81,366.77 L 303.53,366.42 L 303.39,366.21 L 303.13,365.60 L 302.54,363.14 L 302.42,362.20 L 302.19,360.90 L 302.07,360.33 L 301.74,359.60 L 301.55,359.29 L 301.01,358.95 L 299.82,358.65 L 299.56,358.61 L 298.83,358.36 L 298.43,358.20 L 297.49,357.75 L 296.50,357.25 L 294.19,355.86 L 293.03,355.13 L 290.80,353.54 L 288.20,351.34 L 287.75,350.87 L 286.99,350.23 L 286.63,349.96 L 285.99,349.67 L 285.67,349.57 L 285.04,349.60 L 284.02,349.99 L 283.88,350.07 L 283.14,350.21 L 282.71,350.28 L 281.42,350.40 L 280.70,350.46 L 278.90,350.58 L 277.93,350.63 L 275.65,350.72 L 274.46,350.77 L 271.76,350.84 L 270.36,350.88 L 267.28,350.93 L 265.69,350.96 L 262.27,350.99 L 256.82,351.01 L 253.33,351.01 L 246.69,351.06 L 245.08,351.08 L 242.04,351.12 L 240.56,351.15 L 237.83,351.20 L 236.51,351.23 L 234.17,351.30 L 233.06,351.33 L 231.19,351.40 L 230.32,351.44 L 229.01,351.52 L 227.73,351.64 L 226.19,351.90 L 222.93,353.14 L 221.30,353.85 L 218.11,355.84 L 216.56,356.90 L 213.80,359.39 L 210.54,363.42 L 207.50,368.34 L 207.00,435.10 L 206.97,439.19 L 206.91,446.64 L 206.88,450.24 L 206.83,456.77 L 206.81,459.92 L 206.75,465.59 L 206.73,468.32 L 206.68,473.20 L 206.65,475.54 L 206.60,479.69 L 206.57,481.67 L 206.51,485.15 L 206.48,486.81 L 206.41,489.69 L 206.37,491.06 L 206.29,493.39 L 206.25,494.50 L 206.16,496.36 L 206.11,497.24 L 206.01,498.69 L 205.95,499.37 L 205.83,500.48 L 205.77,500.99 L 205.62,501.82 L 205.47,502.58 L 205.11,503.54 L 204.44,504.62 L 203.87,505.38 L 202.17,507.17 L 199.62,509.44 L 199.28,509.69 L 198.58,510.10 L 198.20,510.30 L 197.15,510.61 L 196.55,510.76 L 194.78,510.98 L 194.28,511.03 L 193.08,511.12 L 192.44,511.17 L 190.94,511.24 L 190.15,511.27 L 188.31,511.33 L 187.33,511.36 L 185.10,511.41 L 183.93,511.43 L 181.26,511.47 L 179.86,511.49 L 176.71,511.52 L 175.07,511.53 L 171.40,511.55 L 169.49,511.56 L 165.25,511.58 L 163.05,511.59 L 158.20,511.60 L 150.18,511.63 L 146.97,511.64 L 140.75,511.64 L 137.69,511.65 L 131.86,511.64 L 129.00,511.64 L 123.70,511.63 L 121.12,511.62 L 116.48,511.59 L 114.25,511.58 L 110.40,511.54 L 108.58,511.52 L 105.65,511.48 L 104.99,511.47 L 103.85,511.45 L 103.31,511.43 L 102.45,511.41 L 102.06,511.39 L 101.50,511.37 L 101.25,511.35 Z" fill="rgba(247,160,114,1)"/>
</g>
</svg>