<svg version="1.1" id="Layer_1" xmlns="http://www.w3.org/2000/svg" xmlns:xlink="http://www.w3.org/1999/xlink" x="0px" y="0px"
	 width="100%" viewBox="0 0 512 512" enable-background="new 0 0 512 512" xml:space="preserve">
<path fill="#B5E2FA" opacity="1.000000" stroke="none" 
	d="
M339.000000,513.000000 
	C226.027451,513.000000 113.554893,513.000000 1.041169,513.000000 
	C1.041169,342.402435 1.041169,171.804840 1.041169,1.103623 
	C171.555893,1.103623 342.111877,1.103623 512.833923,1.103623 
	C512.833923,171.666534 512.833923,342.333252 512.833923,513.000000 
	C455.138153,513.000000 397.319061,513.000000 339.000000,513.000000 
M163.005951,426.466187 
	C170.901382,429.094574 178.769348,431.809204 186.697525,434.334717 
	C207.938202,441.100891 226.916641,427.288513 227.058105,405.015533 
	C227.086227,400.586182 227.062164,396.156494 227.062164,391.259613 
	C229.603394,391.259613 231.402466,391.259918 233.201538,391.259552 
	C245.866425,391.256989 258.532349,391.357361 271.195984,391.230072 
	C297.344299,390.967316 316.587219,371.798584 316.806396,345.683929 
	C316.965790,326.687958 316.878265,307.689423 316.823456,288.692291 
	C316.795166,278.879822 310.690399,272.089203 302.021484,272.000549 
	C292.965759,271.907959 286.958710,278.532623 286.942413,288.742676 
	C286.912872,307.240051 286.951996,325.737488 286.924316,344.234863 
	C286.907440,355.524475 281.036072,361.535431 269.688629,361.645050 
	C257.024933,361.767426 244.359100,361.688660 231.694290,361.656525 
	C230.257278,361.652893 228.820923,361.385101 227.067383,361.207733 
	C227.067383,358.625641 227.067413,356.473450 227.067398,354.321259 
	C227.066574,282.498016 227.055176,210.674759 227.074127,138.851517 
	C227.077759,125.045731 220.705048,115.441093 208.242310,109.732727 
	C207.432175,109.361656 206.651321,108.926613 205.415009,108.295929 
	C206.381073,108.013321 206.688919,107.844719 206.996948,107.844368 
	C227.993744,107.820778 248.990585,107.783302 269.987366,107.810577 
	C281.113373,107.825027 286.895935,113.637993 286.923492,124.771271 
	C286.957275,138.435928 286.908142,152.100830 286.961914,165.765381 
	C286.969696,167.740891 287.052460,169.804306 287.612244,171.673828 
	C289.794800,178.962845 296.653870,183.131958 304.294556,182.033051 
	C311.434357,181.006180 316.710052,174.841415 316.789551,166.775467 
	C316.937408,151.779221 316.901031,136.779480 316.744110,121.783249 
	C316.709656,118.490509 316.139923,115.132675 315.324097,111.930305 
	C310.093109,91.397354 292.937469,77.963760 271.481262,77.934311 
	C217.489853,77.860214 163.493378,78.374657 109.509697,77.738419 
	C94.411453,77.560478 77.662949,89.598984 77.741432,109.433456 
	C78.091576,197.919662 77.883812,286.408020 77.903709,374.895599 
	C77.907143,390.145569 85.293289,400.478943 99.740189,405.344849 
	C120.559792,412.357086 141.420776,419.246490 163.005951,426.466187 
M427.511047,242.005737 
	C428.217560,241.298553 428.925018,240.592346 429.630371,239.884003 
	C438.437683,231.040039 438.484680,223.209549 429.722748,214.437515 
	C410.773010,195.465942 391.809357,176.508255 372.837616,157.558655 
	C368.037628,152.764236 362.359680,151.045868 355.963867,153.665680 
	C349.583160,156.279312 346.660767,161.333786 346.720001,168.243408 
	C346.799988,177.569443 346.735016,186.896744 346.733154,196.223495 
	C346.732147,201.337875 346.732971,206.452271 346.732971,212.106461 
	C344.298492,212.106461 342.509796,212.106415 340.721130,212.106476 
	C323.399994,212.107086 306.078766,212.073120 288.757751,212.121567 
	C278.730713,212.149612 271.874603,218.437683 271.996582,227.334320 
	C272.117157,236.122940 278.734741,242.005295 288.638550,242.022644 
	C306.126190,242.053314 323.613922,242.025009 341.101593,242.044189 
	C342.854065,242.046112 344.606354,242.204742 346.732910,242.308990 
	C346.732910,244.653091 346.732086,246.459915 346.733002,248.266739 
	C346.739563,261.091003 346.646759,273.916351 346.789734,286.739136 
	C346.878723,294.721558 351.933807,300.569458 359.495819,301.677307 
	C365.077972,302.495087 369.466858,300.082397 373.317627,296.219177 
	C391.189484,278.289612 409.108093,260.406647 427.511047,242.005737 
z"/>
<path fill="#0FA3B1" opacity="1.000000" stroke="none" 
	d="
M162.635025,426.327271 
	C141.420776,419.246490 120.559792,412.357086 99.740189,405.344849 
	C85.293289,400.478943 77.907143,390.145569 77.903709,374.895599 
	C77.883812,286.408020 78.091576,197.919662 77.741432,109.433456 
	C77.662949,89.598984 94.411453,77.560478 109.509697,77.738419 
	C163.493378,78.374657 217.489853,77.860214 271.481262,77.934311 
	C292.937469,77.963760 310.093109,91.397354 315.324097,111.930305 
	C316.139923,115.132675 316.709656,118.490509 316.744110,121.783249 
	C316.901031,136.779480 316.937408,151.779221 316.789551,166.775467 
	C316.710052,174.841415 311.434357,181.006180 304.294556,182.033051 
	C296.653870,183.131958 289.794800,178.962845 287.612244,171.673828 
	C287.052460,169.804306 286.969696,167.740891 286.961914,165.765381 
	C286.908142,152.100830 286.957275,138.435928 286.923492,124.771271 
	C286.895935,113.637993 281.113373,107.825027 269.987366,107.810577 
	C248.990585,107.783302 227.993744,107.820778 206.996948,107.844368 
	C206.688919,107.844719 206.381073,108.013321 205.415009,108.295929 
	C206.651321,108.926613 207.432175,109.361656 208.242310,109.732727 
	C220.705048,115.441093 227.077759,125.045731 227.074127,138.851517 
	C227.055176,210.674759 227.066574,282.498016 227.067398,354.321259 
	C227.067413,356.473450 227.067383,358.625641 227.067383,361.207733 
	C228.820923,361.385101 230.257278,361.652893 231.694290,361.656525 
	C244.359100,361.688660 257.024933,361.767426 269.688629,361.645050 
	C281.036072,361.535431 286.907440,355.524475 286.924316,344.234863 
	C286.951996,325.737488 286.912872,307.240051 286.942413,288.742676 
	C286.958710,278.532623 292.965759,271.907959 302.021484,272.000549 
	C310.690399,272.089203 316.795166,278.879822 316.823456,288.692291 
	C316.878265,307.689423 316.965790,326.687958 316.806396,345.683929 
	C316.587219,371.798584 297.344299,390.967316 271.195984,391.230072 
	C258.532349,391.357361 245.866425,391.256989 233.201538,391.259552 
	C231.402466,391.259918 229.603394,391.259613 227.062164,391.259613 
	C227.062164,396.156494 227.086227,400.586182 227.058105,405.015533 
	C226.916641,427.288513 207.938202,441.100891 186.697525,434.334717 
	C178.769348,431.809204 170.901382,429.094574 162.635025,426.327271 
z"/>
<path fill="#10A3B1" opacity="1.000000" stroke="none" 
	d="
M427.260498,242.256348 
	C409.108093,260.406647 391.189484,278.289612 373.317627,296.219177 
	C369.466858,300.082397 365.077972,302.495087 359.495819,301.677307 
	C351.933807,300.569458 346.878723,294.721558 346.789734,286.739136 
	C346.646759,273.916351 346.739563,261.091003 346.733002,248.266739 
	C346.732086,246.459915 346.732910,244.653091 346.732910,242.308990 
	C344.606354,242.204742 342.854065,242.046112 341.101593,242.044189 
	C323.613922,242.025009 306.126190,242.053314 288.638550,242.022644 
	C278.734741,242.005295 272.117157,236.122940 271.996582,227.334320 
	C271.874603,218.437683 278.730713,212.149612 288.757751,212.121567 
	C306.078766,212.073120 323.399994,212.107086 340.721130,212.106476 
	C342.509796,212.106415 344.298492,212.106461 346.732971,212.106461 
	C346.732971,206.452271 346.732147,201.337875 346.733154,196.223495 
	C346.735016,186.896744 346.799988,177.569443 346.720001,168.243408 
	C346.660767,161.333786 349.583160,156.279312 355.963867,153.665680 
	C362.359680,151.045868 368.037628,152.764236 372.837616,157.558655 
	C391.809357,176.508255 410.773010,195.465942 429.722748,214.437515 
	C438.484680,223.209549 438.437683,231.040039 429.630371,239.884003 
	C428.925018,240.592346 428.217560,241.298553 427.260498,242.256348 
z"/>
</svg>