<svg xmlns="http://www.w3.org/2000/svg" width="512" height="512" viewBox="0 0 512 512">
<g>
<path d="M 229.50,452.96 L 224.43,452.49 L 214.51,451.26 L 209.59,450.59 L 199.96,448.95 L 195.18,448.08 L 185.80,446.02 L 181.14,444.94 L 171.99,442.45 L 167.43,441.15 L 158.48,438.23 L 154.03,436.72 L 145.24,433.36 L 140.87,431.62 L 132.23,427.81 L 119.41,421.58 L 113.59,418.58 L 102.50,412.10 L 97.05,408.78 L 86.73,401.69 L 81.66,398.06 L 72.12,390.38 L 67.45,386.46 L 58.73,378.21 L 54.46,374.01 L 46.57,365.22 L 42.73,360.75 L 35.70,351.44 L 32.29,346.72 L 26.15,336.92 L 17.96,321.70 L 16.79,319.26 L 14.63,314.46 L 13.59,312.07 L 11.69,307.34 L 9.85,302.62 L 6.88,293.20 L 5.51,288.47 L 3.39,278.77 L 2.90,276.31 L 2.08,271.27 L 1.05,263.50 L 0.76,260.97 L 0.36,256.53 L 0.19,254.40 L 0.06,250.69 L 0.02,248.92 L 0.16,245.85 L 0.27,244.39 L 0.70,241.89 L 0.96,240.70 L 1.71,238.68 L 2.12,237.72 L 3.21,236.08 L 3.79,235.31 L 5.22,233.98 L 7.78,232.24 L 11.77,230.00 L 255.93,230.00 L 263.36,230.00 L 277.54,230.00 L 284.53,230.00 L 297.85,230.00 L 304.40,230.00 L 316.88,230.00 L 323.02,230.00 L 334.69,230.01 L 340.42,230.01 L 351.31,230.01 L 356.65,230.01 L 366.78,230.02 L 371.75,230.02 L 381.14,230.03 L 385.75,230.03 L 394.45,230.04 L 398.71,230.04 L 406.73,230.05 L 410.66,230.06 L 418.04,230.07 L 421.65,230.07 L 428.41,230.09 L 431.71,230.10 L 437.88,230.11 L 440.89,230.12 L 446.50,230.14 L 449.24,230.15 L 454.31,230.17 L 456.78,230.19 L 461.35,230.21 L 463.57,230.23 L 467.66,230.26 L 469.65,230.27 L 473.29,230.30 L 475.05,230.32 L 478.27,230.36 L 479.83,230.38 L 482.65,230.42 L 484.01,230.44 L 486.47,230.48 L 487.65,230.51 L 489.77,230.56 L 490.79,230.58 L 492.59,230.64 L 493.46,230.67 L 494.98,230.73 L 495.71,230.76 L 496.97,230.82 L 498.18,230.89 L 499.95,231.04 L 500.75,231.11 L 501.86,231.28 L 502.35,231.37 L 503.03,231.57 L 503.80,231.90 L 504.36,232.19 L 505.50,232.98 L 506.07,233.41 L 507.15,234.43 L 509.90,238.04 L 510.47,239.05 L 511.22,240.67 L 511.53,241.49 L 511.85,243.36 L 511.91,243.88 L 511.96,245.11 L 511.98,245.77 L 511.95,247.35 L 511.93,248.19 L 511.85,250.22 L 511.66,253.90 L 511.40,258.53 L 510.40,267.63 L 509.81,272.15 L 508.13,281.03 L 507.21,285.45 L 504.85,294.14 L 503.58,298.46 L 500.53,306.99 L 498.92,311.23 L 495.17,319.61 L 493.21,323.78 L 488.75,332.04 L 486.43,336.16 L 481.26,344.33 L 472.68,356.50 L 471.65,357.86 L 469.01,361.04 L 467.60,362.69 L 464.33,366.30 L 462.64,368.15 L 458.93,372.02 L 457.04,373.97 L 453.08,377.91 L 451.09,379.88 L 447.06,383.72 L 445.05,385.61 L 441.14,389.16 L 439.21,390.88 L 435.60,393.96 L 430.71,397.85 L 425.89,401.45 L 415.97,408.15 L 410.96,411.41 L 400.65,417.42 L 395.44,420.34 L 384.73,425.66 L 379.32,428.23 L 368.21,432.87 L 362.60,435.10 L 351.08,439.06 L 345.27,440.95 L 333.34,444.22 L 327.32,445.77 L 314.98,448.36 L 296.00,451.49 L 295.13,451.61 L 293.12,451.83 L 292.07,451.94 L 289.73,452.14 L 287.31,452.34 L 281.70,452.69 L 278.80,452.85 L 272.51,453.11 L 269.32,453.23 L 262.74,453.40 L 259.45,453.48 L 252.97,453.55 L 249.78,453.57 L 243.78,453.53 L 240.88,453.49 L 235.76,453.33 L 234.56,453.29 L 232.38,453.17 L 231.33,453.11 M 74.06,196.92 L 74.48,196.32 L 75.60,194.95 L 76.20,194.24 L 77.60,192.69 L 79.06,191.13 L 82.51,187.79 L 84.27,186.14 L 87.86,183.07 L 88.74,182.34 L 90.42,181.04 L 92.75,179.38 L 94.56,178.18 L 98.23,176.05 L 100.08,175.04 L 103.88,173.27 L 105.80,172.42 L 109.80,170.97 L 116.11,169.11 L 123.50,167.23 L 124.23,160.37 L 124.42,158.55 L 125.02,154.97 L 125.35,153.19 L 126.21,149.71 L 126.67,147.98 L 127.78,144.60 L 128.37,142.92 L 129.72,139.65 L 130.43,138.04 L 132.03,134.90 L 132.85,133.35 L 134.67,130.35 L 136.54,127.38 L 140.91,121.93 L 143.19,119.29 L 148.33,114.54 L 149.65,113.41 L 152.44,111.28 L 153.85,110.24 L 156.80,108.33 L 158.29,107.40 L 161.39,105.71 L 162.96,104.89 L 166.20,103.43 L 167.84,102.73 L 171.21,101.52 L 176.41,99.99 L 178.16,99.55 L 181.78,98.90 L 183.61,98.61 L 187.34,98.26 L 189.22,98.12 L 193.02,98.07 L 194.91,98.07 L 198.70,98.31 L 200.59,98.46 L 204.31,98.98 L 206.16,99.27 L 209.75,100.07 L 211.53,100.50 L 214.93,101.58 L 219.76,103.49 L 220.44,103.80 L 221.63,104.30 L 222.20,104.53 L 223.18,104.85 L 224.11,105.14 L 225.40,105.18 L 225.96,105.11 L 226.60,104.45 L 226.98,102.63 L 226.99,102.35 L 227.35,101.39 L 227.58,100.85 L 228.34,99.45 L 228.76,98.71 L 229.82,97.00 L 230.39,96.11 L 231.68,94.20 L 233.02,92.27 L 236.04,88.31 L 236.79,87.35 L 238.29,85.56 L 240.42,83.18 L 242.27,81.25 L 246.43,77.65 L 248.58,75.90 L 253.25,72.75 L 255.64,71.23 L 260.68,68.61 L 268.50,65.36 L 269.40,65.05 L 270.98,64.52 L 271.75,64.28 L 273.17,63.87 L 274.56,63.50 L 277.32,63.04 L 278.04,62.94 L 279.62,62.81 L 280.45,62.75 L 282.31,62.68 L 283.29,62.64 L 285.55,62.61 L 289.50,62.60 L 290.92,62.61 L 293.37,62.63 L 294.55,62.64 L 296.59,62.70 L 297.56,62.74 L 299.29,62.85 L 300.12,62.91 L 301.64,63.08 L 303.12,63.27 L 305.87,63.89 L 310.50,65.28 L 313.40,66.24 L 318.90,68.66 L 321.60,69.94 L 326.67,72.98 L 329.15,74.57 L 333.75,78.19 L 335.98,80.06 L 340.07,84.21 L 342.04,86.34 L 345.57,90.98 L 347.27,93.36 L 350.21,98.44 L 351.60,101.04 L 353.90,106.52 L 356.61,115.16 L 358.24,121.83 L 365.09,124.03 L 366.81,124.58 L 370.24,125.96 L 371.94,126.68 L 375.29,128.38 L 376.96,129.27 L 380.20,131.26 L 381.80,132.29 L 384.89,134.54 L 386.41,135.69 L 389.31,138.18 L 390.73,139.45 L 393.39,142.13 L 394.69,143.49 L 397.08,146.35 L 400.31,150.79 L 401.47,152.54 L 403.69,156.52 L 404.77,158.55 L 406.71,162.76 L 407.62,164.85 L 409.08,168.84 L 409.40,169.80 L 409.92,171.60 L 410.50,174.07 L 410.66,174.93 L 411.02,176.12 L 411.24,176.66 L 412.07,177.44 L 412.32,177.63 L 412.99,177.98 L 413.36,178.15 L 414.29,178.51 L 414.79,178.69 L 416.04,179.09 L 418.33,179.78 L 420.53,180.43 L 424.98,182.25 L 427.21,183.23 L 431.60,185.64 L 433.78,186.91 L 437.96,189.84 L 443.86,194.70 L 449.50,199.91 L 260.68,199.95 L 71.86,200.00 L 74.06,196.92 M 439.75,155.93 L 439.03,155.55 L 437.81,154.68 L 437.22,154.21 L 436.17,153.05 L 435.66,152.42 L 434.66,150.81 L 433.08,147.73 L 432.28,146.01 L 430.29,142.15 L 429.80,141.23 L 428.88,139.54 L 427.69,137.50 L 425.21,133.50 L 456.10,97.50 L 458.29,94.95 L 462.51,90.07 L 464.59,87.67 L 468.55,83.15 L 470.49,80.94 L 474.10,76.86 L 475.85,74.89 L 479.04,71.36 L 480.57,69.67 L 483.24,66.76 L 484.50,65.39 L 486.59,63.20 L 487.07,62.70 L 487.90,61.86 L 488.30,61.46 L 488.96,60.82 L 489.26,60.53 L 489.74,60.11 L 490.23,59.75 L 490.98,59.35 L 492.50,58.77 L 493.26,58.52 L 494.80,58.24 L 496.33,58.02 L 499.34,58.38 L 500.81,58.67 L 503.58,59.90 L 504.91,60.61 L 507.24,62.55 L 508.33,63.59 L 510.05,66.06 L 510.81,67.35 L 511.73,70.18 L 511.90,70.90 L 512.06,72.37 L 512.11,73.12 L 512.01,74.62 L 511.92,75.38 L 511.53,76.89 L 510.61,79.15 L 510.57,79.21 L 510.32,79.56 L 510.16,79.77 L 509.68,80.38 L 509.41,80.72 L 508.71,81.59 L 508.34,82.05 L 507.44,83.15 L 506.96,83.72 L 505.88,85.03 L 505.32,85.71 L 504.07,87.22 L 502.78,88.77 L 499.76,92.37 L 498.19,94.25 L 494.70,98.39 L 492.91,100.52 L 489.08,105.05 L 485.19,109.66 L 476.92,119.40 L 474.85,121.84 L 470.76,126.65 L 468.72,129.04 L 464.79,133.65 L 462.85,135.91 L 459.20,140.17 L 457.42,142.25 L 454.19,146.01 L 452.63,147.81 L 449.94,150.92 L 449.30,151.66 L 448.16,152.97 L 447.60,153.60 L 446.64,154.70 L 446.18,155.23 L 445.40,156.10 L 445.04,156.50 L 444.48,157.12 L 444.22,157.40 L 443.88,157.75 L 443.65,157.96 L 443.63,157.95 L 443.29,157.78 L 443.09,157.68 L 442.44,157.34 L 441.73,156.98 Z" fill="rgba(255,255,255,1)"/>
</g>
</svg>