<svg xmlns="http://www.w3.org/2000/svg" width="512" height="512" viewBox="0 0 512 512">
<g>
<path d="M 230.43,450.38 L 230.76,450.50 L 230.98,450.65 L 231.46,451.00 L 231.75,451.26 L 233.87,452.51 L 235.67,453.18 L 236.50,453.32 L 236.95,453.37 L 235.76,453.33 L 234.56,453.29 L 232.38,453.17 L 231.33,453.11 L 229.50,452.96 L 223.70,452.42 L 222.93,452.32 L 222.96,452.32 L 224.91,452.43 L 225.66,452.43 L 226.99,452.37 L 227.39,452.27 L 228.00,452.02 L 228.00,451.82 L 228.29,451.34 L 228.72,451.33 L 229.00,451.50 L 229.71,451.58 L 230.00,451.24 L 230.00,450.90 L 230.11,450.47 L 230.29,450.35 M 282.30,450.66 L 283.20,450.82 L 283.51,451.06 L 284.00,451.65 L 284.00,452.09 L 284.21,452.39 L 284.57,452.51 L 281.70,452.69 L 278.80,452.85 L 276.78,452.94 L 277.44,452.81 L 277.80,452.69 L 278.98,452.16 L 279.35,451.79 L 280.78,450.89 L 281.82,450.63 M 296.00,451.49 L 295.13,451.61 L 293.12,451.83 L 292.27,451.92 L 293.44,451.76 L 294.87,451.56 L 297.89,451.12 L 299.68,450.85 L 302.46,450.43 M 314.98,448.36 L 313.84,448.55 L 315.63,448.23 M 158.80,438.26 L 159.65,438.33 L 160.57,438.39 L 161.14,438.42 L 162.36,438.48 L 163.11,438.51 L 167.04,439.17 L 168.09,439.56 L 168.53,439.81 L 169.35,440.35 L 169.66,440.66 L 170.98,441.48 L 172.38,442.09 L 173.31,442.42 L 175.33,443.09 L 176.53,443.45 L 179.04,444.17 L 180.46,444.54 L 183.38,445.29 L 184.96,445.66 L 188.18,446.42 L 189.87,446.79 L 196.00,448.09 L 195.28,447.96 L 189.68,446.83 L 178.66,444.13 L 173.19,442.71 L 162.45,439.43 L 158.72,438.24 M 368.21,432.87 L 362.60,435.10 L 351.08,439.06 L 345.27,440.95 L 335.68,443.58 L 337.08,443.16 L 338.12,442.78 L 340.05,442.05 L 340.74,441.72 L 341.94,441.06 L 342.23,440.77 L 343.43,439.86 L 344.40,439.37 L 344.98,439.19 L 346.22,438.86 L 346.94,438.75 L 348.48,438.56 L 349.37,438.52 L 351.43,438.27 L 353.05,437.96 L 353.97,437.73 L 355.89,437.22 L 356.95,436.90 L 359.13,436.22 L 360.31,435.82 L 365.23,434.05 L 367.96,432.97 L 368.98,432.55 M 144.16,432.90 L 146.16,433.58 L 146.95,433.79 L 148.39,434.10 L 148.92,434.12 L 149.85,434.08 L 150.13,433.93 L 151.03,433.67 L 151.66,433.70 L 152.00,433.83 L 152.72,434.16 L 153.12,434.44 L 153.96,435.08 L 154.43,435.53 L 156.24,437.16 L 156.97,437.67 L 146.68,433.89 L 141.51,431.90 L 140.60,431.51 M 395.44,420.34 L 384.73,425.66 L 379.32,428.23 L 374.84,430.10 L 376.52,429.36 L 382.52,426.65 L 385.58,425.18 L 391.72,422.17 L 394.74,420.60 L 399.17,418.25 M 111.01,417.06 L 112.32,417.54 L 112.84,417.65 L 113.77,417.77 L 114.08,417.69 L 116.03,417.90 L 117.52,418.58 L 118.12,419.10 L 119.40,420.46 L 119.58,420.78 L 119.58,420.88 L 119.53,421.04 L 119.40,421.04 L 119.55,421.35 L 120.24,421.81 L 120.83,422.15 L 122.17,422.89 L 123.04,423.34 L 124.89,424.29 L 125.96,424.81 L 130.56,427.04 L 133.08,428.20 L 135.27,429.19 L 131.43,427.51 L 126.43,425.25 L 116.72,420.32 L 110.88,417.01 M 71.14,389.11 L 73.97,391.46 L 79.71,396.13 L 82.59,398.36 L 88.34,402.74 L 91.11,404.74 L 92.41,405.65 L 91.17,404.82 L 87.32,402.11 L 79.63,396.22 L 75.82,393.20 L 68.41,386.84 L 66.21,384.79 M 435.60,393.96 L 430.71,397.85 L 425.89,401.45 L 421.74,404.26 L 424.46,402.35 L 426.08,401.19 L 429.23,398.91 L 430.55,397.91 L 435.17,394.27 L 436.90,392.85 M 56.69,375.78 L 58.44,377.52 L 59.14,378.18 L 57.89,377.02 L 56.35,375.49 L 55.21,374.29 M 472.68,356.50 L 471.65,357.86 L 469.01,361.04 L 467.60,362.69 L 464.33,366.30 L 462.64,368.15 L 458.93,372.02 L 458.90,372.06 L 459.06,371.83 L 459.46,371.24 L 459.56,371.03 L 459.70,370.66 L 459.66,370.56 L 459.72,369.14 L 460.21,368.08 L 460.61,367.58 L 461.51,366.62 L 462.03,366.27 L 463.12,365.66 L 463.67,365.58 L 464.81,365.04 L 465.77,364.30 L 466.32,363.79 L 468.65,361.42 L 469.79,360.03 L 470.90,358.63 L 471.39,357.95 L 472.32,356.61 L 472.67,356.01 L 473.31,354.87 L 473.47,354.43 L 473.69,353.63 L 473.61,353.41 L 473.71,352.04 L 474.22,351.03 L 474.60,350.58 L 475.42,349.77 L 475.84,349.56 L 476.67,349.30 L 476.98,349.49 L 477.33,349.45 L 477.65,349.24 L 477.84,349.05 L 478.18,348.69 M 29.07,341.40 L 29.64,342.50 L 31.34,345.32 L 31.85,345.98 L 32.06,346.18 L 32.43,346.50 L 32.55,346.50 L 33.27,346.71 L 33.83,347.05 L 34.14,347.29 L 35.42,348.45 L 36.03,349.20 L 37.23,350.77 L 37.67,351.54 L 38.40,353.05 L 38.46,353.63 L 38.85,355.03 L 39.37,356.14 L 39.74,356.73 L 39.43,356.36 L 38.06,354.65 L 35.58,351.42 L 34.40,349.85 L 32.40,347.02 L 31.47,345.67 L 30.06,343.39 L 29.76,342.86 L 29.27,341.93 L 28.98,341.24 M 500.52,306.98 L 498.91,311.23 L 495.16,319.62 L 493.19,323.79 L 488.74,332.06 L 486.42,336.18 L 484.67,338.94 L 484.88,338.56 L 485.98,336.50 L 486.42,335.60 L 487.20,333.88 L 487.42,333.23 L 487.74,332.10 L 487.67,331.83 L 487.65,330.86 L 487.86,330.12 L 488.06,329.72 L 489.13,328.03 L 490.01,327.14 L 492.90,323.50 L 494.64,320.61 L 495.32,319.17 L 495.96,317.75 L 496.20,317.08 L 496.65,315.78 L 496.79,315.21 L 497.01,314.12 L 497.01,313.68 L 496.96,312.89 L 496.82,312.64 L 496.54,311.79 L 496.57,311.22 L 496.70,310.92 L 497.03,310.30 L 497.32,309.97 L 497.98,309.27 L 498.43,308.87 L 499.43,307.76 L 500.10,306.77 L 500.44,306.16 L 501.13,304.86 L 501.47,304.10 L 501.90,303.12 M 26.24,337.13 L 26.93,337.98 L 26.94,338.00 L 26.88,338.00 L 26.33,337.34 L 26.01,336.91 L 25.88,336.70 L 26.02,336.90 M 18.72,322.93 L 19.03,323.68 L 19.32,324.34 L 19.26,324.21 L 18.88,323.36 L 18.34,321.98 L 18.29,321.78 M 18.00,320.20 L 18.00,320.60 L 18.23,321.56 L 18.00,320.67 L 18.00,320.25 L 17.55,319.15 L 16.48,317.62 L 17.55,319.12 M 12.96,310.71 L 13.22,311.34 L 12.98,310.79 L 12.68,310.04 M 10.43,304.24 L 11.45,306.92 L 12.37,309.29 L 11.53,307.22 L 9.95,303.12 L 8.69,299.14 M 5.95,290.04 L 6.82,293.15 L 6.00,290.38 L 5.71,289.11 M 507.20,285.43 L 507.11,285.77 L 507.33,284.81 M 2.11,270.86 L 2.34,271.76 L 2.83,273.37 L 3.11,273.94 L 3.70,274.93 L 4.05,275.26 L 4.95,276.24 L 5.31,276.84 L 5.37,277.14 L 5.41,277.77 L 5.33,278.13 L 5.09,278.90 L 4.87,279.38 L 4.46,280.91 L 4.39,282.17 L 4.48,282.99 L 4.72,284.76 L 4.88,285.53 L 3.97,281.59 L 3.03,277.16 L 1.86,269.41 M 510.39,267.62 L 509.81,272.13 L 509.21,275.29 L 509.30,274.81 L 509.75,271.92 L 510.48,266.85 M 511.40,258.53 L 511.14,260.89 L 511.43,257.93 M 277.50,230.00 L 284.49,230.00 L 297.81,230.00 L 304.37,230.00 L 316.85,230.00 L 322.99,230.00 L 334.66,230.01 L 340.39,230.01 L 351.28,230.01 L 356.62,230.01 L 366.75,230.02 L 371.72,230.02 L 381.12,230.03 L 385.73,230.03 L 394.43,230.04 L 398.69,230.04 L 406.71,230.05 L 410.64,230.06 L 418.02,230.07 L 421.63,230.07 L 428.39,230.09 L 431.70,230.10 L 437.87,230.11 L 440.88,230.12 L 446.49,230.14 L 449.23,230.15 L 454.30,230.17 L 456.77,230.19 L 461.34,230.21 L 463.57,230.23 L 467.65,230.26 L 469.64,230.27 L 473.28,230.30 L 475.05,230.32 L 478.26,230.36 L 479.82,230.38 L 482.64,230.42 L 484.01,230.44 L 486.46,230.48 L 487.65,230.51 L 489.77,230.56 L 490.78,230.58 L 492.59,230.64 L 493.46,230.67 L 494.98,230.73 L 495.71,230.76 L 496.97,230.82 L 498.18,230.89 L 499.95,231.04 L 500.75,231.11 L 501.86,231.28 L 502.35,231.37 L 503.03,231.57 L 503.80,231.90 L 504.36,232.19 L 505.50,232.98 L 506.07,233.41 L 507.15,234.43 L 509.90,238.04 L 510.47,239.05 L 511.22,240.67 L 511.53,241.49 L 511.85,243.36 L 511.91,243.88 L 511.96,245.11 L 511.98,245.77 L 511.97,246.36 L 511.95,245.74 L 511.92,245.32 L 511.70,243.89 L 511.48,243.45 L 510.97,242.72 L 510.58,242.44 L 509.29,241.08 L 508.68,240.02 L 508.62,239.59 L 507.77,237.84 L 506.69,236.49 L 506.03,235.85 L 504.64,234.62 L 503.96,234.17 L 502.64,233.42 L 502.13,233.34 L 500.83,232.73 L 500.02,231.99 L 499.78,231.56 L 499.32,231.31 L 498.64,231.16 L 498.07,231.09 L 496.74,230.96 L 495.77,230.89 L 493.62,230.78 L 492.18,230.72 L 490.68,230.67 L 489.82,230.65 L 488.05,230.60 L 487.05,230.58 L 484.97,230.53 L 483.82,230.51 L 481.43,230.47 L 480.11,230.45 L 477.38,230.41 L 475.89,230.39 L 472.80,230.36 L 471.12,230.34 L 467.66,230.31 L 465.77,230.29 L 461.91,230.27 L 459.82,230.25 L 455.54,230.23 L 453.23,230.21 L 448.51,230.19 L 445.97,230.18 L 440.78,230.16 L 438.00,230.15 L 432.33,230.13 L 429.31,230.12 L 423.13,230.11 L 419.84,230.10 L 413.14,230.08 L 409.58,230.08 L 402.33,230.07 L 398.49,230.06 L 390.67,230.05 L 386.54,230.05 L 378.13,230.04 L 373.69,230.03 L 364.67,230.03 L 359.93,230.02 L 350.28,230.02 L 345.21,230.02 L 334.90,230.01 L 329.50,230.01 L 318.52,230.01 L 312.77,230.00 L 301.10,230.00 L 295.00,230.00 L 282.61,230.00 L 276.14,230.00 L 263.02,230.00 L 256.17,230.00 L 234.30,230.00 L 220.41,230.00 L 213.79,230.00 L 200.77,230.00 L 194.59,230.00 L 182.42,230.00 L 176.65,230.00 L 165.31,230.01 L 159.94,230.01 L 149.39,230.01 L 144.40,230.01 L 134.62,230.02 L 130.00,230.02 L 120.96,230.03 L 116.70,230.03 L 108.36,230.04 L 104.44,230.05 L 96.78,230.06 L 93.19,230.06 L 86.17,230.08 L 82.90,230.08 L 76.50,230.10 L 73.53,230.11 L 67.72,230.13 L 65.03,230.14 L 59.79,230.16 L 57.37,230.17 L 52.65,230.20 L 50.49,230.21 L 46.28,230.24 L 44.35,230.25 L 40.62,230.29 L 38.92,230.30 L 35.63,230.34 L 34.14,230.36 L 31.26,230.40 L 29.97,230.42 L 27.48,230.47 L 26.37,230.49 L 24.24,230.54 L 23.30,230.57 L 21.50,230.62 L 20.72,230.65 L 19.21,230.71 L 18.57,230.74 L 17.33,230.81 L 16.81,230.84 L 14.95,230.99 L 14.31,231.07 L 13.21,231.24 L 12.86,231.33 L 12.29,231.53 L 12.13,231.63 L 11.85,231.86 L 11.75,231.98 L 10.13,233.21 L 9.00,233.56 L 8.61,233.40 L 6.55,233.23 L 6.05,233.41 L 7.52,232.44 L 11.68,230.00 L 263.31,230.00 M 3.55,235.86 L 3.14,237.31 L 3.21,238.13 L 2.95,240.65 L 2.29,241.82 L 1.72,242.14 L 1.03,242.81 L 0.66,243.50 L 0.52,243.97 L 0.26,245.02 L 0.21,245.44 L 0.26,244.39 L 0.53,242.32 L 0.69,241.33 L 1.16,239.63 L 1.43,238.82 L 2.14,237.41 L 2.53,236.73 L 3.51,235.54 L 3.83,235.18 M 449.50,199.91 L 391.08,199.92 L 391.85,199.92 L 394.66,199.91 L 400.14,199.88 L 402.67,199.86 L 407.60,199.82 L 409.86,199.80 L 414.26,199.75 L 416.26,199.73 L 420.15,199.67 L 421.92,199.64 L 425.33,199.57 L 426.87,199.53 L 429.83,199.45 L 431.16,199.41 L 433.70,199.32 L 434.82,199.27 L 436.97,199.16 L 437.91,199.11 L 439.69,198.99 L 440.45,198.92 L 441.90,198.79 L 442.50,198.71 L 443.63,198.56 L 444.09,198.48 L 444.94,198.31 L 445.26,198.22 L 446.32,197.84 L 446.53,197.62 L 446.68,197.31 M 81.95,188.31 L 81.95,188.31 L 82.66,187.66 M 431.60,185.64 L 433.78,186.91 L 434.64,187.52 L 431.57,185.62 M 86.01,184.61 L 86.01,184.61 L 87.74,183.20 M 427.21,183.23 L 427.56,183.42 L 427.10,183.20 L 426.71,183.01 M 91.48,180.23 L 91.48,180.23 L 95.76,177.54 M 410.50,174.07 L 410.66,174.93 L 411.02,176.12 L 411.24,176.66 L 412.07,177.44 L 412.32,177.63 L 412.99,177.98 L 413.36,178.15 L 414.29,178.51 L 414.79,178.69 L 416.04,179.09 L 418.33,179.78 L 419.61,180.16 L 417.54,179.63 L 416.67,179.53 L 415.03,179.46 L 414.43,179.61 L 412.25,179.71 L 411.00,179.36 L 410.55,179.02 L 409.78,178.26 L 409.65,177.78 L 409.59,176.77 L 409.89,176.23 L 410.19,175.29 L 410.26,174.51 L 410.25,174.06 L 410.05,172.13 M 97.16,176.66 L 97.16,176.66 L 98.30,176.00 M 100.04,174.99 L 100.04,174.99 L 102.83,173.76 M 404.77,158.55 L 406.71,162.76 L 407.62,164.85 L 409.08,168.84 L 409.40,169.80 L 409.92,171.60 L 410.03,172.07 L 409.77,171.09 L 409.12,169.02 L 408.68,168.13 L 407.73,166.48 L 407.18,166.00 L 405.96,164.02 L 405.43,162.22 L 405.40,161.36 L 405.00,159.42 L 404.42,157.90 M 124.25,160.37 L 123.50,167.21 L 124.20,160.87 L 124.44,158.64 L 124.45,158.56 M 476.92,119.40 L 474.85,121.84 L 470.76,126.65 L 468.72,129.04 L 464.79,133.65 L 462.85,135.91 L 459.20,140.17 L 457.42,142.25 L 454.19,146.01 L 452.63,147.81 L 449.94,150.92 L 449.30,151.66 L 448.16,152.97 L 447.60,153.60 L 446.64,154.70 L 446.18,155.23 L 445.40,156.10 L 445.04,156.50 L 444.48,157.12 L 444.22,157.40 L 443.88,157.75 L 443.65,157.96 L 443.63,157.95 L 443.30,157.78 L 443.09,157.68 L 442.45,157.35 L 441.75,156.98 L 439.78,155.95 L 438.88,155.47 L 437.30,154.33 L 436.56,153.74 L 435.43,152.54 L 435.15,152.20 L 435.43,152.54 L 436.56,153.73 L 437.30,154.32 L 438.88,155.45 L 439.78,155.91 L 441.46,156.70 L 442.15,156.89 L 443.43,157.14 L 443.92,157.06 L 444.79,156.76 L 445.07,156.41 L 445.54,155.57 L 445.62,154.95 L 445.88,153.00 L 446.39,152.29 L 447.06,152.00 L 447.47,152.00 L 448.04,151.73 L 448.62,151.29 L 449.00,150.96 L 449.80,150.22 L 450.28,149.76 L 451.27,148.77 L 451.82,148.20 L 454.17,145.72 L 455.47,144.28 L 458.12,141.29 L 459.46,139.73 L 462.12,136.60 L 463.34,135.11 L 465.68,132.20 L 466.63,130.96 L 467.53,129.76 L 467.90,129.23 L 468.60,128.24 L 468.85,127.83 L 469.30,127.09 L 469.42,126.83 L 469.59,126.38 L 469.55,126.28 L 469.69,124.97 L 470.23,123.99 L 470.62,123.57 L 471.45,122.78 L 471.88,122.57 L 472.70,122.31 L 473.00,122.50 L 473.44,122.37 L 473.93,122.02 L 474.26,121.74 L 474.97,121.09 L 475.40,120.67 L 476.30,119.77 L 476.80,119.24 L 478.97,116.92 L 480.18,115.55 L 480.46,115.24 M 401.47,152.54 L 401.51,152.61 L 401.40,152.43 M 127.49,145.50 L 126.76,148.35 L 126.17,150.31 L 125.92,151.00 L 125.58,152.24 L 125.59,152.19 L 126.67,148.07 L 127.25,146.03 L 127.57,145.17 M 400.31,150.79 L 400.54,151.13 L 400.39,150.92 L 399.16,149.20 M 393.39,142.13 L 394.69,143.49 L 397.08,146.35 L 397.11,146.38 L 395.49,144.47 L 393.36,142.09 M 384.89,134.54 L 386.41,135.69 L 389.31,138.18 L 384.56,134.30 M 381.80,132.29 L 383.22,133.32 L 381.04,131.80 M 139.04,124.24 L 138.72,124.84 L 138.27,125.92 L 138.35,126.24 L 138.24,127.85 L 137.74,128.96 L 137.38,129.42 L 136.58,130.26 L 136.16,130.46 L 135.33,130.70 L 134.98,130.49 L 134.42,130.77 L 134.19,131.05 L 134.24,130.96 L 135.34,129.19 L 137.81,125.78 L 139.09,124.10 L 139.46,123.67 M 375.29,128.38 L 376.96,129.27 L 377.94,129.87 L 374.97,128.22 M 370.24,125.96 L 371.94,126.68 L 372.57,127.00 L 371.61,126.56 L 368.92,125.43 M 159.67,106.60 L 158.67,107.39 L 158.28,107.79 L 157.58,108.60 L 157.34,109.00 L 156.51,110.19 L 155.95,110.76 L 155.67,110.95 L 155.09,111.25 L 154.79,111.31 L 154.19,111.34 L 153.88,111.26 L 152.45,111.61 L 151.09,112.37 L 150.27,112.96 L 148.58,114.25 L 148.69,114.15 L 153.24,110.64 L 155.56,108.97 L 159.74,106.55 M 345.56,90.99 L 347.26,93.36 L 350.19,98.44 L 351.58,101.04 L 353.89,106.52 L 355.08,110.33 L 354.88,109.86 L 354.22,108.48 L 353.89,107.96 L 353.24,107.04 L 352.93,106.78 L 352.07,105.81 L 351.54,104.97 L 351.32,104.47 L 350.53,102.36 L 350.39,101.28 L 349.98,99.43 L 349.52,98.07 L 349.19,97.33 L 347.66,94.25 L 346.58,92.57 L 344.97,90.20 M 498.19,94.25 L 494.70,98.39 L 492.91,100.52 L 489.08,105.05 L 487.03,107.48 L 487.60,106.77 L 489.83,103.96 L 490.73,102.76 L 491.59,101.60 L 491.95,101.09 L 492.61,100.12 L 492.85,99.73 L 493.29,99.01 L 493.40,98.75 L 493.56,98.31 L 493.52,98.22 L 493.85,97.06 L 494.68,96.31 L 495.30,96.07 L 496.60,95.25 L 497.75,94.29 L 498.44,93.66 L 499.69,92.45 M 224.09,105.45 L 224.78,105.59 L 225.09,105.62 L 225.55,105.45 L 225.70,105.29 L 225.44,105.78 L 225.41,105.82 L 225.06,105.81 L 224.59,105.67 L 224.27,105.54 L 223.63,105.26 M 221.88,104.43 L 222.58,104.79 L 223.60,105.25 L 222.76,104.89 L 221.88,104.43 M 200.26,98.54 L 202.26,98.74 L 206.18,99.37 L 208.12,99.72 L 211.86,100.64 L 213.69,101.14 L 217.14,102.33 L 218.71,103.03 L 217.14,102.34 L 213.71,101.15 L 211.88,100.66 L 208.16,99.74 L 206.22,99.39 L 202.31,98.76 L 200.31,98.55 L 196.88,98.26 M 235.61,88.89 L 235.43,89.34 L 235.22,90.13 L 235.32,90.39 L 235.26,91.85 L 234.78,92.92 L 234.42,93.39 L 233.63,94.24 L 233.21,94.46 L 232.39,94.74 L 232.07,94.54 L 231.54,94.81 L 231.02,95.41 L 230.69,95.88 L 230.00,96.94 L 229.62,97.60 L 228.85,99.00 L 228.46,99.78 L 227.35,102.03 L 226.92,102.88 L 226.98,102.63 L 226.99,102.35 L 227.35,101.39 L 227.58,100.85 L 228.34,99.45 L 228.76,98.71 L 229.82,97.00 L 230.39,96.11 L 231.68,94.20 L 233.02,92.27 L 235.68,88.78 M 177.35,99.79 L 176.22,100.10 L 176.98,99.86 L 178.73,99.42 L 178.98,99.38 M 196.24,98.21 L 196.29,98.21 L 195.31,98.18 M 342.04,86.35 L 342.81,87.37 L 342.80,87.36 L 340.92,85.15 M 335.98,80.08 L 336.75,80.86 L 335.13,79.36 M 508.54,63.78 L 510.19,66.23 L 510.93,67.50 L 511.79,70.29 L 512.11,71.72 L 512.01,74.68 L 511.92,75.43 L 511.53,76.92 L 510.61,79.15 L 510.57,79.21 L 510.54,79.26 L 511.60,76.47 L 511.95,74.61 L 511.93,73.77 L 511.78,72.18 L 511.51,71.56 L 510.86,70.46 L 510.35,70.18 L 509.67,69.56 L 509.28,68.96 L 509.13,68.58 L 508.63,66.90 L 508.60,65.91 L 508.40,64.11 L 508.16,63.41 M 249.78,75.15 L 246.74,77.39 L 248.58,75.90 L 251.12,74.19 M 488.48,61.14 L 488.47,61.53 L 488.10,63.01 L 487.57,64.05 L 487.22,64.53 L 486.48,65.43 L 486.08,65.75 L 485.28,66.29 L 484.93,66.34 L 483.27,66.80 L 482.36,67.26 L 482.04,67.54 L 481.47,68.14 L 481.35,68.46 L 481.21,69.12 L 481.34,69.44 L 481.47,70.72 L 481.24,71.56 L 480.99,71.92 L 480.42,72.62 L 480.03,72.87 L 479.19,73.30 L 478.70,73.37 L 477.02,74.06 L 475.75,74.89 L 475.15,75.40 L 474.66,75.85 L 475.34,74.99 L 476.05,74.11 L 477.80,72.09 L 478.71,71.05 L 480.71,68.88 L 481.71,67.79 L 483.74,65.68 L 484.74,64.65 L 486.60,62.83 L 487.49,61.98 L 488.73,60.89 M 329.16,74.59 L 329.80,75.10 L 328.20,73.98 M 254.89,71.76 L 251.77,73.75 L 253.25,72.75 L 255.64,71.23 L 256.45,70.81 M 297.57,62.74 L 299.30,62.85 L 300.13,62.91 L 301.64,63.08 L 303.12,63.27 L 305.87,63.89 L 310.50,65.29 L 313.40,66.25 L 313.76,66.41 L 313.17,66.24 L 311.00,65.70 L 310.12,65.66 L 308.54,65.71 L 308.02,65.99 L 306.24,66.44 L 305.22,66.08 L 304.69,65.55 L 303.49,64.69 L 302.81,64.52 L 302.65,64.68 L 302.23,64.78 L 301.78,64.71 L 301.50,64.62 L 300.25,64.09 L 299.57,63.64 L 297.99,62.89 L 297.44,62.73 M 280.91,62.97 L 280.10,63.57 L 279.74,63.99 L 278.78,64.96 L 278.20,65.34 L 277.90,65.40 L 277.27,65.44 L 276.89,65.35 L 276.08,65.08 L 275.55,64.84 L 274.38,64.52 L 273.45,64.43 L 272.92,64.46 L 270.63,64.73 L 269.28,65.09 L 269.15,65.13 L 269.40,65.05 L 270.98,64.52 L 271.75,64.28 L 273.17,63.87 L 274.56,63.50 L 277.32,63.04 L 278.04,62.94 L 279.62,62.81 L 280.45,62.75 L 281.35,62.71 M 501.18,58.82 L 503.15,59.74 L 500.68,58.71 M 491.34,59.19 L 490.41,59.63 L 490.53,59.55 L 491.30,59.19 L 491.52,59.12 M 493.20,58.58 L 493.62,58.46 L 493.71,58.45 Z" fill="rgba(247,158,114,1)"/>
<path d="M 236.50,453.32 L 235.67,453.18 L 233.87,452.51 L 231.75,451.26 L 231.46,451.00 L 230.98,450.65 L 230.76,450.50 L 230.43,450.38 L 230.29,450.35 L 230.11,450.47 L 230.00,450.90 L 230.00,451.24 L 229.71,451.58 L 229.00,451.50 L 228.72,451.33 L 228.29,451.34 L 228.00,451.82 L 228.00,452.02 L 227.39,452.27 L 226.99,452.37 L 225.66,452.43 L 224.91,452.43 L 222.96,452.32 L 221.91,452.25 L 219.44,451.99 L 218.16,451.85 L 215.27,451.46 L 213.79,451.25 L 210.59,450.75 L 207.34,450.23 L 200.32,448.94 L 196.80,448.27 L 189.87,446.79 L 188.18,446.42 L 184.96,445.66 L 183.38,445.29 L 180.46,444.54 L 179.04,444.17 L 176.53,443.45 L 175.33,443.09 L 173.31,442.42 L 172.38,442.09 L 170.98,441.48 L 169.66,440.66 L 169.35,440.35 L 168.53,439.81 L 168.09,439.56 L 167.04,439.17 L 163.11,438.51 L 162.36,438.48 L 161.14,438.42 L 160.57,438.39 L 159.65,438.33 L 158.80,438.26 L 157.67,437.99 L 157.16,437.81 L 156.24,437.16 L 154.43,435.53 L 153.96,435.08 L 153.12,434.44 L 152.72,434.16 L 152.00,433.83 L 151.66,433.70 L 151.03,433.67 L 150.13,433.93 L 149.85,434.08 L 148.92,434.12 L 148.39,434.10 L 146.95,433.79 L 146.16,433.58 L 144.16,432.90 L 140.50,431.47 L 138.16,430.49 L 133.08,428.20 L 130.56,427.04 L 125.96,424.81 L 124.89,424.29 L 123.04,423.34 L 122.17,422.89 L 120.83,422.15 L 120.24,421.81 L 119.55,421.35 L 119.40,421.04 L 119.53,421.04 L 119.58,420.88 L 119.58,420.78 L 119.40,420.46 L 118.12,419.10 L 117.52,418.58 L 116.03,417.90 L 114.08,417.69 L 113.77,417.77 L 112.84,417.65 L 112.32,417.54 L 111.01,417.06 L 110.31,416.78 L 108.65,415.98 L 107.78,415.54 L 105.82,414.45 L 104.81,413.87 L 102.59,412.51 L 101.45,411.81 L 99.02,410.22 L 96.54,408.58 L 91.11,404.74 L 88.34,402.74 L 82.59,398.36 L 79.71,396.13 L 73.97,391.46 L 71.14,389.11 L 65.75,384.39 L 58.44,377.52 L 56.69,375.78 L 53.58,372.64 L 52.08,371.12 L 49.46,368.39 L 48.21,367.07 L 46.06,364.72 L 45.05,363.59 L 43.34,361.60 L 42.54,360.64 L 41.25,358.97 L 40.66,358.17 L 39.77,356.79 L 39.37,356.14 L 38.85,355.03 L 38.46,353.63 L 38.40,353.05 L 37.67,351.54 L 37.23,350.77 L 36.03,349.20 L 35.42,348.45 L 34.14,347.29 L 33.83,347.05 L 33.27,346.71 L 32.55,346.50 L 32.43,346.50 L 32.06,346.18 L 31.85,345.98 L 31.34,345.33 L 29.64,342.50 L 29.07,341.40 L 27.79,339.27 L 27.49,338.79 L 26.93,337.98 L 26.24,337.13 L 26.02,336.90 L 25.36,335.96 L 25.01,335.42 L 24.18,334.01 L 23.33,332.51 L 21.44,328.84 L 20.98,327.92 L 20.13,326.13 L 19.72,325.25 L 19.03,323.68 L 18.72,322.93 L 18.28,321.75 L 18.00,320.60 L 18.00,320.20 L 17.55,319.12 L 16.48,317.62 L 16.23,317.37 L 15.55,316.28 L 15.19,315.64 L 14.35,313.90 L 13.91,312.96 L 12.96,310.71 L 12.47,309.53 L 11.45,306.92 L 10.43,304.24 L 8.43,298.39 L 7.96,296.94 L 7.08,294.09 L 5.95,290.04 L 5.53,288.43 L 4.96,285.92 L 4.72,284.76 L 4.48,282.99 L 4.39,282.17 L 4.46,280.91 L 4.87,279.38 L 5.09,278.90 L 5.33,278.13 L 5.41,277.77 L 5.37,277.14 L 5.31,276.84 L 4.95,276.24 L 4.05,275.26 L 3.70,274.93 L 3.11,273.94 L 2.83,273.37 L 2.34,271.76 L 2.11,270.86 L 1.69,268.46 L 1.08,263.79 L 0.88,261.98 L 0.56,258.75 L 0.42,257.19 L 0.21,254.46 L 0.12,253.15 L 0.03,250.88 L -0.00,249.80 L 0.02,247.97 L 0.04,247.10 L 0.18,245.68 L 0.26,245.02 L 0.52,243.97 L 0.66,243.50 L 1.03,242.81 L 1.72,242.14 L 2.29,241.82 L 2.95,240.65 L 3.21,238.13 L 3.14,237.31 L 3.55,235.86 L 3.83,235.18 L 4.77,234.14 L 5.29,233.68 L 6.55,233.23 L 8.61,233.40 L 9.00,233.56 L 10.13,233.21 L 11.75,231.98 L 11.85,231.86 L 12.13,231.63 L 12.29,231.53 L 12.86,231.33 L 13.21,231.24 L 14.31,231.07 L 14.95,230.99 L 16.81,230.84 L 17.33,230.81 L 18.57,230.74 L 19.21,230.71 L 20.72,230.65 L 21.50,230.62 L 23.30,230.57 L 24.24,230.54 L 26.37,230.49 L 27.48,230.47 L 29.97,230.42 L 31.26,230.40 L 34.14,230.36 L 35.63,230.34 L 38.92,230.30 L 40.62,230.29 L 44.35,230.25 L 46.28,230.24 L 50.49,230.21 L 52.65,230.20 L 57.37,230.17 L 59.79,230.16 L 65.03,230.14 L 67.72,230.13 L 73.53,230.11 L 76.50,230.10 L 82.90,230.08 L 86.17,230.08 L 93.19,230.06 L 96.78,230.06 L 104.44,230.05 L 108.36,230.04 L 116.70,230.03 L 120.96,230.03 L 130.00,230.02 L 134.62,230.02 L 144.40,230.01 L 149.39,230.01 L 159.94,230.01 L 165.31,230.01 L 176.65,230.00 L 182.42,230.00 L 194.59,230.00 L 200.77,230.00 L 213.79,230.00 L 220.41,230.00 L 234.30,230.00 L 256.17,230.00 L 263.02,230.00 L 276.14,230.00 L 282.61,230.00 L 295.00,230.00 L 301.10,230.00 L 312.77,230.00 L 318.52,230.01 L 329.50,230.01 L 334.90,230.01 L 345.21,230.02 L 350.28,230.02 L 359.93,230.02 L 364.67,230.03 L 373.69,230.03 L 378.13,230.04 L 386.54,230.05 L 390.67,230.05 L 398.49,230.06 L 402.33,230.07 L 409.58,230.08 L 413.14,230.08 L 419.84,230.10 L 423.13,230.11 L 429.31,230.12 L 432.33,230.13 L 438.00,230.15 L 440.78,230.16 L 445.97,230.18 L 448.51,230.19 L 453.23,230.21 L 455.54,230.23 L 459.82,230.25 L 461.91,230.27 L 465.77,230.29 L 467.66,230.31 L 471.12,230.34 L 472.80,230.36 L 475.89,230.39 L 477.38,230.41 L 480.11,230.45 L 481.43,230.47 L 483.82,230.51 L 484.97,230.53 L 487.05,230.58 L 488.05,230.60 L 489.82,230.65 L 490.68,230.67 L 492.18,230.72 L 493.62,230.78 L 495.77,230.89 L 496.74,230.96 L 498.07,231.09 L 498.64,231.16 L 499.32,231.31 L 499.78,231.56 L 500.02,231.99 L 500.83,232.73 L 502.13,233.34 L 502.64,233.42 L 503.96,234.17 L 504.64,234.62 L 506.03,235.85 L 506.69,236.49 L 507.77,237.84 L 508.62,239.59 L 508.68,240.02 L 509.29,241.08 L 510.58,242.44 L 510.97,242.72 L 511.48,243.45 L 511.70,243.89 L 511.92,245.32 L 511.95,245.74 L 511.98,246.81 L 511.99,247.38 L 511.95,248.79 L 511.93,249.54 L 511.84,251.35 L 511.66,254.60 L 511.49,257.41 L 510.91,263.19 L 510.59,266.10 L 509.75,271.92 L 509.30,274.81 L 508.25,280.44 L 507.70,283.22 L 506.49,288.46 L 505.87,291.00 L 504.55,295.63 L 503.88,297.84 L 502.51,301.64 L 502.16,302.52 L 501.47,304.10 L 501.13,304.86 L 500.44,306.16 L 500.10,306.77 L 499.43,307.76 L 498.43,308.87 L 497.98,309.27 L 497.32,309.97 L 497.03,310.30 L 496.70,310.92 L 496.57,311.22 L 496.54,311.79 L 496.82,312.64 L 496.96,312.89 L 497.01,313.68 L 497.01,314.12 L 496.79,315.21 L 496.65,315.78 L 496.20,317.08 L 495.96,317.75 L 495.32,319.17 L 494.64,320.61 L 492.90,323.50 L 490.01,327.14 L 489.13,328.03 L 488.06,329.72 L 487.86,330.12 L 487.65,330.86 L 487.67,331.83 L 487.74,332.10 L 487.42,333.23 L 487.20,333.88 L 486.42,335.60 L 485.98,336.50 L 484.88,338.56 L 484.30,339.61 L 483.03,341.76 L 482.38,342.82 L 481.09,344.82 L 480.46,345.77 L 479.29,347.37 L 478.74,348.10 L 477.84,349.05 L 477.65,349.24 L 477.33,349.45 L 476.98,349.49 L 476.67,349.30 L 475.84,349.56 L 475.42,349.77 L 474.60,350.58 L 474.22,351.03 L 473.71,352.04 L 473.61,353.41 L 473.69,353.63 L 473.47,354.43 L 473.31,354.87 L 472.67,356.01 L 472.32,356.61 L 471.39,357.95 L 470.90,358.63 L 469.79,360.03 L 468.65,361.42 L 466.32,363.79 L 465.77,364.30 L 464.81,365.04 L 463.67,365.58 L 463.12,365.66 L 462.03,366.27 L 461.51,366.62 L 460.61,367.58 L 460.21,368.08 L 459.72,369.14 L 459.66,370.56 L 459.70,370.66 L 459.56,371.03 L 459.46,371.24 L 459.06,371.83 L 458.83,372.14 L 458.20,372.92 L 457.85,373.32 L 457.01,374.26 L 456.11,375.24 L 453.79,377.59 L 452.56,378.81 L 449.71,381.53 L 448.23,382.91 L 445.05,385.80 L 443.43,387.26 L 440.10,390.15 L 438.44,391.57 L 435.17,394.27 L 430.55,397.91 L 429.23,398.91 L 426.08,401.19 L 424.46,402.35 L 421.04,404.75 L 419.33,405.93 L 416.04,408.15 L 411.71,410.97 L 409.17,412.57 L 403.59,415.80 L 400.74,417.41 L 394.74,420.60 L 391.72,422.17 L 385.58,425.18 L 382.52,426.65 L 376.52,429.36 L 373.56,430.67 L 367.96,432.97 L 365.23,434.05 L 360.31,435.82 L 359.13,436.22 L 356.95,436.90 L 355.89,437.22 L 353.97,437.73 L 353.05,437.96 L 351.43,438.27 L 349.37,438.52 L 348.48,438.56 L 346.94,438.75 L 346.22,438.86 L 344.98,439.19 L 344.40,439.37 L 343.43,439.86 L 342.23,440.77 L 341.94,441.06 L 340.74,441.72 L 340.05,442.05 L 338.12,442.78 L 337.08,443.16 L 334.49,443.94 L 333.13,444.33 L 329.98,445.15 L 328.35,445.56 L 324.72,446.39 L 322.85,446.80 L 318.82,447.62 L 316.76,448.02 L 312.42,448.81 L 305.64,449.93 L 303.45,450.27 L 299.68,450.85 L 297.89,451.12 L 294.87,451.56 L 293.44,451.76 L 291.10,452.07 L 290.00,452.21 L 288.25,452.40 L 287.45,452.48 L 286.23,452.56 L 285.68,452.58 L 284.92,452.55 L 284.59,452.52 L 284.21,452.39 L 284.00,452.09 L 284.00,451.65 L 283.51,451.06 L 283.20,450.82 L 282.30,450.66 L 281.82,450.63 L 280.78,450.89 L 279.35,451.79 L 278.98,452.16 L 277.80,452.69 L 277.44,452.81 L 276.48,453.00 L 275.96,453.09 L 274.60,453.23 L 273.87,453.29 L 272.02,453.40 L 271.02,453.44 L 268.58,453.51 L 267.28,453.55 L 264.15,453.59 L 258.57,453.65 L 255.95,453.67 L 250.93,453.67 L 248.50,453.67 L 244.22,453.62 L 243.22,453.60 L 241.44,453.56 L 240.60,453.54 L 239.17,453.49 L 238.51,453.47 L 237.49,453.41 L 237.04,453.38 M 74.00,198.13 L 74.00,197.87 L 74.52,196.88 L 74.86,196.32 L 75.94,194.87 L 76.54,194.10 L 78.04,192.37 L 80.60,189.66 L 81.95,188.31 L 84.65,185.82 L 86.01,184.61 L 88.74,182.39 L 91.48,180.23 L 97.16,176.66 L 100.04,174.99 L 106.17,172.30 L 116.11,169.11 L 123.50,167.23 L 124.25,160.37 L 124.46,158.48 L 125.06,154.78 L 125.21,153.93 L 125.51,152.51 L 125.92,151.00 L 126.17,150.31 L 126.76,148.35 L 127.49,145.50 L 127.62,144.93 L 128.06,143.52 L 128.31,142.79 L 128.95,141.15 L 129.62,139.48 L 131.25,136.06 L 131.65,135.25 L 132.45,133.77 L 132.83,133.07 L 133.54,131.94 L 133.87,131.43 L 134.42,130.77 L 134.98,130.49 L 135.33,130.70 L 136.16,130.46 L 136.58,130.26 L 137.38,129.42 L 137.74,128.96 L 138.24,127.85 L 138.35,126.24 L 138.27,125.92 L 138.72,124.84 L 139.04,124.24 L 140.14,122.74 L 140.75,121.95 L 142.30,120.21 L 143.11,119.33 L 144.90,117.55 L 145.81,116.67 L 147.66,115.04 L 148.57,114.26 L 150.27,112.96 L 151.09,112.37 L 152.45,111.61 L 153.88,111.26 L 154.19,111.34 L 154.79,111.31 L 155.09,111.25 L 155.67,110.95 L 155.95,110.76 L 156.51,110.19 L 157.34,109.00 L 157.58,108.60 L 158.28,107.79 L 158.67,107.39 L 159.67,106.60 L 160.21,106.20 L 161.51,105.42 L 162.19,105.03 L 163.79,104.26 L 164.62,103.88 L 166.51,103.12 L 167.50,102.74 L 169.68,101.99 L 170.81,101.62 L 173.30,100.88 L 177.35,99.79 L 179.04,99.36 L 182.68,98.76 L 184.52,98.50 L 188.38,98.22 L 190.33,98.12 L 194.31,98.15 L 196.31,98.21 L 200.31,98.55 L 202.31,98.76 L 206.22,99.39 L 208.16,99.74 L 211.88,100.66 L 213.71,101.15 L 217.14,102.34 L 221.84,104.41 L 222.76,104.89 L 224.27,105.54 L 224.59,105.67 L 225.06,105.81 L 225.41,105.82 L 225.44,105.78 L 225.72,105.25 L 225.89,104.92 L 226.40,103.92 L 226.68,103.37 L 227.35,102.03 L 228.46,99.78 L 228.85,99.00 L 229.62,97.60 L 230.00,96.94 L 230.69,95.88 L 231.02,95.41 L 231.54,94.81 L 232.07,94.54 L 232.39,94.74 L 233.21,94.46 L 233.63,94.24 L 234.42,93.39 L 234.78,92.92 L 235.26,91.85 L 235.32,90.39 L 235.22,90.13 L 235.43,89.34 L 235.61,88.89 L 236.36,87.72 L 236.80,87.09 L 238.09,85.55 L 240.61,82.86 L 241.94,81.51 L 244.93,78.89 L 246.48,77.59 L 249.78,75.15 L 251.45,73.95 L 254.89,71.76 L 256.61,70.71 L 260.01,68.87 L 261.69,68.01 L 264.89,66.61 L 266.45,65.97 L 269.28,65.09 L 270.63,64.73 L 272.92,64.46 L 273.45,64.43 L 274.38,64.52 L 275.55,64.84 L 276.08,65.08 L 276.89,65.35 L 277.27,65.44 L 277.90,65.40 L 278.20,65.34 L 278.78,64.96 L 279.74,63.99 L 280.10,63.57 L 280.91,62.97 L 281.36,62.71 L 282.58,62.37 L 283.27,62.22 L 285.20,62.08 L 285.75,62.05 L 287.02,62.02 L 289.26,62.00 L 290.64,62.00 L 292.96,62.09 L 294.05,62.15 L 295.83,62.38 L 296.66,62.51 L 297.99,62.89 L 299.57,63.64 L 300.25,64.09 L 301.50,64.62 L 301.78,64.71 L 302.23,64.78 L 302.65,64.68 L 302.81,64.52 L 303.49,64.69 L 304.69,65.55 L 305.22,66.08 L 306.24,66.44 L 308.02,65.99 L 308.54,65.71 L 310.12,65.66 L 311.00,65.70 L 313.17,66.24 L 314.31,66.57 L 316.92,67.62 L 318.26,68.19 L 321.13,69.67 L 322.59,70.45 L 325.59,72.26 L 327.09,73.21 L 330.06,75.28 L 331.53,76.35 L 334.31,78.60 L 338.10,82.10 L 339.80,83.82 L 342.80,87.36 L 344.23,89.13 L 346.58,92.57 L 347.66,94.25 L 349.19,97.33 L 349.52,98.07 L 349.98,99.43 L 350.39,101.28 L 350.53,102.36 L 351.32,104.47 L 351.54,104.97 L 352.07,105.81 L 352.93,106.78 L 353.24,107.04 L 353.89,107.96 L 354.22,108.48 L 354.88,109.86 L 355.20,110.59 L 355.81,112.31 L 356.62,115.16 L 358.24,121.83 L 365.09,124.03 L 367.26,124.73 L 371.61,126.56 L 373.77,127.55 L 378.03,129.92 L 380.14,131.17 L 384.22,134.02 L 390.04,138.78 L 391.86,140.42 L 395.49,144.47 L 397.26,146.56 L 400.39,150.92 L 401.12,151.99 L 402.40,154.05 L 403.00,155.06 L 403.96,156.93 L 404.40,157.84 L 405.00,159.42 L 405.40,161.36 L 405.43,162.22 L 405.96,164.02 L 407.18,166.00 L 407.73,166.48 L 408.68,168.13 L 409.12,169.02 L 409.77,171.09 L 410.05,172.12 L 410.25,174.06 L 410.26,174.51 L 410.19,175.29 L 409.89,176.23 L 409.59,176.77 L 409.65,177.78 L 409.78,178.26 L 410.55,179.02 L 411.00,179.36 L 412.25,179.71 L 414.43,179.61 L 415.03,179.46 L 416.67,179.53 L 417.54,179.63 L 419.64,180.17 L 420.73,180.49 L 423.17,181.42 L 424.43,181.93 L 427.10,183.20 L 429.81,184.54 L 435.43,188.00 L 436.81,188.91 L 439.48,190.86 L 443.22,193.89 L 444.16,194.71 L 445.89,196.04 L 446.24,196.35 L 446.63,196.89 L 446.76,197.16 L 446.53,197.62 L 446.32,197.84 L 445.26,198.22 L 444.94,198.31 L 444.09,198.48 L 443.63,198.56 L 442.50,198.71 L 441.90,198.79 L 440.45,198.92 L 439.69,198.99 L 437.91,199.11 L 436.97,199.16 L 434.82,199.27 L 433.70,199.32 L 431.16,199.41 L 429.83,199.45 L 426.87,199.53 L 425.33,199.57 L 421.92,199.64 L 420.15,199.67 L 416.26,199.73 L 414.26,199.75 L 409.86,199.80 L 407.60,199.82 L 402.67,199.86 L 400.14,199.88 L 394.66,199.91 L 391.85,199.92 L 385.77,199.94 L 382.66,199.95 L 375.98,199.97 L 372.56,199.98 L 365.23,199.99 L 361.49,199.99 L 353.49,200.00 L 349.41,200.00 L 340.72,200.01 L 336.28,200.01 L 326.87,200.01 L 322.07,200.01 L 311.90,200.01 L 306.72,200.01 L 295.78,200.00 L 290.21,200.00 L 278.46,200.00 L 259.89,200.00 L 254.24,200.00 L 243.44,200.00 L 238.13,200.00 L 227.99,200.00 L 223.00,200.00 L 213.50,200.00 L 208.83,200.00 L 199.96,199.99 L 195.60,199.99 L 187.32,199.99 L 183.25,199.99 L 175.55,199.98 L 171.77,199.98 L 164.63,199.97 L 161.12,199.97 L 154.52,199.96 L 151.28,199.96 L 145.19,199.95 L 142.20,199.94 L 136.60,199.93 L 133.87,199.93 L 128.74,199.91 L 126.24,199.90 L 121.56,199.89 L 119.28,199.88 L 115.04,199.86 L 112.97,199.85 L 109.15,199.83 L 107.28,199.82 L 103.84,199.79 L 102.17,199.78 L 99.10,199.75 L 97.61,199.73 L 94.88,199.70 L 93.56,199.68 L 91.17,199.65 L 90.01,199.63 L 87.92,199.59 L 86.91,199.57 L 85.11,199.52 L 83.38,199.48 L 80.67,199.37 L 79.43,199.31 L 77.60,199.19 L 76.78,199.12 L 75.65,198.98 L 75.16,198.90 L 74.57,198.73 L 74.32,198.64 L 74.10,198.45 L 74.02,198.35 M 439.78,155.91 L 438.88,155.45 L 437.30,154.32 L 436.56,153.73 L 435.43,152.54 L 434.94,151.95 L 434.44,150.90 L 434.61,149.72 L 434.69,149.64 L 434.69,149.24 L 434.66,149.01 L 434.48,148.36 L 434.25,147.67 L 433.43,145.90 L 432.98,145.00 L 431.94,143.29 L 430.50,141.50 L 430.34,141.36 L 429.87,140.84 L 429.63,140.54 L 429.05,139.77 L 427.26,137.00 L 425.20,133.50 L 446.62,108.50 L 449.56,105.06 L 455.13,98.62 L 456.47,97.07 L 458.99,94.17 L 460.22,92.76 L 462.47,90.20 L 463.55,88.96 L 465.46,86.81 L 466.36,85.79 L 467.86,84.13 L 468.55,83.36 L 469.58,82.25 L 470.52,81.30 L 471.20,80.69 L 472.27,79.48 L 472.50,79.20 L 472.80,78.72 L 473.00,78.20 L 473.00,77.88 L 473.63,76.93 L 474.02,76.44 L 475.15,75.40 L 475.75,74.89 L 477.02,74.06 L 478.70,73.37 L 479.19,73.30 L 480.03,72.87 L 480.42,72.62 L 480.99,71.92 L 481.24,71.56 L 481.47,70.72 L 481.34,69.44 L 481.21,69.12 L 481.35,68.46 L 481.47,68.14 L 482.04,67.54 L 482.36,67.26 L 483.27,66.80 L 484.93,66.34 L 485.28,66.29 L 486.08,65.75 L 486.48,65.43 L 487.22,64.53 L 487.57,64.05 L 488.10,63.01 L 488.47,61.53 L 488.48,61.14 L 489.29,60.32 L 489.80,59.92 L 491.34,59.19 L 492.16,58.85 L 494.08,58.36 L 497.00,58.03 L 497.48,58.03 L 498.67,58.21 L 499.30,58.33 L 500.65,58.70 L 504.50,60.30 L 505.34,60.77 L 506.55,61.58 L 507.08,61.98 L 507.78,62.76 L 508.08,63.17 L 508.40,64.11 L 508.60,65.91 L 508.63,66.90 L 509.13,68.58 L 509.28,68.96 L 509.67,69.56 L 510.35,70.18 L 510.86,70.46 L 511.51,71.56 L 511.78,72.18 L 511.93,73.77 L 511.95,74.61 L 511.60,76.47 L 510.52,79.32 L 510.24,79.86 L 509.32,81.24 L 508.82,81.97 L 507.55,83.62 L 506.21,85.32 L 503.02,88.95 L 502.22,89.84 L 500.64,91.49 L 499.87,92.28 L 498.44,93.66 L 497.75,94.29 L 496.60,95.25 L 495.30,96.07 L 494.68,96.31 L 493.85,97.06 L 493.52,98.22 L 493.56,98.31 L 493.40,98.75 L 493.29,99.01 L 492.85,99.73 L 492.61,100.12 L 491.95,101.09 L 491.59,101.60 L 490.73,102.76 L 489.83,103.96 L 487.60,106.77 L 486.45,108.21 L 483.93,111.21 L 482.67,112.71 L 480.18,115.55 L 478.97,116.92 L 476.80,119.24 L 476.30,119.77 L 475.40,120.67 L 474.97,121.09 L 474.26,121.74 L 473.93,122.02 L 473.44,122.37 L 473.00,122.50 L 472.70,122.31 L 471.88,122.57 L 471.45,122.78 L 470.62,123.57 L 470.23,123.99 L 469.69,124.97 L 469.55,126.28 L 469.59,126.38 L 469.42,126.83 L 469.30,127.09 L 468.85,127.83 L 468.60,128.24 L 467.90,129.23 L 467.53,129.76 L 466.63,130.96 L 465.68,132.20 L 463.34,135.11 L 462.12,136.60 L 459.46,139.73 L 458.12,141.29 L 455.47,144.28 L 454.17,145.72 L 451.82,148.20 L 451.27,148.77 L 450.28,149.76 L 449.80,150.22 L 449.00,150.96 L 448.62,151.29 L 448.04,151.73 L 447.47,152.00 L 447.06,152.00 L 446.39,152.29 L 445.88,153.00 L 445.62,154.95 L 445.54,155.57 L 445.07,156.41 L 444.79,156.76 L 443.92,157.06 L 443.43,157.14 L 442.15,156.89 L 441.46,156.70 Z" fill="rgba(247,160,113,1)"/>
</g>
</svg>