<svg version="1.1" id="Layer_1" xmlns="http://www.w3.org/2000/svg" xmlns:xlink="http://www.w3.org/1999/xlink" x="0px" y="0px"
	 width="100%" viewBox="0 0 512 512" enable-background="new 0 0 512 512" xml:space="preserve">
<path fill="#B5E2FA" opacity="1.000000" stroke="none" 
	d="
M352.000000,513.000000 
	C234.695175,513.000000 117.890343,513.000000 1.042754,513.000000 
	C1.042754,342.403473 1.042754,171.806946 1.042754,1.105209 
	C171.554840,1.105209 342.109741,1.105209 512.832336,1.105209 
	C512.832336,171.666534 512.832336,342.333252 512.832336,513.000000 
	C459.473541,513.000000 405.986786,513.000000 352.000000,513.000000 
M393.215515,431.841492 
	C400.672211,426.381226 403.790741,418.887787 403.768372,409.803070 
	C403.715820,388.477966 403.753601,367.152679 403.753052,345.827454 
	C403.752350,319.337524 403.837585,292.847229 403.714417,266.357849 
	C403.643097,251.011536 393.501282,240.966721 378.371857,240.849686 
	C376.091980,240.832047 373.811859,240.847214 371.007294,240.847214 
	C371.007294,238.444260 371.007324,236.651886 371.007294,234.859512 
	C371.007019,221.198044 370.863190,207.534760 371.035614,193.875473 
	C371.424347,163.082535 360.904755,136.725250 340.078491,114.042412 
	C298.628845,68.897781 227.670364,65.231987 182.149750,106.191711 
	C160.395676,125.766121 146.068756,149.492264 143.912140,179.050049 
	C142.569733,197.448212 143.229218,215.992569 142.997025,234.471405 
	C142.972595,236.414505 142.993729,238.358170 142.993729,240.845520 
	C140.428406,240.845520 138.472839,240.838409 136.517319,240.846634 
	C120.312691,240.914749 110.363838,250.775146 110.260658,266.955627 
	C110.199043,276.618256 110.246712,286.281555 110.246826,295.944550 
	C110.247276,333.930084 110.209229,371.915710 110.267578,409.901154 
	C110.292488,426.115814 120.297287,436.091400 136.472321,436.096558 
	C216.775116,436.122101 297.078125,436.178680 377.380219,435.942017 
	C382.451996,435.927094 387.516754,433.519531 393.215515,431.841492 
z"/>
<path fill="#0FA3B1" opacity="1.000000" stroke="none" 
	d="
M392.900146,432.033264 
	C387.516754,433.519531 382.451996,435.927094 377.380219,435.942017 
	C297.078125,436.178680 216.775116,436.122101 136.472321,436.096558 
	C120.297287,436.091400 110.292488,426.115814 110.267578,409.901154 
	C110.209229,371.915710 110.247276,333.930084 110.246826,295.944550 
	C110.246712,286.281555 110.199043,276.618256 110.260658,266.955627 
	C110.363838,250.775146 120.312691,240.914749 136.517319,240.846634 
	C138.472839,240.838409 140.428406,240.845520 142.993729,240.845520 
	C142.993729,238.358170 142.972595,236.414505 142.997025,234.471405 
	C143.229218,215.992569 142.569733,197.448212 143.912140,179.050049 
	C146.068756,149.492264 160.395676,125.766121 182.149750,106.191711 
	C227.670364,65.231987 298.628845,68.897781 340.078491,114.042412 
	C360.904755,136.725250 371.424347,163.082535 371.035614,193.875473 
	C370.863190,207.534760 371.007019,221.198044 371.007294,234.859512 
	C371.007324,236.651886 371.007294,238.444260 371.007294,240.847214 
	C373.811859,240.847214 376.091980,240.832047 378.371857,240.849686 
	C393.501282,240.966721 403.643097,251.011536 403.714417,266.357849 
	C403.837585,292.847229 403.752350,319.337524 403.753052,345.827454 
	C403.753601,367.152679 403.715820,388.477966 403.768372,409.803070 
	C403.790741,418.887787 400.672211,426.381226 392.900146,432.033264 
M198.375534,162.974503 
	C193.993988,171.956055 191.861206,181.429016 191.906509,191.436386 
	C191.973648,206.263504 191.907684,221.091217 191.923523,235.918640 
	C191.925079,237.371628 192.102036,238.824417 192.211700,240.492142 
	C235.551559,240.492142 278.586304,240.492142 321.814728,240.492142 
	C321.919708,238.847046 322.074524,237.542343 322.075256,236.237564 
	C322.083984,220.910324 322.181030,205.581711 321.991730,190.256699 
	C321.936646,185.796173 321.461700,181.251160 320.470581,176.906555 
	C314.528717,150.860809 292.076752,130.459579 266.018951,127.159042 
	C237.851166,123.591263 212.341400,136.927429 198.375534,162.974503 
z"/>
<path fill="#B4E2FA" opacity="1.000000" stroke="none" 
	d="
M198.563110,162.650253 
	C212.341400,136.927429 237.851166,123.591263 266.018951,127.159042 
	C292.076752,130.459579 314.528717,150.860809 320.470581,176.906555 
	C321.461700,181.251160 321.936646,185.796173 321.991730,190.256699 
	C322.181030,205.581711 322.083984,220.910324 322.075256,236.237564 
	C322.074524,237.542343 321.919708,238.847046 321.814728,240.492142 
	C278.586304,240.492142 235.551559,240.492142 192.211700,240.492142 
	C192.102036,238.824417 191.925079,237.371628 191.923523,235.918640 
	C191.907684,221.091217 191.973648,206.263504 191.906509,191.436386 
	C191.861206,181.429016 193.993988,171.956055 198.563110,162.650253 
z"/>
</svg>