<svg xmlns="http://www.w3.org/2000/svg" width="512" height="512" viewBox="0 0 512 512">
<g>
<path d="M 38.76,509.94 L 37.58,509.31 L 35.44,507.38 L 32.87,503.75 L 32.38,502.78 L 31.72,501.13 L 31.44,500.29 L 31.15,498.32 L 31.10,497.77 L 31.06,496.48 L 31.05,495.80 L 31.07,494.17 L 31.09,493.30 L 31.18,491.23 L 31.37,487.52 L 31.53,484.43 L 32.05,478.34 L 32.34,475.30 L 33.11,469.30 L 33.53,466.32 L 34.55,460.42 L 35.09,457.49 L 36.36,451.69 L 37.03,448.81 L 38.55,443.12 L 39.34,440.28 L 41.11,434.70 L 42.02,431.92 L 44.04,426.44 L 45.08,423.71 L 47.34,418.34 L 48.50,415.67 L 51.01,410.41 L 52.29,407.79 L 55.05,402.64 L 56.46,400.08 L 59.46,395.04 L 60.99,392.54 L 64.23,387.61 L 65.88,385.16 L 69.37,380.35 L 71.14,377.97 L 74.87,373.27 L 76.77,370.94 L 80.74,366.37 L 86.97,359.64 L 90.94,355.53 L 99.27,347.92 L 103.50,344.22 L 112.32,337.43 L 116.79,334.14 L 126.06,328.18 L 130.75,325.31 L 140.46,320.21 L 145.36,317.76 L 155.45,313.53 L 160.55,311.52 L 171.01,308.17 L 176.28,306.61 L 187.07,304.16 L 203.60,301.51 L 204.56,301.40 L 207.10,301.19 L 208.46,301.09 L 211.72,300.90 L 213.42,300.81 L 217.29,300.65 L 219.29,300.58 L 223.66,300.44 L 225.90,300.38 L 230.68,300.27 L 233.11,300.22 L 238.18,300.13 L 243.31,300.05 L 254.00,299.98 L 259.35,299.95 L 269.87,299.99 L 272.45,300.00 L 277.43,300.06 L 279.88,300.09 L 284.53,300.17 L 286.80,300.21 L 291.00,300.32 L 293.04,300.38 L 296.70,300.52 L 298.46,300.59 L 301.47,300.76 L 305.14,301.05 L 310.85,301.62 L 322.07,303.52 L 327.65,304.58 L 338.58,307.44 L 344.01,308.98 L 354.60,312.78 L 359.85,314.79 L 370.06,319.51 L 375.12,321.98 L 384.90,327.59 L 389.74,330.50 L 399.06,336.99 L 403.65,340.34 L 412.45,347.69 L 425.03,359.64 L 427.16,361.85 L 431.25,366.36 L 433.27,368.63 L 437.12,373.27 L 439.01,375.60 L 442.62,380.35 L 444.39,382.74 L 447.76,387.61 L 449.41,390.06 L 452.53,395.04 L 454.06,397.55 L 456.94,402.65 L 458.35,405.21 L 460.98,410.42 L 462.26,413.04 L 464.65,418.36 L 465.81,421.03 L 467.95,426.46 L 468.99,429.19 L 470.89,434.72 L 471.80,437.50 L 473.45,443.14 L 474.24,445.97 L 475.63,451.72 L 476.30,454.60 L 477.45,460.44 L 477.99,463.38 L 478.89,469.32 L 479.30,472.30 L 479.95,478.35 L 480.63,487.52 L 480.71,488.90 L 480.82,491.23 L 480.87,492.33 L 480.93,494.17 L 480.95,495.04 L 480.94,496.49 L 480.93,497.17 L 480.85,498.32 L 480.74,499.42 L 480.28,501.13 L 479.13,503.75 L 478.41,505.16 L 476.52,507.42 L 473.03,509.99 L 472.54,510.24 L 471.26,510.65 L 470.84,510.74 L 469.68,510.91 L 469.02,511.00 L 467.22,511.14 L 466.22,511.21 L 463.57,511.34 L 462.85,511.37 L 461.21,511.42 L 460.35,511.45 L 458.42,511.50 L 457.42,511.52 L 455.19,511.57 L 454.03,511.59 L 451.46,511.63 L 450.13,511.65 L 447.20,511.69 L 445.69,511.71 L 442.38,511.74 L 440.67,511.75 L 436.94,511.78 L 435.02,511.79 L 430.85,511.82 L 428.71,511.83 L 424.08,511.85 L 421.71,511.86 L 416.58,511.88 L 413.96,511.89 L 408.32,511.90 L 405.43,511.91 L 399.25,511.92 L 396.09,511.93 L 389.34,511.94 L 385.89,511.94 L 378.55,511.95 L 374.80,511.95 L 366.84,511.96 L 362.77,511.96 L 354.16,511.96 L 349.78,511.96 L 340.49,511.96 L 335.76,511.97 L 325.78,511.97 L 320.70,511.97 L 310.00,511.97 L 304.55,511.96 L 293.10,511.96 L 287.27,511.96 L 275.04,511.96 L 255.79,511.96 L 249.22,511.95 L 236.67,511.95 L 230.49,511.95 L 218.72,511.95 L 212.93,511.95 L 201.92,511.94 L 196.50,511.94 L 186.21,511.94 L 181.16,511.93 L 171.57,511.93 L 166.86,511.93 L 157.95,511.92 L 153.58,511.92 L 145.32,511.91 L 141.27,511.91 L 133.64,511.90 L 129.90,511.89 L 122.87,511.88 L 119.43,511.87 L 112.97,511.86 L 109.81,511.85 L 103.91,511.84 L 101.02,511.83 L 95.64,511.81 L 93.01,511.80 L 88.13,511.78 L 85.75,511.77 L 81.34,511.75 L 79.19,511.73 L 75.23,511.71 L 73.30,511.69 L 69.77,511.66 L 68.05,511.64 L 64.91,511.61 L 63.38,511.59 L 60.61,511.55 L 59.27,511.53 L 56.85,511.49 L 55.68,511.47 L 53.58,511.42 L 52.57,511.40 L 50.76,511.34 L 49.89,511.32 L 48.36,511.26 L 46.88,511.20 L 44.64,511.07 L 43.62,511.00 L 42.13,510.84 L 41.46,510.76 L 40.52,510.58 L 39.67,510.39 M 242.00,269.39 L 237.98,268.89 L 230.18,267.47 L 226.33,266.69 L 218.86,264.70 L 215.17,263.64 L 208.03,261.07 L 204.49,259.71 L 197.66,256.55 L 194.28,254.90 L 187.73,251.16 L 184.50,249.21 L 178.24,244.87 L 175.15,242.63 L 169.17,237.69 L 160.49,229.59 L 158.01,227.10 L 153.44,222.02 L 151.21,219.46 L 147.14,214.24 L 145.16,211.61 L 141.55,206.20 L 139.81,203.47 L 136.66,197.84 L 135.14,194.99 L 132.42,189.10 L 131.11,186.11 L 128.80,179.92 L 127.70,176.78 L 125.78,170.24 L 123.31,160.00 L 123.01,158.53 L 122.51,154.95 L 122.28,153.07 L 121.93,148.87 L 121.78,146.71 L 121.59,142.11 L 121.51,139.78 L 121.47,135.00 L 121.47,132.61 L 121.59,127.89 L 121.66,125.56 L 121.93,121.13 L 122.09,118.97 L 122.51,115.05 L 123.31,110.00 L 124.05,106.49 L 125.77,99.77 L 126.69,96.46 L 128.79,90.11 L 129.90,86.97 L 132.41,80.93 L 133.71,77.95 L 136.64,72.20 L 138.16,69.35 L 141.54,63.83 L 143.28,61.10 L 147.12,55.78 L 149.10,53.14 L 153.43,47.97 L 160.49,40.36 L 162.98,37.84 L 168.07,33.18 L 170.64,30.92 L 175.91,26.75 L 178.58,24.72 L 184.07,21.03 L 186.84,19.24 L 192.57,16.00 L 195.47,14.44 L 201.47,11.64 L 204.51,10.29 L 210.81,7.92 L 214.00,6.78 L 220.64,4.82 L 231.00,2.31 L 232.46,2.01 L 236.00,1.52 L 237.87,1.29 L 242.05,0.95 L 244.20,0.80 L 248.80,0.61 L 251.13,0.53 L 255.92,0.50 L 258.31,0.50 L 263.06,0.61 L 265.41,0.69 L 269.89,0.95 L 272.07,1.10 L 276.06,1.52 L 281.24,2.32 L 284.66,3.00 L 291.25,4.67 L 294.52,5.56 L 300.83,7.66 L 303.95,8.76 L 310.00,11.30 L 312.99,12.62 L 318.80,15.61 L 321.68,17.17 L 327.27,20.62 L 330.04,22.41 L 335.44,26.34 L 338.12,28.36 L 343.34,32.78 L 351.02,39.98 L 353.55,42.51 L 358.21,47.64 L 360.48,50.22 L 364.62,55.47 L 366.63,58.12 L 370.28,63.55 L 372.05,66.29 L 375.23,71.94 L 376.77,74.79 L 379.51,80.71 L 380.83,83.70 L 383.15,89.93 L 384.27,93.08 L 386.20,99.67 L 388.69,110.00 L 388.99,111.47 L 389.49,115.05 L 389.72,116.93 L 390.07,121.13 L 390.22,123.29 L 390.41,127.89 L 390.49,130.22 L 390.53,135.00 L 390.53,137.39 L 390.41,142.11 L 390.34,144.44 L 390.07,148.87 L 389.91,151.03 L 389.49,154.95 L 388.69,160.00 L 387.95,163.55 L 386.18,170.36 L 385.25,173.72 L 383.08,180.19 L 381.95,183.38 L 379.36,189.53 L 378.02,192.57 L 375.00,198.43 L 373.44,201.33 L 369.97,206.93 L 368.18,209.71 L 364.25,215.09 L 362.23,217.75 L 357.82,222.93 L 350.64,230.51 L 348.15,232.97 L 343.03,237.55 L 340.45,239.78 L 335.16,243.89 L 332.49,245.89 L 327.01,249.53 L 324.24,251.30 L 318.57,254.49 L 315.71,256.03 L 309.84,258.76 L 306.88,260.07 L 300.81,262.35 L 297.74,263.44 L 291.46,265.27 L 281.78,267.53 L 280.77,267.72 L 278.05,268.09 L 276.59,268.27 L 273.15,268.60 L 271.38,268.76 L 267.51,269.03 L 265.54,269.16 L 261.51,269.37 L 259.49,269.46 L 255.55,269.59 L 253.62,269.65 L 250.05,269.68 L 248.34,269.69 L 245.40,269.62 L 244.03,269.57 Z" fill="rgba(255,255,255,1)"/>
</g>
</svg>