<svg version="1.1" id="Layer_1" xmlns="http://www.w3.org/2000/svg" xmlns:xlink="http://www.w3.org/1999/xlink" x="0px" y="0px"
	 width="100%" viewBox="0 0 512 512" enable-background="new 0 0 512 512" xml:space="preserve">
<path fill="#B5E2FA" opacity="1.000000" stroke="none" 
	d="
M346.000000,513.000000 
	C230.694687,513.000000 115.889366,513.000000 1.042022,513.000000 
	C1.042022,342.402985 1.042022,171.805969 1.042022,1.104477 
	C171.555328,1.104477 342.110718,1.104477 512.833069,1.104477 
	C512.833069,171.666534 512.833069,342.333252 512.833069,513.000000 
	C457.472565,513.000000 401.986298,513.000000 346.000000,513.000000 
M178.499619,392.003845 
	C182.840591,388.629852 187.067581,385.089478 191.594894,381.987427 
	C192.884079,381.104126 195.252609,380.892456 196.769943,381.412384 
	C201.638214,383.080536 206.462708,384.994171 211.041443,387.328278 
	C212.730820,388.189484 214.530762,390.341858 214.836487,392.149475 
	C216.195312,400.183746 217.011566,408.309021 218.059906,416.396729 
	C219.515991,427.630127 228.485840,435.891968 239.749680,436.054199 
	C251.246567,436.219849 262.749573,436.219696 274.246490,436.054382 
	C285.510162,435.892487 294.480042,427.637604 295.940948,416.400879 
	C296.992401,408.313538 297.802429,400.187378 299.160889,392.153046 
	C299.464783,390.355774 301.282288,388.224487 302.971741,387.365021 
	C307.553650,385.033936 312.376831,383.116425 317.245056,381.444824 
	C318.764252,380.923126 321.177673,381.095428 322.421082,381.997986 
	C329.293488,386.986389 335.818573,392.452240 342.675934,397.462585 
	C352.132538,404.372070 363.489349,403.589905 371.851898,395.484253 
	C379.748993,387.829712 387.525635,380.045380 395.188904,372.156525 
	C403.705536,363.389282 404.406006,352.047302 397.134979,342.179413 
	C393.281860,336.950134 389.589630,331.512970 385.106079,326.862518 
	C380.610565,322.199677 379.888031,318.014282 383.373077,312.526123 
	C385.210327,309.632843 385.676514,305.890106 387.386169,302.886322 
	C388.336151,301.217285 390.431854,299.458252 392.248779,299.152679 
	C400.283173,297.801483 408.412445,297.026031 416.491211,295.923828 
	C427.990814,294.354858 435.947906,285.343353 436.063843,273.636963 
	C436.174408,262.472076 436.183441,251.304108 436.057281,240.139542 
	C435.925873,228.510544 427.829651,219.550674 416.291656,218.042389 
	C408.206329,216.985443 400.079376,216.189133 392.047791,214.824387 
	C390.265656,214.521545 388.188660,212.633194 387.318939,210.928268 
	C385.058380,206.496765 383.617767,201.650055 381.403992,197.190414 
	C380.145294,194.654739 380.558746,193.058914 382.229462,190.990753 
	C387.358337,184.641830 392.389740,178.205704 397.234985,171.638168 
	C404.357819,161.983398 403.675964,150.623077 395.394531,142.059036 
	C387.749481,134.153076 379.955688,126.385277 372.063934,118.725037 
	C363.340271,110.257256 351.889893,109.614189 342.086945,116.928642 
	C336.613464,121.012672 331.074036,125.053207 325.966248,129.568054 
	C322.047607,133.031815 318.665405,134.341904 313.794678,131.192841 
	C310.507996,129.067902 306.308380,128.405396 302.783051,126.576263 
	C301.198425,125.754074 299.447540,123.814430 299.172394,122.150314 
	C297.843109,114.110054 296.981720,105.992081 295.970276,97.899689 
	C294.503967,86.167671 285.474884,78.032112 273.548798,77.921097 
	C262.550385,77.818710 251.549637,77.823196 240.551102,77.918442 
	C228.346466,78.024124 219.406006,86.189133 217.991943,98.278419 
	C217.276505,104.395058 216.033768,110.490150 215.856766,116.618874 
	C215.661667,123.374191 213.061859,127.269424 206.257767,128.671570 
	C203.068726,129.328751 200.220444,131.520935 197.049545,132.432495 
	C195.338501,132.924393 192.793854,132.850372 191.448212,131.884827 
	C184.819763,127.128716 178.537643,121.893944 172.000229,117.006058 
	C161.969559,109.506332 150.535522,110.265045 141.663925,118.983040 
	C134.056610,126.458649 126.520149,134.007828 119.034081,141.605011 
	C110.284981,150.483978 109.487633,161.926010 116.945358,171.935654 
	C121.025681,177.412216 125.069283,182.949509 129.582077,188.059677 
	C133.048431,191.984894 134.321793,195.360275 131.185867,200.240707 
	C128.979965,203.673752 128.198288,207.992126 126.383469,211.721924 
	C125.723778,213.077713 124.025185,214.584167 122.609230,214.807297 
	C114.557777,216.075958 106.457214,217.053574 98.356697,217.985336 
	C86.289619,219.373337 78.037132,228.295425 77.919060,240.477585 
	C77.812454,251.475922 77.814705,262.476837 77.917915,273.475220 
	C78.032310,285.666107 86.279388,294.648407 98.312065,296.006622 
	C104.430199,296.697205 110.523361,298.001373 116.647820,298.139160 
	C123.480515,298.292877 127.208809,301.085266 128.664658,307.777191 
	C129.358551,310.966675 131.521103,313.815826 132.429886,316.987762 
	C132.918869,318.694550 132.826111,321.233124 131.858917,322.579803 
	C127.002411,329.341431 121.655571,335.748322 116.698097,342.440643 
	C109.582031,352.046906 110.340431,363.463501 118.659012,371.993652 
	C126.337837,379.867798 134.110275,387.655121 141.994415,395.323425 
	C150.508087,403.603973 161.898636,404.285919 171.588593,397.302246 
	C173.750229,395.744293 175.829102,394.071533 178.499619,392.003845 
z"/>
<path fill="#0FA3B1" opacity="1.000000" stroke="none" 
	d="
M178.222855,392.227722 
	C175.829102,394.071533 173.750229,395.744293 171.588593,397.302246 
	C161.898636,404.285919 150.508087,403.603973 141.994415,395.323425 
	C134.110275,387.655121 126.337837,379.867798 118.659012,371.993652 
	C110.340431,363.463501 109.582031,352.046906 116.698097,342.440643 
	C121.655571,335.748322 127.002411,329.341431 131.858917,322.579803 
	C132.826111,321.233124 132.918869,318.694550 132.429886,316.987762 
	C131.521103,313.815826 129.358551,310.966675 128.664658,307.777191 
	C127.208809,301.085266 123.480515,298.292877 116.647820,298.139160 
	C110.523361,298.001373 104.430199,296.697205 98.312065,296.006622 
	C86.279388,294.648407 78.032310,285.666107 77.917915,273.475220 
	C77.814705,262.476837 77.812454,251.475922 77.919060,240.477585 
	C78.037132,228.295425 86.289619,219.373337 98.356697,217.985336 
	C106.457214,217.053574 114.557777,216.075958 122.609230,214.807297 
	C124.025185,214.584167 125.723778,213.077713 126.383469,211.721924 
	C128.198288,207.992126 128.979965,203.673752 131.185867,200.240707 
	C134.321793,195.360275 133.048431,191.984894 129.582077,188.059677 
	C125.069283,182.949509 121.025681,177.412216 116.945358,171.935654 
	C109.487633,161.926010 110.284981,150.483978 119.034081,141.605011 
	C126.520149,134.007828 134.056610,126.458649 141.663925,118.983040 
	C150.535522,110.265045 161.969559,109.506332 172.000229,117.006058 
	C178.537643,121.893944 184.819763,127.128716 191.448212,131.884827 
	C192.793854,132.850372 195.338501,132.924393 197.049545,132.432495 
	C200.220444,131.520935 203.068726,129.328751 206.257767,128.671570 
	C213.061859,127.269424 215.661667,123.374191 215.856766,116.618874 
	C216.033768,110.490150 217.276505,104.395058 217.991943,98.278419 
	C219.406006,86.189133 228.346466,78.024124 240.551102,77.918442 
	C251.549637,77.823196 262.550385,77.818710 273.548798,77.921097 
	C285.474884,78.032112 294.503967,86.167671 295.970276,97.899689 
	C296.981720,105.992081 297.843109,114.110054 299.172394,122.150314 
	C299.447540,123.814430 301.198425,125.754074 302.783051,126.576263 
	C306.308380,128.405396 310.507996,129.067902 313.794678,131.192841 
	C318.665405,134.341904 322.047607,133.031815 325.966248,129.568054 
	C331.074036,125.053207 336.613464,121.012672 342.086945,116.928642 
	C351.889893,109.614189 363.340271,110.257256 372.063934,118.725037 
	C379.955688,126.385277 387.749481,134.153076 395.394531,142.059036 
	C403.675964,150.623077 404.357819,161.983398 397.234985,171.638168 
	C392.389740,178.205704 387.358337,184.641830 382.229462,190.990753 
	C380.558746,193.058914 380.145294,194.654739 381.403992,197.190414 
	C383.617767,201.650055 385.058380,206.496765 387.318939,210.928268 
	C388.188660,212.633194 390.265656,214.521545 392.047791,214.824387 
	C400.079376,216.189133 408.206329,216.985443 416.291656,218.042389 
	C427.829651,219.550674 435.925873,228.510544 436.057281,240.139542 
	C436.183441,251.304108 436.174408,262.472076 436.063843,273.636963 
	C435.947906,285.343353 427.990814,294.354858 416.491211,295.923828 
	C408.412445,297.026031 400.283173,297.801483 392.248779,299.152679 
	C390.431854,299.458252 388.336151,301.217285 387.386169,302.886322 
	C385.676514,305.890106 385.210327,309.632843 383.373077,312.526123 
	C379.888031,318.014282 380.610565,322.199677 385.106079,326.862518 
	C389.589630,331.512970 393.281860,336.950134 397.134979,342.179413 
	C404.406006,352.047302 403.705536,363.389282 395.188904,372.156525 
	C387.525635,380.045380 379.748993,387.829712 371.851898,395.484253 
	C363.489349,403.589905 352.132538,404.372070 342.675934,397.462585 
	C335.818573,392.452240 329.293488,386.986389 322.421082,381.997986 
	C321.177673,381.095428 318.764252,380.923126 317.245056,381.444824 
	C312.376831,383.116425 307.553650,385.033936 302.971741,387.365021 
	C301.282288,388.224487 299.464783,390.355774 299.160889,392.153046 
	C297.802429,400.187378 296.992401,408.313538 295.940948,416.400879 
	C294.480042,427.637604 285.510162,435.892487 274.246490,436.054382 
	C262.749573,436.219696 251.246567,436.219849 239.749680,436.054199 
	C228.485840,435.891968 219.515991,427.630127 218.059906,416.396729 
	C217.011566,408.309021 216.195312,400.183746 214.836487,392.149475 
	C214.530762,390.341858 212.730820,388.189484 211.041443,387.328278 
	C206.462708,384.994171 201.638214,383.080536 196.769943,381.412384 
	C195.252609,380.892456 192.884079,381.104126 191.594894,381.987427 
	C187.067581,385.089478 182.840591,388.629852 178.222855,392.227722 
M226.451401,325.101746 
	C238.749481,330.446686 251.476120,332.512115 264.920837,331.200378 
	C303.001434,327.485138 333.356049,293.022369 331.743713,254.970688 
	C329.748077,207.874939 287.806366,174.857407 241.559753,183.975693 
	C206.925323,190.804443 180.439743,224.019897 182.338440,259.132477 
	C183.969345,289.292816 198.714249,311.230011 226.451401,325.101746 
z"/>
<path fill="#B4E2FA" opacity="1.000000" stroke="none" 
	d="
M226.100464,324.963135 
	C198.714249,311.230011 183.969345,289.292816 182.338440,259.132477 
	C180.439743,224.019897 206.925323,190.804443 241.559753,183.975693 
	C287.806366,174.857407 329.748077,207.874939 331.743713,254.970688 
	C333.356049,293.022369 303.001434,327.485138 264.920837,331.200378 
	C251.476120,332.512115 238.749481,330.446686 226.100464,324.963135 
z"/>
</svg>