<svg version="1.1" id="Layer_1" xmlns="http://www.w3.org/2000/svg" xmlns:xlink="http://www.w3.org/1999/xlink" x="0px" y="0px"
	 width="100%" viewBox="0 0 512 512" enable-background="new 0 0 512 512" xml:space="preserve">
<path fill="#B5E2FA" opacity="1.000000" stroke="none" 
	d="
M336.000000,513.000000 
	C224.027206,513.000000 112.554405,513.000000 1.040803,513.000000 
	C1.040803,342.402191 1.040803,171.804352 1.040803,1.103257 
	C171.556137,1.103257 342.112366,1.103257 512.834290,1.103257 
	C512.834290,171.666534 512.834290,342.333252 512.834290,513.000000 
	C454.137665,513.000000 395.318817,513.000000 336.000000,513.000000 
M159.500000,189.883301 
	C151.835434,189.883514 144.147598,190.269989 136.510757,189.809998 
	C115.403168,188.538620 99.750305,205.387817 99.947456,226.353500 
	C100.419037,276.502502 100.090897,326.658936 100.103447,376.812378 
	C100.109245,399.978455 113.970947,413.893433 137.054947,413.896484 
	C217.033859,413.907013 297.012756,413.907318 376.991669,413.896179 
	C400.052734,413.892975 413.890656,399.964294 413.896576,376.762268 
	C413.909302,326.942078 413.486359,277.116791 414.098389,227.304108 
	C414.354065,206.496445 399.862183,189.430405 376.440857,189.644196 
	C304.465851,190.301193 232.481018,189.883286 159.500000,189.883301 
M266.500000,167.259735 
	C302.978027,167.259613 339.456024,167.261932 375.934052,167.252670 
	C377.931061,167.252167 379.946808,167.310577 381.921387,167.072342 
	C386.963684,166.463959 390.710663,162.463196 391.139862,157.432495 
	C391.795807,149.744766 386.809479,145.009094 377.917664,145.007706 
	C297.299652,144.995102 216.681625,144.999924 136.063599,145.004242 
	C134.898697,145.004303 133.719482,144.957382 132.571304,145.112564 
	C126.662117,145.911224 122.701599,150.539307 122.801781,156.449448 
	C122.917656,163.285873 127.479980,167.234344 135.578415,167.240570 
	C178.885590,167.273865 222.192795,167.258606 266.500000,167.259735 
M259.500000,100.094139 
	C226.367905,100.094131 193.235794,100.091278 160.103699,100.101746 
	C158.275238,100.102318 156.413635,100.013390 154.624466,100.309998 
	C148.915085,101.256508 145.023941,105.833076 145.013458,111.385452 
	C145.003342,116.745575 148.601074,121.151497 154.135101,122.310478 
	C155.905701,122.681282 157.766388,122.741463 159.585892,122.742043 
	C224.518051,122.762680 289.450195,122.764008 354.382355,122.737122 
	C356.363495,122.736298 358.397156,122.633018 360.315369,122.186592 
	C365.421326,120.998299 368.738556,116.930069 368.970764,111.911102 
	C369.210052,106.738495 366.004211,102.147293 360.813263,100.731346 
	C358.770233,100.174057 356.544617,100.121445 354.401855,100.118973 
	C323.101257,100.082886 291.800629,100.094215 259.500000,100.094139 
z"/>
<path fill="#12A4B2" opacity="1.000000" stroke="none" 
	d="
M160.000000,189.883240 
	C232.481018,189.883286 304.465851,190.301193 376.440857,189.644196 
	C399.862183,189.430405 414.354065,206.496445 414.098389,227.304108 
	C413.486359,277.116791 413.909302,326.942078 413.896576,376.762268 
	C413.890656,399.964294 400.052734,413.892975 376.991669,413.896179 
	C297.012756,413.907318 217.033859,413.907013 137.054947,413.896484 
	C113.970947,413.893433 100.109245,399.978455 100.103447,376.812378 
	C100.090897,326.658936 100.419037,276.502502 99.947456,226.353500 
	C99.750305,205.387817 115.403168,188.538620 136.510757,189.809998 
	C144.147598,190.269989 151.835434,189.883514 160.000000,189.883240 
M350.500000,212.115875 
	C279.365265,212.116043 208.230545,212.111572 137.095825,212.121613 
	C126.964294,212.123032 122.778755,215.853729 122.772156,225.120544 
	C122.735771,276.264282 122.737740,327.408020 122.774467,378.551788 
	C122.780655,387.166656 126.749847,391.218231 135.257187,391.221863 
	C216.387497,391.256287 297.517822,391.255585 378.648132,391.223724 
	C387.224396,391.220367 391.216187,387.224762 391.222992,378.642639 
	C391.263641,327.498932 391.261932,276.355164 391.228027,225.211411 
	C391.222076,216.262741 387.053406,212.197266 377.988037,212.131622 
	C369.159119,212.067688 360.329376,212.116623 350.500000,212.115875 
z"/>
<path fill="#0FA3B1" opacity="1.000000" stroke="none" 
	d="
M266.000000,167.259933 
	C222.192795,167.258606 178.885590,167.273865 135.578415,167.240570 
	C127.479980,167.234344 122.917656,163.285873 122.801781,156.449448 
	C122.701599,150.539307 126.662117,145.911224 132.571304,145.112564 
	C133.719482,144.957382 134.898697,145.004303 136.063599,145.004242 
	C216.681625,144.999924 297.299652,144.995102 377.917664,145.007706 
	C386.809479,145.009094 391.795807,149.744766 391.139862,157.432495 
	C390.710663,162.463196 386.963684,166.463959 381.921387,167.072342 
	C379.946808,167.310577 377.931061,167.252167 375.934052,167.252670 
	C339.456024,167.261932 302.978027,167.259613 266.000000,167.259933 
z"/>
<path fill="#13A5B3" opacity="1.000000" stroke="none" 
	d="
M260.000000,100.094193 
	C291.800629,100.094215 323.101257,100.082886 354.401855,100.118973 
	C356.544617,100.121445 358.770233,100.174057 360.813263,100.731346 
	C366.004211,102.147293 369.210052,106.738495 368.970764,111.911102 
	C368.738556,116.930069 365.421326,120.998299 360.315369,122.186592 
	C358.397156,122.633018 356.363495,122.736298 354.382355,122.737122 
	C289.450195,122.764008 224.518051,122.762680 159.585892,122.742043 
	C157.766388,122.741463 155.905701,122.681282 154.135101,122.310478 
	C148.601074,121.151497 145.003342,116.745575 145.013458,111.385452 
	C145.023941,105.833076 148.915085,101.256508 154.624466,100.309998 
	C156.413635,100.013390 158.275238,100.102318 160.103699,100.101746 
	C193.235794,100.091278 226.367905,100.094131 260.000000,100.094193 
z"/>
<path fill="#B5E2FA" opacity="1.000000" stroke="none" 
	d="
M351.000000,212.115936 
	C360.329376,212.116623 369.159119,212.067688 377.988037,212.131622 
	C387.053406,212.197266 391.222076,216.262741 391.228027,225.211411 
	C391.261932,276.355164 391.263641,327.498932 391.222992,378.642639 
	C391.216187,387.224762 387.224396,391.220367 378.648132,391.223724 
	C297.517822,391.255585 216.387497,391.256287 135.257187,391.221863 
	C126.749847,391.218231 122.780655,387.166656 122.774467,378.551788 
	C122.737740,327.408020 122.735771,276.264282 122.772156,225.120544 
	C122.778755,215.853729 126.964294,212.123032 137.095825,212.121613 
	C208.230545,212.111572 279.365265,212.116043 351.000000,212.115936 
M201.041061,256.102020 
	C201.027237,285.919830 200.967010,315.737732 201.025955,345.555389 
	C201.045319,355.352295 209.053162,360.506775 217.751495,356.206238 
	C246.991501,341.749573 276.148041,327.124084 305.347992,312.586243 
	C309.865417,310.337128 312.910156,307.020081 312.889252,301.769501 
	C312.868347,296.521362 309.801239,293.272644 305.267670,291.015778 
	C276.357391,276.623932 247.490616,262.144775 218.575974,247.761810 
	C210.327072,243.658569 204.114853,246.408157 201.041061,256.102020 
z"/>
<path fill="#10A3B1" opacity="1.000000" stroke="none" 
	d="
M201.086288,255.671799 
	C204.114853,246.408157 210.327072,243.658569 218.575974,247.761810 
	C247.490616,262.144775 276.357391,276.623932 305.267670,291.015778 
	C309.801239,293.272644 312.868347,296.521362 312.889252,301.769501 
	C312.910156,307.020081 309.865417,310.337128 305.347992,312.586243 
	C276.148041,327.124084 246.991501,341.749573 217.751495,356.206238 
	C209.053162,360.506775 201.045319,355.352295 201.025955,345.555389 
	C200.967010,315.737732 201.027237,285.919830 201.086288,255.671799 
M272.599243,299.763794 
	C256.491821,291.702942 240.384399,283.642090 223.711670,275.298309 
	C223.711670,293.444794 223.711670,310.548950 223.711670,328.358398 
	C241.499741,319.454346 258.642578,310.873260 276.427948,301.970581 
	C274.856934,301.026367 274.050781,300.541840 272.599243,299.763794 
z"/>
<path fill="#B5E2FA" opacity="1.000000" stroke="none" 
	d="
M272.921936,299.910583 
	C274.050781,300.541840 274.856934,301.026367 276.427948,301.970581 
	C258.642578,310.873260 241.499741,319.454346 223.711670,328.358398 
	C223.711670,310.548950 223.711670,293.444794 223.711670,275.298309 
	C240.384399,283.642090 256.491821,291.702942 272.921936,299.910583 
z"/>
</svg>