<svg version="1.1" id="Layer_1" xmlns="http://www.w3.org/2000/svg" xmlns:xlink="http://www.w3.org/1999/xlink" x="0px" y="0px"
	 width="100%" viewBox="0 0 512 512" enable-background="new 0 0 512 512" xml:space="preserve">
<path fill="#B5E2FA" opacity="1.000000" stroke="none" 
	d="
M344.000000,513.000000 
	C229.361191,513.000000 115.222374,513.000000 1.041779,513.000000 
	C1.041779,342.402832 1.041779,171.805649 1.041779,1.104233 
	C171.555481,1.104233 342.111053,1.104233 512.833313,1.104233 
	C512.833313,171.666534 512.833313,342.333252 512.833313,513.000000 
	C456.805573,513.000000 400.652802,513.000000 344.000000,513.000000 
M349.579987,397.094086 
	C426.844452,345.243988 438.761200,252.485489 412.056976,194.512329 
	C410.529755,195.956741 408.992920,197.190948 407.716644,198.652679 
	C398.998657,208.637283 388.126495,213.048157 374.848694,212.189285 
	C367.712677,211.727676 360.521729,212.063049 353.356689,212.140350 
	C351.657135,212.158676 349.961975,212.584702 347.722229,212.899460 
	C358.551941,236.717178 360.961884,260.643738 353.741943,285.117706 
	C346.472015,309.761322 331.746857,329.008575 309.960175,342.664032 
	C272.006012,366.452881 222.396576,361.772339 189.062195,331.405670 
	C155.697617,301.011505 146.636002,251.752502 167.088989,211.576385 
	C177.415253,191.292358 192.831161,176.019272 213.355988,166.237808 
	C242.295135,152.446365 271.527832,153.070908 301.323914,166.248123 
	C301.563965,163.956665 301.859070,162.390884 301.869873,160.823135 
	C301.920441,153.490952 302.267181,146.134796 301.810791,138.830795 
	C300.992096,125.728363 305.394318,115.027176 315.217041,106.420586 
	C316.774231,105.056160 318.086456,103.412125 319.804626,101.586342 
	C317.563507,100.628342 316.071533,99.894516 314.515808,99.339554 
	C269.934265,83.436234 225.990585,85.269409 183.561859,106.068855 
	C112.773506,140.770782 76.526421,216.724197 93.061935,293.730194 
	C108.617462,366.172394 174.545578,421.840118 248.485626,424.851959 
	C284.842041,426.332947 318.416992,417.405334 349.579987,397.094086 
M324.436707,296.880585 
	C338.767029,273.904236 337.025299,242.729156 329.718231,230.712799 
	C328.450317,232.362457 327.477905,233.957397 326.196411,235.244644 
	C311.272949,250.235107 296.286560,265.162933 281.352264,280.142609 
	C274.135315,287.381470 265.420532,291.163391 255.263214,290.442383 
	C241.010544,289.430725 230.681107,282.202087 225.729294,268.694794 
	C220.734161,255.069290 223.798676,242.798004 234.053558,232.483780 
	C248.967361,217.483719 263.957184,202.559280 278.906799,187.594818 
	C280.183502,186.316864 281.401764,184.980530 282.992981,183.307770 
	C280.910065,182.545792 279.279816,181.824966 277.581390,181.346130 
	C221.273132,165.471344 167.205490,217.210419 180.531662,274.199799 
	C187.990921,306.099304 212.495773,329.387451 245.661926,334.459808 
	C277.929871,339.394775 307.652802,324.290833 324.436707,296.880585 
M254.358841,243.862061 
	C252.377762,245.886246 250.242783,247.783752 248.449387,249.962418 
	C245.253204,253.845200 245.002533,258.194122 247.383118,262.550079 
	C249.700714,266.790771 254.678879,269.218353 259.290955,267.764099 
	C261.994385,266.911652 264.614441,265.023285 266.664673,262.988861 
	C289.494598,240.335052 312.292206,217.646744 334.860718,194.733475 
	C338.460724,191.078461 342.014191,189.608170 347.073883,189.783035 
	C357.559937,190.145432 368.075745,190.124512 378.560638,189.745209 
	C381.669312,189.632751 385.519989,188.642685 387.656769,186.610321 
	C399.364990,175.474197 410.713715,163.955307 422.031555,152.416473 
	C425.361206,149.021790 425.949768,144.716812 423.903595,140.362503 
	C421.978027,136.264832 418.671417,133.984741 414.029419,133.915482 
	C411.863464,133.883179 409.696808,133.892090 407.530487,133.891541 
	C398.582245,133.889313 389.634003,133.890610 380.105042,133.890610 
	C380.105042,122.671089 380.026611,112.053329 380.137787,101.437553 
	C380.194183,96.051460 378.269104,91.992271 373.171448,89.888641 
	C368.035461,87.769196 363.828339,89.497627 360.088715,93.269447 
	C349.646545,103.801559 338.909424,114.054634 328.805481,124.899345 
	C326.248535,127.643745 324.516541,132.129074 324.317596,135.914917 
	C323.732483,147.049362 323.979614,158.236633 324.183197,169.398071 
	C324.246613,172.873978 323.093353,175.252304 320.664490,177.662460 
	C298.662750,199.494781 276.778442,221.445404 254.358841,243.862061 
z"/>
<path fill="#10A3B1" opacity="1.000000" stroke="none" 
	d="
M349.275024,397.287964 
	C318.416992,417.405334 284.842041,426.332947 248.485626,424.851959 
	C174.545578,421.840118 108.617462,366.172394 93.061935,293.730194 
	C76.526421,216.724197 112.773506,140.770782 183.561859,106.068855 
	C225.990585,85.269409 269.934265,83.436234 314.515808,99.339554 
	C316.071533,99.894516 317.563507,100.628342 319.804626,101.586342 
	C318.086456,103.412125 316.774231,105.056160 315.217041,106.420586 
	C305.394318,115.027176 300.992096,125.728363 301.810791,138.830795 
	C302.267181,146.134796 301.920441,153.490952 301.869873,160.823135 
	C301.859070,162.390884 301.563965,163.956665 301.323914,166.248123 
	C271.527832,153.070908 242.295135,152.446365 213.355988,166.237808 
	C192.831161,176.019272 177.415253,191.292358 167.088989,211.576385 
	C146.636002,251.752502 155.697617,301.011505 189.062195,331.405670 
	C222.396576,361.772339 272.006012,366.452881 309.960175,342.664032 
	C331.746857,329.008575 346.472015,309.761322 353.741943,285.117706 
	C360.961884,260.643738 358.551941,236.717178 347.722229,212.899460 
	C349.961975,212.584702 351.657135,212.158676 353.356689,212.140350 
	C360.521729,212.063049 367.712677,211.727676 374.848694,212.189285 
	C388.126495,213.048157 398.998657,208.637283 407.716644,198.652679 
	C408.992920,197.190948 410.529755,195.956741 412.056976,194.512329 
	C438.761200,252.485489 426.844452,345.243988 349.275024,397.287964 
z"/>
<path fill="#10A3B1" opacity="1.000000" stroke="none" 
	d="
M324.248413,297.194641 
	C307.652802,324.290833 277.929871,339.394775 245.661926,334.459808 
	C212.495773,329.387451 187.990921,306.099304 180.531662,274.199799 
	C167.205490,217.210419 221.273132,165.471344 277.581390,181.346130 
	C279.279816,181.824966 280.910065,182.545792 282.992981,183.307770 
	C281.401764,184.980530 280.183502,186.316864 278.906799,187.594818 
	C263.957184,202.559280 248.967361,217.483719 234.053558,232.483780 
	C223.798676,242.798004 220.734161,255.069290 225.729294,268.694794 
	C230.681107,282.202087 241.010544,289.430725 255.263214,290.442383 
	C265.420532,291.163391 274.135315,287.381470 281.352264,280.142609 
	C296.286560,265.162933 311.272949,250.235107 326.196411,235.244644 
	C327.477905,233.957397 328.450317,232.362457 329.718231,230.712799 
	C337.025299,242.729156 338.767029,273.904236 324.248413,297.194641 
z"/>
<path fill="#10A3B1" opacity="1.000000" stroke="none" 
	d="
M254.609299,243.611725 
	C276.778442,221.445404 298.662750,199.494781 320.664490,177.662460 
	C323.093353,175.252304 324.246613,172.873978 324.183197,169.398071 
	C323.979614,158.236633 323.732483,147.049362 324.317596,135.914917 
	C324.516541,132.129074 326.248535,127.643745 328.805481,124.899345 
	C338.909424,114.054634 349.646545,103.801559 360.088715,93.269447 
	C363.828339,89.497627 368.035461,87.769196 373.171448,89.888641 
	C378.269104,91.992271 380.194183,96.051460 380.137787,101.437553 
	C380.026611,112.053329 380.105042,122.671089 380.105042,133.890610 
	C389.634003,133.890610 398.582245,133.889313 407.530487,133.891541 
	C409.696808,133.892090 411.863464,133.883179 414.029419,133.915482 
	C418.671417,133.984741 421.978027,136.264832 423.903595,140.362503 
	C425.949768,144.716812 425.361206,149.021790 422.031555,152.416473 
	C410.713715,163.955307 399.364990,175.474197 387.656769,186.610321 
	C385.519989,188.642685 381.669312,189.632751 378.560638,189.745209 
	C368.075745,190.124512 357.559937,190.145432 347.073883,189.783035 
	C342.014191,189.608170 338.460724,191.078461 334.860718,194.733475 
	C312.292206,217.646744 289.494598,240.335052 266.664673,262.988861 
	C264.614441,265.023285 261.994385,266.911652 259.290955,267.764099 
	C254.678879,269.218353 249.700714,266.790771 247.383118,262.550079 
	C245.002533,258.194122 245.253204,253.845200 248.449387,249.962418 
	C250.242783,247.783752 252.377762,245.886246 254.609299,243.611725 
z"/>
</svg>