<svg version="1.1" id="Layer_1" xmlns="http://www.w3.org/2000/svg" xmlns:xlink="http://www.w3.org/1999/xlink" x="0px" y="0px"
	 width="100%" viewBox="0 0 512 512" enable-background="new 0 0 512 512" xml:space="preserve">
<path fill="#B5E2FA" opacity="1.000000" stroke="none" 
	d="
M242.000000,513.000000 
	C161.352890,513.000000 81.205780,513.000000 1.029336,513.000000 
	C1.029336,342.394531 1.029336,171.789062 1.029336,1.091791 
	C171.563797,1.091791 342.127655,1.091791 512.845764,1.091791 
	C512.845764,171.666565 512.845764,342.333252 512.845764,513.000000 
	C422.789032,513.000000 332.644501,513.000000 242.000000,513.000000 
M363.500000,436.108551 
	C376.331024,436.108032 389.162170,436.138184 401.993073,436.096466 
	C410.816803,436.067780 414.327332,432.410370 414.310760,423.574036 
	C414.279816,407.063477 411.481934,391.006470 405.078003,375.824280 
	C384.185974,326.293976 347.605042,296.223419 293.881195,289.114594 
	C278.300415,287.052887 262.293732,287.979004 246.482178,287.974609 
	C236.342270,287.971771 226.061295,287.846008 216.084885,289.362732 
	C150.486313,299.335938 101.177750,355.623749 99.730927,421.619690 
	C99.479507,433.088104 102.454201,436.106750 114.047043,436.107117 
	C196.864700,436.109650 279.682343,436.108612 363.500000,436.108551 
M351.218506,177.428253 
	C350.606995,169.153458 350.986542,160.660660 349.222076,152.639496 
	C338.302032,102.997818 293.274628,71.830269 242.837860,78.973511 
	C195.565628,85.668571 155.958740,129.555267 163.459305,184.866257 
	C170.462677,236.510818 215.187698,270.943024 266.955261,266.154236 
	C312.044556,261.983215 348.903259,223.571976 351.218506,177.428253 
z"/>
<path fill="#0FA3B1" opacity="1.000000" stroke="none" 
	d="
M363.000000,436.108643 
	C279.682343,436.108612 196.864700,436.109650 114.047043,436.107117 
	C102.454201,436.106750 99.479507,433.088104 99.730927,421.619690 
	C101.177750,355.623749 150.486313,299.335938 216.084885,289.362732 
	C226.061295,287.846008 236.342270,287.971771 246.482178,287.974609 
	C262.293732,287.979004 278.300415,287.052887 293.881195,289.114594 
	C347.605042,296.223419 384.185974,326.293976 405.078003,375.824280 
	C411.481934,391.006470 414.279816,407.063477 414.310760,423.574036 
	C414.327332,432.410370 410.816803,436.067780 401.993073,436.096466 
	C389.162170,436.138184 376.331024,436.108032 363.000000,436.108643 
z"/>
<path fill="#0FA3B1" opacity="1.000000" stroke="none" 
	d="
M351.190704,177.913971 
	C348.903259,223.571976 312.044556,261.983215 266.955261,266.154236 
	C215.187698,270.943024 170.462677,236.510818 163.459305,184.866257 
	C155.958740,129.555267 195.565628,85.668571 242.837860,78.973511 
	C293.274628,71.830269 338.302032,102.997818 349.222076,152.639496 
	C350.986542,160.660660 350.606995,169.153458 351.190704,177.913971 
z"/>
</svg>